{"glyphs":{"0":{"ha":708,"x_min":47,"x_max":640,"o":"m 47 220 q 89 413 47 313 q 212 582 131 513 q 406 650 293 650 q 586 582 531 650 q 640 415 640 515 q 599 221 640 321 q 477 52 558 120 q 283 -17 397 -17 q 102 51 157 -17 q 47 220 47 119 m 583 412 q 539 554 583 507 q 397 600 495 600 q 254 549 321 600 q 145 411 186 498 q 104 221 104 324 q 149 80 104 126 q 289 33 193 33 q 433 84 365 33 q 542 222 500 135 q 583 412 583 309 z "},"1":{"ha":597,"x_min":41,"x_max":511,"o":"m 41 0 l 52 54 l 253 54 l 357 575 l 103 488 l 115 545 l 368 633 l 427 633 l 306 54 l 511 54 l 498 0 l 41 0 z "},"2":{"ha":707,"x_min":68,"x_max":566,"o":"m 511 476 q 476 567 511 533 q 372 600 441 600 q 175 551 283 600 l 187 608 q 372 650 273 650 q 513 605 461 650 q 566 482 566 560 q 512 326 566 398 q 377 194 458 253 q 158 49 297 136 l 158 46 q 338 54 255 54 l 538 54 l 522 0 l 68 0 l 77 49 q 363 245 294 190 q 472 356 432 300 q 511 476 511 413 z "},"3":{"ha":625,"x_min":-79,"x_max":538,"o":"m -79 -248 l -69 -199 q 104 -232 12 -232 q 325 -163 241 -232 q 408 17 408 -94 q 349 140 408 106 q 154 174 290 174 l 134 174 l 143 222 l 172 222 q 325 254 254 222 q 439 341 396 286 q 482 464 482 396 q 435 565 482 528 q 306 602 387 602 q 209 590 262 602 q 114 564 156 578 l 123 615 q 319 650 220 650 q 479 601 420 650 q 538 461 538 552 q 474 305 538 374 q 302 205 410 235 l 300 203 q 422 146 380 193 q 464 21 464 100 q 364 -198 464 -115 q 100 -281 264 -281 q -79 -248 1 -281 z "},"4":{"ha":679,"x_min":7,"x_max":545,"o":"m 349 0 l 7 0 l 16 45 l 404 633 l 464 633 l 79 52 l 79 47 l 191 49 l 359 49 l 408 289 l 464 289 l 412 49 l 545 49 l 536 0 l 404 0 l 347 -262 l 294 -262 l 349 0 z "},"5":{"ha":675,"x_min":-4,"x_max":656,"o":"m -4 -248 l 8 -200 q 93 -222 45 -214 q 182 -231 141 -231 q 330 -202 262 -231 q 438 -117 397 -174 q 479 25 479 -59 q 413 164 479 121 q 220 207 347 207 l 127 205 l 265 633 l 656 633 l 646 579 l 302 579 l 201 257 l 239 258 q 458 197 379 258 q 536 28 536 136 q 489 -138 536 -68 q 360 -244 441 -208 q 182 -281 279 -281 q 76 -272 127 -281 q -4 -248 26 -262 z "},"6":{"ha":606,"x_min":24,"x_max":603,"o":"m 24 264 q 72 542 24 387 q 222 811 121 698 q 475 925 324 925 q 541 917 504 925 q 603 899 577 909 l 595 850 q 537 868 573 860 q 464 876 500 876 q 292 809 368 876 q 165 633 216 741 q 89 400 114 525 l 93 401 q 193 498 133 463 q 328 533 253 533 q 482 475 426 533 q 538 315 538 416 q 503 158 538 235 q 401 32 468 81 q 243 -17 334 -17 q 83 54 142 -17 q 24 264 24 124 m 482 315 q 437 437 482 391 q 319 482 393 482 q 151 406 219 482 q 82 220 82 330 q 127 83 82 133 q 248 33 172 33 q 375 75 322 33 q 455 181 428 116 q 482 315 482 245 z "},"7":{"ha":539,"x_min":33,"x_max":545,"o":"m 33 -262 l 464 579 l 49 579 l 58 633 l 545 633 l 536 597 l 93 -262 l 33 -262 z "},"8":{"ha":647,"x_min":43,"x_max":656,"o":"m 43 191 q 111 378 43 300 q 289 469 180 455 l 292 472 q 224 520 251 496 q 178 582 197 543 q 160 676 160 620 q 234 857 160 788 q 427 925 307 925 q 593 869 531 925 q 656 720 656 814 q 591 560 656 631 q 425 469 526 490 l 425 465 q 535 400 490 448 q 581 271 581 353 q 544 129 581 195 q 437 23 507 62 q 277 -17 368 -17 q 101 39 160 -17 q 43 191 43 94 m 599 724 q 556 834 599 793 q 429 875 514 875 q 271 819 330 875 q 212 671 212 764 q 252 556 212 597 q 367 494 292 515 q 536 575 473 513 q 599 724 599 637 m 524 265 q 481 384 524 343 q 358 440 439 425 q 169 366 242 432 q 96 197 96 299 q 143 75 96 116 q 279 33 190 33 q 454 100 385 33 q 524 265 524 167 z "},"9":{"ha":654,"x_min":-25,"x_max":579,"o":"m -25 -248 l -9 -193 q 52 -218 14 -209 q 127 -228 90 -228 q 310 -164 229 -228 q 445 8 392 -100 q 518 245 498 116 l 515 245 q 412 141 475 181 q 272 102 349 102 q 118 158 174 102 q 62 314 62 215 q 142 555 62 460 q 343 650 222 650 q 462 619 408 650 q 547 524 515 588 q 579 363 579 459 q 524 52 579 201 q 366 -189 469 -96 q 127 -281 262 -281 q 37 -271 77 -281 q -25 -248 -3 -261 m 515 397 q 469 545 515 490 q 343 600 422 600 q 181 520 243 600 q 118 311 118 440 q 161 195 120 235 q 275 155 203 155 q 402 190 347 155 q 486 281 456 225 q 515 397 515 337 z "},"\u0000":{"ha":0,"x_min":0,"x_max":0,"o":""},"\r":{"ha":271,"x_min":0,"x_max":0,"o":""}," ":{"ha":271,"x_min":0,"x_max":0,"o":""},"!":{"ha":332,"x_min":56,"x_max":311,"o":"m 114 261 l 237 907 l 311 907 l 165 261 l 114 261 m 56 0 l 72 87 l 149 87 l 131 0 l 56 0 z "},"\"":{"ha":435,"x_min":109,"x_max":469,"o":"m 109 607 l 174 907 l 245 907 l 183 607 l 109 607 m 334 607 l 395 907 l 469 907 l 408 607 l 334 607 z "},"#":{"ha":856,"x_min":72,"x_max":815,"o":"m 810 566 l 650 566 l 579 342 l 730 342 l 726 288 l 562 288 l 476 0 l 415 0 l 504 288 l 282 288 l 195 0 l 135 0 l 224 288 l 72 288 l 79 342 l 239 342 l 309 566 l 155 566 l 161 619 l 325 619 l 412 907 l 471 907 l 385 619 l 606 619 l 694 907 l 753 907 l 665 619 l 815 619 l 810 566 m 521 342 l 589 566 l 368 566 l 297 342 l 521 342 z "},"$":{"ha":681,"x_min":65,"x_max":590,"o":"m 422 593 l 368 345 q 504 291 469 321 q 538 208 538 262 q 473 74 538 120 q 298 20 408 28 l 283 -56 l 225 -56 l 240 17 q 137 27 182 17 q 65 52 91 37 l 74 102 q 148 76 101 87 q 252 65 195 66 l 302 309 q 180 364 214 328 q 146 461 146 401 q 207 591 146 545 q 374 643 268 637 l 389 713 l 447 713 l 432 642 q 590 611 514 637 l 578 566 q 422 593 492 589 m 313 357 l 363 591 q 204 465 204 580 q 218 409 204 430 q 255 376 233 387 q 313 357 278 366 m 358 297 l 310 68 q 479 201 479 83 q 456 260 479 241 q 358 297 433 279 z "},"%":{"ha":1103,"x_min":90,"x_max":1060,"o":"m 90 510 q 117 690 90 593 q 200 856 144 787 q 338 925 256 925 q 460 750 460 925 q 434 569 460 666 q 352 402 408 471 q 215 334 297 334 q 121 379 153 334 q 90 510 90 425 m 164 -9 l 130 20 l 982 909 l 1018 878 l 164 -9 m 408 745 q 391 844 408 814 q 332 875 374 875 q 227 810 269 875 q 165 659 185 745 q 144 513 144 573 q 162 413 144 444 q 220 382 179 382 q 325 447 282 382 q 388 597 368 511 q 408 745 408 684 m 690 163 q 717 343 690 246 q 800 509 744 440 q 938 578 856 578 q 1060 403 1060 578 q 1034 221 1060 319 q 952 55 1008 124 q 815 -14 897 -14 q 722 32 753 -14 q 690 163 690 78 m 1008 397 q 991 497 1008 467 q 932 528 975 528 q 827 463 869 528 q 765 312 785 398 q 745 165 745 226 q 762 65 745 96 q 820 35 779 35 q 925 99 882 35 q 988 250 968 164 q 1008 397 1008 336 z "},"&":{"ha":787,"x_min":1,"x_max":755,"o":"m 585 135 l 692 0 l 625 0 l 545 98 q 222 -17 403 -17 q 100 11 150 -17 q 26 83 50 39 q 1 175 1 127 q 52 341 1 275 q 237 479 102 408 q 155 608 174 561 q 135 703 135 656 q 205 865 135 802 q 387 928 275 928 q 528 881 476 928 q 581 757 581 834 q 545 631 581 684 q 455 542 509 578 q 318 464 401 505 l 551 175 q 651 310 612 236 q 700 461 690 383 l 755 461 q 585 135 719 268 m 193 701 q 214 614 193 656 q 286 504 234 572 q 415 574 370 546 q 492 646 460 603 q 524 747 524 688 q 485 843 524 809 q 378 878 446 878 q 248 826 303 878 q 193 701 193 774 m 232 33 q 511 139 380 33 l 268 439 q 103 322 148 376 q 58 191 58 268 q 103 74 58 114 q 232 33 149 33 z "},"'":{"ha":228,"x_min":118,"x_max":244,"o":"m 118 607 l 182 907 l 244 907 l 184 607 l 118 607 z "},"(":{"ha":364,"x_min":39,"x_max":415,"o":"m 39 196 q 128 604 39 414 q 382 920 218 794 l 415 885 q 180 570 263 755 q 97 174 97 384 q 196 -179 97 -37 l 153 -215 q 71 -40 103 -154 q 39 196 39 74 z "},")":{"ha":364,"x_min":-68,"x_max":311,"o":"m -68 -179 q 168 133 84 -52 q 252 528 252 319 q 151 885 252 741 l 195 920 q 278 745 245 858 q 311 509 311 631 q 222 103 311 291 q -35 -215 134 -84 l -68 -179 z "},"*":{"ha":754,"x_min":155,"x_max":720,"o":"m 521 329 l 464 440 l 428 595 l 425 595 l 336 465 l 244 378 l 193 429 l 285 515 l 407 610 l 407 612 l 268 660 l 155 717 l 187 782 l 302 725 l 415 635 l 418 636 l 419 782 l 444 908 l 513 897 l 492 771 l 441 632 l 444 629 l 583 673 l 710 688 l 720 621 l 595 603 l 447 607 l 444 604 l 526 472 l 583 359 l 521 329 z "},"+":{"ha":694,"x_min":78,"x_max":616,"o":"m 317 62 l 317 319 l 78 319 l 78 375 l 317 375 l 317 632 l 378 632 l 378 375 l 616 375 l 616 319 l 378 319 l 378 62 l 317 62 z "},",":{"ha":313,"x_min":-92,"x_max":104,"o":"m -92 -250 l 39 117 l 104 117 l -35 -250 l -92 -250 z "},"-":{"ha":436,"x_min":94,"x_max":379,"o":"m 94 309 l 104 366 l 379 366 l 367 309 l 94 309 z "},".":{"ha":325,"x_min":8,"x_max":106,"o":"m 8 0 l 24 87 l 106 87 l 87 0 l 8 0 z "},"/":{"ha":358,"x_min":-98,"x_max":449,"o":"m -98 -170 l 380 907 l 449 907 l -33 -170 l -98 -170 z "},":":{"ha":321,"x_min":8,"x_max":187,"o":"m 92 403 l 107 490 l 187 490 l 172 403 l 92 403 m 8 0 l 24 87 l 106 87 l 87 0 l 8 0 z "},";":{"ha":318,"x_min":-92,"x_max":167,"o":"m 66 403 l 85 490 l 167 490 l 147 403 l 66 403 m -92 -250 l 31 117 l 97 117 l -35 -250 l -92 -250 z "},"<":{"ha":694,"x_min":78,"x_max":616,"o":"m 616 40 l 78 339 l 78 375 l 616 673 l 616 608 l 158 357 l 158 354 l 616 103 l 616 40 z "},"=":{"ha":694,"x_min":78,"x_max":616,"o":"m 78 403 l 78 454 l 616 454 l 616 403 l 78 403 m 78 224 l 78 278 l 616 278 l 616 224 l 78 224 z "},">":{"ha":694,"x_min":78,"x_max":616,"o":"m 78 40 l 78 100 l 547 354 l 547 357 l 78 611 l 78 673 l 616 380 l 616 332 l 78 40 z "},"?":{"ha":533,"x_min":110,"x_max":564,"o":"m 507 747 q 467 841 507 806 q 350 876 427 876 q 252 862 303 876 q 175 833 201 848 l 184 886 q 260 915 216 905 q 351 925 305 925 q 507 877 450 925 q 564 745 564 828 q 544 649 564 689 q 494 583 524 610 q 412 518 465 555 q 297 425 328 460 q 249 355 266 391 q 221 261 231 319 l 170 261 q 210 393 178 338 q 280 481 241 448 q 380 554 319 514 q 481 648 456 605 q 507 747 507 691 m 110 0 l 129 87 l 205 87 l 186 0 l 110 0 z "},"@":{"ha":1375,"x_min":122,"x_max":1265,"o":"m 122 245 q 197 587 122 432 q 416 833 272 742 q 761 925 561 925 q 1131 799 996 925 q 1265 453 1265 673 q 1222 215 1265 319 q 1107 53 1179 111 q 953 -5 1036 -5 q 859 28 888 -5 q 829 118 829 62 l 832 150 l 829 150 q 731 39 791 83 q 599 -5 672 -5 q 468 49 516 -5 q 419 203 419 103 q 461 414 419 310 q 578 585 503 518 q 745 652 653 652 q 848 624 800 652 q 918 551 897 595 l 920 551 l 950 635 l 989 635 l 892 197 q 882 121 882 152 q 954 39 882 39 q 1080 91 1021 39 q 1175 237 1139 143 q 1211 450 1211 331 q 1093 765 1211 654 q 758 875 975 875 q 446 791 577 875 q 247 563 315 707 q 179 241 179 418 q 232 0 179 106 q 395 -167 286 -106 q 668 -228 505 -228 q 863 -213 777 -228 q 1000 -174 949 -199 l 981 -233 q 660 -281 863 -281 q 363 -214 484 -281 q 182 -28 242 -146 q 122 245 122 91 m 907 505 q 754 602 845 602 q 600 536 663 602 q 506 377 537 470 q 475 207 475 285 q 511 82 475 123 q 606 41 547 41 q 762 121 685 41 q 864 310 840 201 l 907 505 z "},"A":{"ha":802,"x_min":-17,"x_max":693,"o":"m -17 0 l 484 907 l 519 907 l 693 0 l 635 0 l 571 322 l 227 322 l 47 0 l -17 0 m 559 376 l 482 800 l 481 800 q 368 582 453 735 l 253 376 l 559 376 z "},"B":{"ha":800,"x_min":61,"x_max":733,"o":"m 250 907 l 427 907 q 649 854 565 907 q 733 692 733 802 q 676 540 733 602 q 525 464 620 478 l 525 461 q 652 404 605 454 q 700 277 700 354 q 679 177 700 225 q 616 90 658 128 q 517 31 574 51 q 413 5 460 11 q 281 0 366 0 l 61 0 l 250 907 m 431 489 q 538 516 478 489 q 633 587 599 543 q 667 692 667 631 q 601 808 667 764 q 431 852 536 852 l 297 852 l 225 489 l 431 489 m 292 54 q 484 82 409 54 q 596 162 559 109 q 633 279 633 215 q 584 390 633 345 q 439 435 534 435 l 210 435 l 135 54 l 292 54 z "},"C":{"ha":762,"x_min":92,"x_max":772,"o":"m 92 350 q 131 561 92 450 q 237 754 170 673 q 396 880 305 836 q 606 925 486 925 q 703 918 655 925 q 772 899 750 910 l 758 843 q 687 862 732 855 q 602 869 642 869 q 375 795 477 869 q 215 601 273 722 q 157 349 157 481 q 201 168 157 237 q 314 68 246 98 q 454 39 382 39 q 549 48 502 39 q 627 72 596 58 l 614 11 q 453 -17 546 -17 q 189 82 286 -17 q 92 350 92 180 z "},"D":{"ha":869,"x_min":61,"x_max":818,"o":"m 248 907 l 439 907 q 653 866 570 907 q 777 747 736 825 q 818 554 818 668 q 752 270 818 396 q 567 72 687 144 q 290 0 447 0 l 61 0 l 248 907 m 283 54 q 536 123 430 54 q 699 306 643 191 q 754 554 754 420 q 715 730 754 667 q 609 823 677 793 q 443 852 542 852 l 296 852 l 134 54 l 283 54 z "},"E":{"ha":704,"x_min":61,"x_max":724,"o":"m 61 0 l 248 907 l 724 907 l 711 852 l 298 852 l 224 492 l 606 492 l 595 437 l 211 437 l 134 54 l 572 54 l 558 0 l 61 0 z "},"F":{"ha":635,"x_min":61,"x_max":718,"o":"m 61 0 l 248 907 l 718 907 l 705 854 l 298 854 l 224 492 l 595 492 l 581 437 l 211 437 l 121 0 l 61 0 z "},"G":{"ha":924,"x_min":104,"x_max":863,"o":"m 104 342 q 157 602 104 467 q 331 830 210 736 q 643 925 452 925 q 769 915 706 925 q 863 892 833 905 l 851 838 q 763 860 817 851 q 652 869 709 869 q 401 804 506 869 q 234 610 297 739 q 171 347 171 481 q 249 120 171 202 q 464 39 326 39 q 644 97 575 39 q 739 278 712 156 l 764 392 l 554 392 l 567 449 l 835 449 l 794 262 q 675 48 762 114 q 463 -17 587 -17 q 282 22 363 -17 q 153 141 201 60 q 104 342 104 222 z "},"H":{"ha":890,"x_min":56,"x_max":875,"o":"m 248 907 l 309 907 l 221 494 l 726 494 l 814 907 l 875 907 l 684 0 l 623 0 l 715 440 l 210 440 l 117 0 l 56 0 l 248 907 z "},"I":{"ha":323,"x_min":61,"x_max":310,"o":"m 61 0 l 248 907 l 310 907 l 121 0 l 61 0 z "},"J":{"ha":463,"x_min":-14,"x_max":457,"o":"m -14 -3 l 0 56 q 81 40 45 40 q 186 76 144 40 q 248 200 229 112 l 397 907 l 457 907 l 309 183 q 256 58 288 99 q 185 0 224 16 q 89 -17 146 -17 q -14 -3 25 -17 z "},"K":{"ha":739,"x_min":61,"x_max":827,"o":"m 827 907 l 289 441 l 657 0 l 585 0 l 212 443 l 119 0 l 61 0 l 248 907 l 309 907 l 212 446 l 749 907 l 827 907 z "},"L":{"ha":640,"x_min":61,"x_max":571,"o":"m 61 0 l 248 907 l 309 907 l 134 54 l 571 54 l 557 0 l 61 0 z "},"M":{"ha":1080,"x_min":54,"x_max":1069,"o":"m 338 907 l 447 273 q 479 71 466 168 l 482 71 l 555 195 l 975 907 l 1069 907 l 878 0 l 819 0 q 964 667 943 576 q 1007 851 984 758 l 1002 851 l 836 568 l 498 0 l 440 0 l 326 656 q 292 851 309 764 l 288 851 q 203 419 236 574 l 114 0 l 54 0 l 245 907 l 338 907 z "},"N":{"ha":911,"x_min":61,"x_max":900,"o":"m 248 907 l 300 907 l 631 189 l 675 92 l 676 92 q 713 292 707 266 l 839 907 l 900 907 l 710 0 l 659 0 l 361 643 q 283 817 300 772 l 282 817 l 269 739 l 248 616 l 122 0 l 61 0 l 248 907 z "},"O":{"ha":961,"x_min":104,"x_max":904,"o":"m 104 325 q 160 602 104 463 q 326 833 216 741 q 590 925 436 925 q 822 835 741 925 q 904 581 904 745 q 849 306 904 445 q 686 75 795 168 q 421 -17 576 -17 q 187 73 269 -17 q 104 325 104 162 m 842 587 q 778 797 842 725 q 593 869 713 869 q 361 783 458 869 q 217 568 265 696 q 168 319 168 440 q 233 112 168 185 q 418 39 298 39 q 649 124 553 39 q 793 338 745 210 q 842 587 842 466 z "},"P":{"ha":733,"x_min":26,"x_max":708,"o":"m 214 907 l 432 907 q 633 850 557 907 q 708 697 708 793 q 598 475 708 557 q 296 392 488 394 q 168 399 236 392 l 87 0 l 26 0 l 214 907 m 644 690 q 586 809 644 765 q 429 852 527 852 l 261 852 l 182 456 q 289 446 226 446 q 549 511 453 446 q 644 690 644 577 z "},"Q":{"ha":951,"x_min":92,"x_max":892,"o":"m 92 319 q 147 601 92 460 q 311 833 203 741 q 567 925 418 925 q 808 839 724 925 q 892 586 892 753 q 811 260 892 412 q 611 60 730 108 l 611 57 q 757 61 686 61 l 817 61 l 804 -5 q 661 0 760 0 q 536 -4 601 0 q 390 -8 451 -8 q 171 79 251 -8 q 92 319 92 165 m 829 587 q 765 798 829 726 q 575 869 701 869 q 350 783 445 869 q 205 568 254 696 q 157 319 157 439 q 220 111 157 182 q 410 39 283 39 q 634 125 539 39 q 780 340 730 212 q 829 587 829 468 z "},"R":{"ha":787,"x_min":61,"x_max":757,"o":"m 248 907 l 479 907 q 685 849 613 907 q 757 692 757 791 q 676 503 757 578 q 452 407 595 428 l 452 404 l 665 0 l 595 0 l 383 403 l 203 403 l 121 0 l 61 0 l 248 907 m 354 457 q 516 476 438 457 q 644 550 595 495 q 693 689 693 604 q 664 779 693 739 q 588 836 635 819 q 481 852 541 852 l 294 852 l 215 457 l 354 457 z "},"S":{"ha":742,"x_min":32,"x_max":704,"o":"m 32 43 l 45 97 q 146 54 82 70 q 282 39 211 39 q 492 100 414 39 q 571 262 571 161 q 543 358 571 321 q 476 412 515 394 q 380 446 437 430 q 258 493 307 467 q 182 562 210 519 q 154 671 154 604 q 192 801 154 743 q 302 892 230 859 q 473 925 374 925 q 704 879 602 925 l 692 818 q 597 853 663 837 q 471 869 530 869 q 288 812 358 869 q 218 665 218 755 q 259 572 218 609 q 412 503 299 535 q 530 456 482 483 q 606 383 577 430 q 635 262 635 336 q 537 60 635 136 q 279 -17 439 -17 q 142 -2 210 -17 q 32 43 75 12 z "},"T":{"ha":656,"x_min":117,"x_max":747,"o":"m 218 0 l 395 852 l 117 852 l 131 907 l 747 907 l 734 852 l 454 852 l 281 0 l 218 0 z "},"U":{"ha":876,"x_min":103,"x_max":885,"o":"m 103 233 q 115 349 103 290 l 232 907 l 292 907 l 178 353 q 164 240 164 284 q 215 93 164 147 q 374 39 267 39 q 539 78 471 39 q 648 182 607 118 q 708 345 688 245 l 823 907 l 885 907 l 760 309 q 685 132 737 202 q 555 22 632 61 q 379 -17 478 -17 q 176 49 249 -17 q 103 233 103 115 z "},"V":{"ha":728,"x_min":140,"x_max":838,"o":"m 140 907 l 199 907 l 307 294 q 339 83 327 176 l 342 83 q 433 267 365 139 l 772 907 l 838 907 l 350 0 l 297 0 l 140 907 z "},"W":{"ha":1145,"x_min":140,"x_max":1250,"o":"m 140 907 l 201 907 l 292 257 l 314 92 l 317 92 q 353 188 328 127 q 654 907 378 249 l 733 907 l 757 258 l 765 92 l 768 92 q 842 249 795 158 l 1183 907 l 1250 907 l 777 0 l 717 0 q 679 817 679 811 l 676 817 l 619 686 l 334 0 l 273 0 l 140 907 z "},"X":{"ha":737,"x_min":-58,"x_max":811,"o":"m -58 0 l 353 469 l 161 907 l 222 907 l 397 510 l 400 510 l 736 907 l 811 907 l 424 458 l 616 0 l 555 0 l 382 411 l 379 411 l 18 0 l -58 0 z "},"Y":{"ha":703,"x_min":140,"x_max":771,"o":"m 268 0 l 346 370 l 140 907 l 201 907 l 380 428 l 701 907 l 771 907 l 406 370 l 328 0 l 268 0 z "},"Z":{"ha":746,"x_min":28,"x_max":768,"o":"m 28 0 l 35 39 l 673 852 l 184 852 l 200 907 l 768 907 l 760 868 l 121 54 l 628 54 l 616 0 l 28 0 z "},"[":{"ha":422,"x_min":20,"x_max":504,"o":"m 20 -203 l 252 907 l 504 907 l 496 854 l 302 854 l 92 -150 l 283 -150 l 273 -203 l 20 -203 z "},"\\":{"ha":358,"x_min":58,"x_max":283,"o":"m 224 -170 l 58 907 l 119 907 l 283 -170 l 224 -170 z "},"]":{"ha":422,"x_min":-83,"x_max":403,"o":"m -83 -203 l -71 -150 l 119 -150 l 330 854 l 136 854 l 147 907 l 403 907 l 171 -203 l -83 -203 z "},"^":{"ha":694,"x_min":31,"x_max":664,"o":"m 31 387 l 321 925 l 374 925 l 664 387 l 604 387 l 347 857 l 345 857 l 92 387 l 31 387 z "},"_":{"ha":690,"x_min":-87,"x_max":590,"o":"m -87 -154 l -87 -96 l 590 -96 l 590 -154 l -87 -154 z "},"`":{"ha":414,"x_min":225,"x_max":329,"o":"m 282 762 l 225 999 l 296 999 l 329 762 l 282 762 z "},"a":{"ha":648,"x_min":58,"x_max":610,"o":"m 58 200 q 98 406 58 302 q 212 580 137 511 q 386 650 286 650 q 538 562 481 650 l 541 562 l 571 633 l 610 633 l 501 118 q 496 72 496 91 q 526 39 496 39 q 568 41 551 39 l 555 -4 q 510 -9 534 -9 q 457 8 475 -9 q 439 54 439 25 q 443 102 439 75 l 440 102 q 232 -17 351 -17 q 104 38 149 -17 q 58 200 58 92 m 526 507 q 463 575 496 550 q 380 600 431 600 q 238 536 298 600 q 148 379 178 473 q 117 197 117 285 q 152 68 117 102 q 244 33 186 33 q 386 94 319 33 q 471 240 452 154 l 526 507 z "},"b":{"ha":657,"x_min":68,"x_max":583,"o":"m 68 160 q 75 218 68 187 l 236 982 l 289 982 l 197 541 l 200 541 q 284 618 235 586 q 396 650 334 650 q 484 630 441 650 q 555 562 526 610 q 583 435 583 514 q 546 223 583 327 q 431 51 509 119 q 241 -17 354 -17 q 115 30 161 -17 q 68 160 68 77 m 525 422 q 487 552 525 503 q 383 600 448 600 q 301 574 347 600 q 218 500 255 547 q 168 395 180 453 l 132 222 q 123 161 123 190 q 157 68 123 103 q 250 33 191 33 q 402 96 340 33 q 495 249 465 158 q 525 422 525 339 z "},"c":{"ha":553,"x_min":58,"x_max":543,"o":"m 58 225 q 94 420 58 322 q 204 584 130 519 q 386 650 279 650 q 543 614 473 650 l 532 568 q 461 591 503 582 q 383 600 420 600 q 234 539 294 600 q 145 393 174 479 q 117 231 117 307 q 162 79 117 124 q 293 33 208 33 q 383 45 341 33 q 443 69 425 57 l 432 21 q 369 -6 411 5 q 288 -17 327 -17 q 121 42 184 -17 q 58 225 58 101 z "},"d":{"ha":664,"x_min":57,"x_max":693,"o":"m 57 200 q 101 425 57 317 q 221 591 146 532 q 392 650 297 650 q 549 568 503 650 l 551 568 l 637 982 l 693 982 l 510 103 q 504 64 504 73 q 513 44 504 50 q 546 39 522 39 q 581 43 562 39 l 568 -4 q 521 -9 552 -9 q 467 5 484 -9 q 450 60 450 20 l 453 94 l 450 94 q 343 7 401 31 q 233 -17 286 -17 q 57 200 57 -17 m 539 510 q 473 575 511 549 q 379 600 435 600 q 233 535 293 600 q 144 378 174 471 q 115 203 115 286 q 152 70 115 106 q 240 33 189 33 q 399 104 322 33 q 492 265 475 176 l 539 510 z "},"e":{"ha":596,"x_min":57,"x_max":562,"o":"m 57 232 q 97 430 57 334 q 212 588 137 527 q 385 650 286 650 q 513 608 465 650 q 562 496 562 566 q 459 356 562 404 q 148 300 357 309 l 117 298 q 110 241 110 269 q 159 84 110 135 q 311 33 209 33 q 471 69 382 33 l 463 21 q 301 -17 393 -17 q 117 50 176 -17 q 57 232 57 117 m 507 497 q 473 570 507 541 q 389 600 439 600 q 222 530 288 600 q 126 349 157 459 q 423 394 338 357 q 507 497 507 430 z "},"f":{"ha":376,"x_min":-196,"x_max":562,"o":"m -196 -323 l -189 -278 l -135 -282 q 0 -229 -46 -282 q 74 -52 47 -176 l 207 581 l 83 581 l 94 629 l 215 629 l 248 771 q 339 944 275 888 q 494 999 403 999 q 562 990 530 999 l 553 943 q 490 949 523 949 q 369 904 414 949 q 300 760 323 860 l 269 629 l 449 629 l 437 581 l 261 581 l 119 -103 q 27 -281 93 -231 q -131 -332 -39 -332 q -196 -323 -169 -332 z "},"g":{"ha":672,"x_min":-16,"x_max":632,"o":"m -16 -300 l -7 -244 q 155 -275 73 -275 q 348 -215 283 -275 q 447 5 413 -154 l 468 98 l 465 98 q 358 7 415 32 q 250 -17 301 -17 q 114 38 161 -17 q 68 191 68 93 q 110 408 68 302 q 230 582 153 514 q 408 650 308 650 q 557 568 509 650 l 559 568 l 595 633 l 632 633 l 494 -40 q 372 -265 463 -199 q 155 -332 281 -332 q 73 -324 109 -332 q -16 -300 37 -316 m 549 507 q 483 574 519 549 q 393 600 447 600 q 253 534 314 600 q 160 374 193 468 q 127 205 127 281 q 252 33 127 33 q 355 64 301 33 q 449 146 410 96 q 500 253 489 197 l 549 507 z "},"h":{"ha":699,"x_min":49,"x_max":621,"o":"m 621 507 q 604 387 621 459 l 524 0 l 469 0 l 551 395 q 564 497 564 457 q 530 577 564 555 q 436 600 497 600 q 323 572 376 600 q 234 495 270 543 q 186 395 197 446 l 103 0 l 49 0 l 253 982 l 307 982 l 211 536 l 214 536 q 452 650 309 650 q 577 613 534 650 q 621 507 621 577 z "},"i":{"ha":256,"x_min":41,"x_max":271,"o":"m 201 782 l 215 844 l 271 844 l 257 782 l 201 782 m 41 0 l 171 633 l 227 633 l 96 0 l 41 0 z "},"j":{"ha":271,"x_min":-203,"x_max":288,"o":"m 214 782 l 228 844 l 288 844 l 273 782 l 214 782 m -203 -325 l -195 -271 q -140 -275 -165 -275 q -48 -258 -81 -275 q 3 -203 -15 -241 q 36 -94 21 -166 l 186 633 l 240 633 l 83 -138 q 44 -248 70 -207 q -24 -310 18 -288 q -136 -332 -67 -332 q -203 -325 -174 -332 z "},"k":{"ha":555,"x_min":49,"x_max":586,"o":"m 490 39 l 498 39 l 489 -12 l 472 -14 q 365 36 410 -14 q 282 168 321 85 q 226 282 250 239 q 174 347 201 326 l 103 0 l 49 0 l 253 982 l 307 982 l 175 354 l 501 633 l 586 633 l 239 346 q 275 308 260 334 q 312 232 290 282 q 398 82 359 126 q 490 39 437 39 z "},"l":{"ha":293,"x_min":71,"x_max":317,"o":"m 71 56 q 75 92 71 73 l 262 982 l 317 982 l 135 118 l 127 69 q 135 45 127 52 q 164 39 143 39 l 207 41 l 196 -4 q 154 -9 173 -9 q 91 5 112 -9 q 71 56 71 20 z "},"m":{"ha":1064,"x_min":43,"x_max":982,"o":"m 175 633 l 215 633 l 214 541 l 215 541 q 314 620 256 591 q 436 650 372 650 q 545 613 503 650 q 587 517 587 577 l 587 511 l 590 511 q 700 616 634 583 q 833 650 765 650 q 941 612 899 650 q 982 507 982 575 q 968 387 982 457 l 888 0 l 833 0 l 920 418 q 928 492 928 458 q 898 575 928 549 q 825 600 868 600 q 664 532 740 600 q 568 366 589 465 l 493 0 l 437 0 l 524 418 q 532 492 532 458 q 427 600 532 600 q 322 575 374 600 q 231 500 270 549 q 178 385 192 452 l 97 0 l 43 0 l 175 633 z "},"n":{"ha":693,"x_min":43,"x_max":614,"o":"m 175 633 l 215 633 l 214 541 l 216 541 q 323 624 266 598 q 453 650 380 650 q 572 613 530 650 q 614 507 614 576 q 608 442 614 478 q 517 0 602 406 l 464 0 l 546 400 q 558 497 558 458 q 524 577 558 555 q 429 600 490 600 q 220 486 307 600 q 176 380 187 444 l 97 0 l 43 0 l 175 633 z "},"o":{"ha":656,"x_min":58,"x_max":596,"o":"m 58 228 q 92 397 58 298 q 199 573 125 497 q 389 650 273 650 q 544 582 491 650 q 596 392 596 514 q 563 224 596 321 q 454 56 530 128 q 262 -17 379 -17 q 114 50 169 -17 q 58 228 58 116 m 538 395 q 501 541 538 481 q 386 600 465 600 q 242 539 303 600 q 149 391 180 479 q 117 225 117 303 q 157 85 117 138 q 264 33 197 33 q 410 90 348 33 q 505 231 473 146 q 538 395 538 315 z "},"p":{"ha":684,"x_min":-12,"x_max":611,"o":"m 182 633 l 221 633 l 221 541 l 224 541 q 316 624 263 598 q 422 650 369 650 q 564 592 516 650 q 611 424 611 534 q 574 217 611 319 q 465 49 537 115 q 292 -17 392 -17 q 118 50 180 -17 l 115 50 l 40 -315 l -12 -315 l 182 633 m 553 416 q 513 557 553 515 q 415 600 473 600 q 272 536 341 600 q 186 386 203 472 l 127 103 q 195 52 158 71 q 288 33 231 33 q 438 101 378 33 q 525 258 498 168 q 553 416 553 349 z "},"q":{"ha":659,"x_min":58,"x_max":621,"o":"m 456 98 l 453 98 q 343 8 401 34 q 235 -17 286 -17 q 58 201 58 -17 q 100 415 58 311 q 218 584 142 519 q 390 650 294 650 q 487 627 446 650 q 543 568 528 604 l 546 568 l 581 633 l 621 633 l 422 -315 l 367 -315 l 456 98 m 539 507 q 471 574 508 549 q 380 600 435 600 q 238 536 298 600 q 148 378 178 472 q 117 199 117 284 q 152 69 117 104 q 237 33 188 33 q 346 66 292 33 q 437 147 399 100 q 484 232 475 195 l 539 507 z "},"r":{"ha":392,"x_min":41,"x_max":453,"o":"m 174 633 l 215 633 l 212 541 l 215 541 q 299 617 246 585 q 412 650 353 650 q 453 646 437 650 l 440 587 q 412 590 429 590 q 298 563 342 590 q 221 490 255 536 q 175 378 188 444 l 97 0 l 41 0 l 174 633 z "},"s":{"ha":528,"x_min":21,"x_max":486,"o":"m 21 25 l 33 79 q 192 33 112 33 q 345 81 310 33 q 379 176 379 129 q 361 243 379 218 q 315 282 343 269 q 241 310 287 296 q 169 341 195 327 q 123 384 142 356 q 104 458 104 412 q 162 598 104 546 q 315 650 220 650 q 411 637 363 650 q 486 608 458 625 l 475 558 q 399 589 433 578 q 326 600 364 600 q 207 564 252 600 q 163 467 163 528 q 187 398 163 422 q 257 359 212 374 q 352 326 318 340 q 411 278 385 311 q 436 192 436 246 q 370 33 436 83 q 192 -17 303 -17 q 104 -8 157 -17 q 21 25 52 1 z "},"t":{"ha":432,"x_min":78,"x_max":443,"o":"m 111 98 q 115 147 111 129 l 205 579 l 78 579 l 89 633 l 220 633 l 253 803 l 307 803 l 272 633 l 443 633 l 431 579 l 260 579 l 176 179 q 170 115 170 144 q 193 54 170 71 q 269 36 216 36 q 346 45 315 36 l 334 -9 q 258 -17 298 -17 q 111 98 111 -17 z "},"u":{"ha":659,"x_min":79,"x_max":631,"o":"m 79 154 q 85 224 79 194 l 171 633 l 225 633 l 140 220 q 134 161 134 191 q 170 69 134 104 q 282 33 205 33 q 422 84 372 33 q 492 229 471 136 l 575 633 l 631 633 l 547 235 q 457 40 520 97 q 285 -17 393 -17 q 79 154 79 -17 z "},"v":{"ha":616,"x_min":92,"x_max":650,"o":"m 92 633 l 146 633 l 236 196 l 261 66 l 264 66 q 321 160 287 100 l 586 633 l 650 633 l 286 0 l 222 0 l 92 633 z "},"w":{"ha":965,"x_min":92,"x_max":999,"o":"m 92 633 l 150 633 l 231 66 l 235 66 q 273 148 242 85 l 301 205 l 492 633 l 564 633 l 614 187 l 621 136 l 629 66 l 631 66 l 652 106 l 693 180 l 935 633 l 999 633 l 653 0 l 585 0 l 542 374 q 524 568 524 513 l 519 568 q 513 553 517 562 q 260 0 509 544 l 189 0 l 92 633 z "},"x":{"ha":578,"x_min":-31,"x_max":611,"o":"m -31 0 l 262 325 l 97 633 l 157 633 l 302 357 l 545 633 l 611 633 l 328 310 l 496 0 l 436 0 l 289 278 l 36 0 l -31 0 z "},"y":{"ha":627,"x_min":-77,"x_max":659,"o":"m -77 -328 l -64 -272 l -37 -275 q 115 -209 49 -275 q 245 7 180 -143 l 102 633 l 161 633 l 271 146 l 288 74 l 290 74 l 333 152 l 590 633 l 659 633 l 304 -14 q 197 -196 241 -130 q 98 -297 153 -262 q -39 -332 42 -332 q -77 -328 -59 -332 z "},"z":{"ha":600,"x_min":28,"x_max":562,"o":"m 28 0 l 32 26 l 478 585 l 147 585 l 160 633 l 562 633 l 554 597 l 122 49 l 478 49 l 468 0 l 28 0 z "},"{":{"ha":389,"x_min":12,"x_max":437,"o":"m 12 -60 q 23 2 12 -26 q 47 51 34 31 q 90 111 61 71 q 139 184 122 152 q 155 256 155 217 q 58 329 155 329 l 69 386 q 134 395 107 389 q 185 434 160 402 q 210 533 210 467 q 205 578 210 557 q 191 629 200 598 q 174 726 174 682 q 242 846 174 801 q 425 890 310 890 l 437 890 l 427 839 q 288 810 336 839 q 240 725 240 781 q 252 654 240 699 q 265 598 258 637 q 272 533 272 560 q 237 416 272 468 q 147 350 201 365 l 147 347 q 185 314 170 345 q 201 237 201 283 q 153 94 201 163 q 100 15 119 49 q 81 -53 81 -20 q 117 -114 81 -92 q 215 -135 153 -135 l 204 -186 l 203 -186 q 12 -60 12 -186 z "},"|":{"ha":302,"x_min":125,"x_max":183,"o":"m 125 -315 l 125 982 l 183 982 l 183 -315 l 125 -315 z "},"}":{"ha":389,"x_min":-58,"x_max":366,"o":"m 138 -20 q 127 52 138 10 q 107 171 107 127 q 143 289 107 238 q 232 351 178 340 l 231 354 q 191 392 206 361 q 176 468 176 424 q 225 611 176 543 q 264 666 252 648 q 286 709 277 685 q 296 757 296 732 q 262 816 296 793 q 161 839 229 839 l 174 890 l 175 890 q 330 851 294 890 q 366 764 366 812 q 355 702 366 731 q 329 651 344 673 q 286 593 314 629 q 240 523 257 556 q 224 450 224 489 q 253 390 224 405 q 321 375 281 375 l 309 318 q 244 309 270 315 q 193 270 218 302 q 168 170 168 237 q 186 74 168 138 q 199 25 195 45 q 203 -22 203 5 q 136 -142 203 -98 q -46 -186 68 -186 l -58 -186 l -50 -135 q 138 -20 138 -135 z "},"~":{"ha":694,"x_min":74,"x_max":603,"o":"m 216 302 q 118 239 161 302 l 74 269 q 128 330 86 304 q 218 357 170 357 q 355 320 262 357 q 414 298 391 305 q 460 290 437 290 q 515 307 494 290 q 561 354 537 323 l 603 326 q 550 264 591 291 q 461 237 509 237 q 412 243 435 237 q 346 262 388 250 q 216 302 268 302 z "},"":{"ha":833,"x_min":0,"x_max":0,"o":""}," ":{"ha":271,"x_min":0,"x_max":0,"o":""},"¡":{"ha":332,"x_min":9,"x_max":267,"o":"m 171 545 l 187 633 l 267 633 l 248 545 l 171 545 m 9 -262 l 154 370 l 204 370 l 82 -262 l 9 -262 z "},"¢":{"ha":681,"x_min":127,"x_max":612,"o":"m 494 681 l 378 134 q 459 147 421 136 q 513 170 496 158 l 501 121 q 444 96 481 106 q 367 83 406 85 l 346 -17 l 288 -17 l 310 86 q 177 158 226 100 q 127 325 127 216 q 162 513 127 420 q 270 668 197 606 q 447 733 342 730 l 471 844 l 529 844 l 504 730 q 612 697 563 723 l 602 652 q 494 681 558 673 m 319 136 l 436 684 q 296 620 352 677 q 213 483 239 562 q 186 330 186 403 q 319 136 186 156 z "},"£":{"ha":668,"x_min":11,"x_max":606,"o":"m 278 393 l 515 393 l 504 345 l 264 345 l 257 313 q 230 211 243 252 q 188 130 217 170 q 110 62 159 89 l 110 60 q 179 64 128 64 q 270 60 232 64 q 363 47 309 56 q 440 39 420 39 q 516 51 489 39 q 559 85 543 62 l 595 56 q 534 1 570 18 q 444 -17 498 -17 q 329 -6 401 -17 q 150 8 220 8 q 20 -5 85 8 l 11 49 q 137 149 93 71 q 208 345 181 227 l 121 345 l 132 393 l 220 393 q 294 598 256 537 q 381 686 332 660 q 501 711 430 711 q 606 686 552 711 l 597 640 q 550 655 579 648 q 496 663 521 663 q 390 630 431 663 q 325 541 349 597 q 278 393 300 484 z "},"¤":{"ha":681,"x_min":57,"x_max":636,"o":"m 525 314 l 636 203 l 597 167 l 485 277 q 347 229 418 229 q 208 277 273 229 l 98 167 l 57 203 l 171 317 q 123 454 123 378 q 168 593 123 527 l 60 703 l 100 741 l 210 631 q 347 677 271 677 q 488 632 425 677 l 595 739 l 636 703 l 525 591 q 571 454 571 531 q 525 314 571 376 m 511 454 q 464 574 511 526 q 347 623 416 623 q 231 574 278 623 q 183 454 183 526 q 230 335 183 383 q 347 286 277 286 q 464 335 417 286 q 511 454 511 383 z "},"¥":{"ha":681,"x_min":65,"x_max":660,"o":"m 229 -18 l 257 143 l 65 143 l 82 192 l 271 192 l 286 292 l 94 292 l 111 340 l 271 340 l 138 694 l 203 694 l 325 355 l 330 355 l 583 694 l 660 694 l 389 340 l 551 340 l 538 292 l 346 292 l 330 192 l 524 192 l 509 143 l 315 143 l 288 -18 l 229 -18 z "},"¦":{"ha":302,"x_min":123,"x_max":183,"o":"m 123 489 l 123 982 l 183 982 l 183 489 l 123 489 m 123 -315 l 123 157 l 183 157 l 183 -315 l 123 -315 z "},"§":{"ha":562,"x_min":-65,"x_max":597,"o":"m -65 -250 l -57 -195 q 18 -220 -16 -212 q 93 -228 52 -228 q 207 -196 167 -228 q 248 -103 248 -164 q 234 0 248 -54 q 191 144 220 54 q 150 302 165 229 q 135 452 135 376 q 176 715 135 609 q 283 873 216 822 q 431 925 351 925 q 597 895 519 925 l 589 843 q 439 876 513 876 q 325 843 365 876 q 285 747 285 809 q 298 646 285 701 q 338 505 311 591 q 397 193 397 329 q 357 -72 397 35 q 248 -230 317 -178 q 94 -281 180 -281 q -65 -250 12 -281 m 292 -114 q 327 16 318 -41 q 336 138 336 72 q 325 252 336 197 q 267 460 314 307 q 237 668 237 555 q 248 758 237 723 l 240 758 q 205 629 214 684 q 196 505 196 574 q 208 378 196 440 q 243 239 220 315 q 281 94 269 151 q 294 -24 294 36 q 285 -114 294 -79 l 292 -114 z "},"¨":{"ha":414,"x_min":121,"x_max":433,"o":"m 346 785 l 363 852 l 433 852 l 416 785 l 346 785 m 121 785 l 138 851 l 210 851 l 195 785 l 121 785 z "},"©":{"ha":1143,"x_min":134,"x_max":1063,"o":"m 134 454 q 194 692 134 586 q 361 859 254 798 q 599 920 467 920 q 836 859 730 920 q 1002 691 941 798 q 1063 454 1063 585 q 1002 216 1063 323 q 836 50 941 110 q 599 -11 730 -11 q 361 50 467 -11 q 194 216 254 110 q 134 454 134 323 m 1014 454 q 959 668 1014 572 q 810 819 905 764 q 599 873 715 873 q 388 818 483 873 q 239 667 293 763 q 184 454 184 572 q 239 239 184 336 q 388 87 293 142 q 599 32 482 32 q 810 87 715 32 q 960 239 905 142 q 1014 454 1014 336 m 353 441 q 424 645 353 568 q 614 722 495 722 q 730 699 683 722 l 730 648 q 612 671 668 671 q 462 611 516 671 q 408 444 408 551 q 462 290 408 342 q 612 239 516 239 q 737 258 681 239 l 737 207 q 611 187 673 187 q 419 255 485 187 q 353 441 353 323 z "},"ª":{"ha":496,"x_min":86,"x_max":500,"o":"m 86 497 q 114 648 86 570 q 198 778 142 726 q 332 831 254 831 q 396 816 373 831 q 439 771 419 801 l 441 771 l 469 819 l 500 819 l 415 425 q 411 395 411 408 q 435 375 411 375 q 468 379 454 375 l 457 345 l 424 340 q 381 352 394 340 q 369 389 369 363 l 371 415 l 368 415 q 297 354 338 372 q 216 336 256 336 q 120 376 155 336 q 86 497 86 416 m 435 722 q 388 772 413 753 q 323 790 363 790 q 221 744 264 790 q 156 628 178 697 q 134 494 134 559 q 157 400 134 424 q 216 376 180 376 q 332 428 276 376 q 400 546 387 479 l 435 722 z "},"«":{"ha":639,"x_min":72,"x_max":623,"o":"m 240 74 l 72 321 l 328 570 l 404 570 l 167 321 l 300 74 l 240 74 m 454 74 l 318 321 l 551 570 l 623 570 l 408 321 l 519 74 l 454 74 z "},"¬":{"ha":694,"x_min":78,"x_max":616,"o":"m 557 65 l 557 319 l 78 319 l 78 375 l 616 375 l 616 65 l 557 65 z "},"­":{"ha":436,"x_min":94,"x_max":379,"o":"m 94 309 l 104 366 l 379 366 l 367 309 l 94 309 z "},"®":{"ha":861,"x_min":136,"x_max":782,"o":"m 136 602 q 179 767 136 693 q 295 883 221 841 q 458 925 369 925 q 622 883 548 925 q 739 767 696 841 q 782 602 782 692 q 739 437 782 511 q 622 322 696 364 q 458 281 548 281 q 229 372 321 281 q 136 602 136 464 m 733 602 q 656 802 733 723 q 458 880 578 880 q 262 802 338 880 q 186 602 186 724 q 262 402 186 480 q 458 325 339 325 q 656 403 578 325 q 733 602 733 481 m 349 772 l 457 772 q 578 672 578 772 q 555 608 578 631 q 497 579 532 585 l 497 576 l 591 439 l 538 439 l 447 571 l 393 571 l 393 439 l 349 439 l 349 772 m 441 611 q 508 628 485 611 q 530 672 530 644 q 513 713 530 695 q 465 730 496 730 l 393 730 l 393 611 l 441 611 z "},"¯":{"ha":414,"x_min":89,"x_max":456,"o":"m 89 799 l 100 852 l 456 852 l 444 799 l 89 799 z "},"°":{"ha":546,"x_min":144,"x_max":570,"o":"m 144 704 q 205 857 144 795 q 357 918 265 918 q 508 857 447 918 q 570 704 570 795 q 507 555 570 616 q 357 493 445 493 q 205 554 267 493 q 144 704 144 614 m 510 704 q 466 819 510 773 q 357 865 422 865 q 245 820 289 865 q 201 704 201 774 q 245 592 201 636 q 357 549 289 549 q 466 593 422 549 q 510 704 510 637 z "},"±":{"ha":694,"x_min":78,"x_max":616,"o":"m 321 164 l 321 368 l 78 368 l 78 429 l 321 429 l 321 633 l 374 633 l 374 429 l 616 429 l 616 368 l 374 368 l 374 164 l 321 164 m 78 0 l 78 53 l 616 53 l 616 0 l 78 0 z "},"²":{"ha":399,"x_min":43,"x_max":431,"o":"m 380 782 q 355 851 380 825 q 285 878 329 878 q 210 868 249 878 q 143 844 172 859 l 157 896 q 288 925 217 925 q 392 887 353 925 q 431 783 431 850 q 397 673 431 729 q 301 555 363 618 q 126 396 238 493 l 126 392 l 236 395 l 368 395 l 359 347 l 43 347 l 53 386 q 319 642 258 566 q 380 782 380 719 z "},"³":{"ha":361,"x_min":12,"x_max":406,"o":"m 12 357 l 25 401 q 74 386 50 391 q 136 380 97 380 q 260 417 213 380 q 307 514 307 454 q 176 615 307 615 l 151 615 l 163 660 l 175 660 q 303 700 251 660 q 355 799 355 740 q 325 860 355 841 q 253 879 295 879 q 186 872 220 879 q 132 856 153 866 l 138 903 q 261 925 198 925 q 365 894 323 925 q 406 806 406 863 q 363 697 406 740 q 254 642 321 654 l 252 639 q 329 598 300 631 q 357 517 357 566 q 296 384 357 435 q 134 334 235 334 q 12 357 54 334 z "},"´":{"ha":414,"x_min":167,"x_max":372,"o":"m 167 762 l 296 999 l 372 999 l 218 762 l 167 762 z "},"µ":{"ha":724,"x_min":-12,"x_max":661,"o":"m 489 92 q 396 11 447 39 q 271 -17 345 -17 q 119 54 165 -17 l 117 54 l 41 -315 l -12 -315 l 184 633 l 240 633 l 150 205 q 144 160 144 178 q 286 33 144 33 q 438 104 363 33 q 530 264 513 175 l 606 633 l 661 633 l 549 103 q 543 64 543 75 q 551 44 543 50 q 578 39 559 39 q 619 41 603 39 l 607 -4 q 558 -9 591 -9 q 505 5 520 -9 q 489 57 489 20 l 492 92 l 489 92 z "},"¶":{"ha":802,"x_min":58,"x_max":755,"o":"m 58 -243 l 72 -183 q 176 -212 130 -212 q 249 -160 223 -212 q 296 -11 275 -108 l 342 203 q 192 297 247 227 q 138 468 138 368 q 195 693 138 595 q 376 849 253 792 q 688 907 499 907 l 755 907 l 554 -49 q 507 -177 538 -127 q 414 -254 475 -227 q 252 -281 353 -281 q 151 -271 208 -281 q 58 -243 94 -261 m 679 844 q 542 836 598 844 l 366 -17 q 327 -166 342 -132 q 286 -220 311 -201 l 286 -222 q 430 -166 383 -214 q 494 -31 476 -118 l 679 844 z "},"·":{"ha":332,"x_min":79,"x_max":176,"o":"m 79 288 l 94 375 l 176 375 l 158 288 l 79 288 z "},"¸":{"ha":414,"x_min":-28,"x_max":237,"o":"m 168 -16 l 134 -104 q 210 -135 182 -109 q 237 -199 237 -161 q 193 -295 237 -258 q 77 -332 149 -332 q -28 -313 29 -332 l -12 -261 q 82 -282 33 -282 q 154 -261 126 -282 q 182 -210 182 -239 q 153 -163 182 -177 q 60 -146 124 -149 l 121 -4 l 168 -16 z "},"¹":{"ha":361,"x_min":33,"x_max":354,"o":"m 33 347 l 45 395 l 189 395 l 289 865 l 123 811 l 135 861 l 300 917 l 351 917 l 240 395 l 354 395 l 343 347 l 33 347 z "},"º":{"ha":489,"x_min":89,"x_max":494,"o":"m 89 515 q 113 652 89 578 q 192 781 137 726 q 332 835 246 835 q 449 786 404 835 q 494 656 494 736 q 470 517 494 593 q 390 388 445 442 q 249 334 334 334 q 134 384 178 334 q 89 515 89 434 m 444 652 q 416 750 444 714 q 332 786 388 786 q 227 748 270 786 q 161 648 183 709 q 139 519 139 587 q 166 419 139 456 q 252 382 194 382 q 355 421 311 382 q 421 522 399 460 q 444 652 444 584 z "},"»":{"ha":639,"x_min":22,"x_max":570,"o":"m 22 74 l 233 321 l 123 570 l 186 570 l 325 321 l 90 74 l 22 74 m 239 74 l 479 321 l 343 570 l 406 570 l 570 321 l 315 74 l 239 74 z "},"¼":{"ha":1105,"x_min":33,"x_max":1078,"o":"m 33 347 l 45 395 l 189 395 l 289 865 l 123 811 l 135 861 l 300 917 l 351 917 l 240 395 l 354 395 l 343 347 l 33 347 m 224 -9 l 189 20 l 1042 909 l 1078 878 l 224 -9 m 909 143 l 671 143 l 680 186 l 932 559 l 985 559 l 737 192 l 736 187 q 822 191 774 189 l 920 191 l 957 363 l 1008 363 l 971 191 l 1035 191 l 1025 143 l 961 143 l 930 0 l 879 0 l 909 143 z "},"½":{"ha":1179,"x_min":33,"x_max":1136,"o":"m 33 347 l 45 395 l 189 395 l 289 865 l 123 811 l 135 861 l 300 917 l 351 917 l 240 395 l 354 395 l 343 347 l 33 347 m 224 -9 l 189 20 l 1042 909 l 1078 878 l 224 -9 m 1086 435 q 1060 504 1086 478 q 990 530 1034 530 q 916 521 954 530 q 848 497 877 511 l 862 549 q 993 578 922 578 q 1097 540 1059 578 q 1136 436 1136 503 q 1102 326 1136 382 q 1006 208 1069 271 q 831 49 943 146 l 831 45 l 941 47 l 1074 47 l 1065 0 l 748 0 l 758 39 q 1025 295 964 218 q 1086 435 1086 372 z "},"¾":{"ha":1035,"x_min":12,"x_max":1005,"o":"m 12 357 l 25 401 q 74 386 50 391 q 136 380 97 380 q 260 417 213 380 q 307 514 307 454 q 176 615 307 615 l 151 615 l 163 660 l 175 660 q 303 700 251 660 q 355 799 355 740 q 325 860 355 841 q 253 879 295 879 q 186 872 220 879 q 132 856 153 866 l 138 903 q 261 925 198 925 q 365 894 323 925 q 406 806 406 863 q 363 697 406 740 q 254 642 321 654 l 252 639 q 329 598 300 631 q 357 517 357 566 q 296 384 357 435 q 134 334 235 334 q 12 357 54 334 m 151 -9 l 117 20 l 969 909 l 1005 878 l 151 -9 m 839 143 l 600 143 l 610 186 l 861 559 l 914 559 l 667 192 l 665 187 q 751 191 703 189 l 849 191 l 886 363 l 938 363 l 901 191 l 964 191 l 954 143 l 890 143 l 860 0 l 808 0 l 839 143 z "},"¿":{"ha":533,"x_min":-26,"x_max":428,"o":"m 329 545 l 349 633 l 428 633 l 408 545 l 329 545 m 31 -103 q 70 -197 31 -161 q 187 -232 110 -232 q 286 -218 235 -232 q 363 -189 336 -204 l 353 -241 q 277 -270 322 -260 q 186 -281 233 -281 q 31 -232 88 -281 q -26 -100 -26 -183 q -7 -4 -26 -44 q 43 63 13 36 q 125 126 74 91 q 244 222 214 189 q 290 291 273 256 q 317 383 307 326 l 368 383 q 328 251 360 306 q 257 163 296 197 q 157 90 218 130 q 56 -4 82 40 q 31 -103 31 -47 z "},"À":{"ha":802,"x_min":-17,"x_max":693,"o":"m -17 0 l 484 907 l 519 907 l 693 0 l 635 0 l 571 322 l 227 322 l 47 0 l -17 0 m 559 376 l 482 800 l 481 800 q 368 582 453 735 l 253 376 l 559 376 m 493 956 l 397 1124 l 474 1124 l 545 956 l 493 956 z "},"Á":{"ha":802,"x_min":-17,"x_max":699,"o":"m -17 0 l 484 907 l 519 907 l 693 0 l 635 0 l 571 322 l 227 322 l 47 0 l -17 0 m 559 376 l 482 800 l 481 800 q 368 582 453 735 l 253 376 l 559 376 m 481 956 l 616 1124 l 699 1124 l 549 956 l 481 956 z "},"Â":{"ha":802,"x_min":-17,"x_max":694,"o":"m -17 0 l 484 907 l 519 907 l 693 0 l 635 0 l 571 322 l 227 322 l 47 0 l -17 0 m 559 376 l 482 800 l 481 800 q 368 582 453 735 l 253 376 l 559 376 m 323 956 l 510 1124 l 572 1124 l 694 956 l 631 956 l 538 1074 l 534 1074 l 399 956 l 323 956 z "},"Ã":{"ha":802,"x_min":-17,"x_max":730,"o":"m -17 0 l 484 907 l 519 907 l 693 0 l 635 0 l 571 322 l 227 322 l 47 0 l -17 0 m 559 376 l 482 800 l 481 800 q 368 582 453 735 l 253 376 l 559 376 m 427 1044 q 385 1025 401 1044 q 361 981 368 1006 l 303 981 q 342 1068 315 1036 q 421 1100 369 1100 q 473 1090 448 1100 q 532 1061 498 1080 q 604 1034 581 1034 q 647 1053 631 1034 q 668 1097 663 1072 l 730 1097 q 688 1009 715 1041 q 610 978 661 978 q 548 989 574 978 q 488 1019 521 1000 q 427 1044 448 1044 z "},"Ä":{"ha":802,"x_min":-17,"x_max":693,"o":"m -17 0 l 484 907 l 519 907 l 693 0 l 635 0 l 571 322 l 227 322 l 47 0 l -17 0 m 559 376 l 482 800 l 481 800 q 368 582 453 735 l 253 376 l 559 376 m 371 982 l 387 1064 l 458 1064 l 443 982 l 371 982 m 596 982 l 612 1064 l 684 1064 l 667 982 l 596 982 z "},"Å":{"ha":802,"x_min":-17,"x_max":693,"o":"m -17 0 l 484 907 l 519 907 l 693 0 l 635 0 l 571 322 l 227 322 l 47 0 l -17 0 m 559 376 l 482 800 l 481 800 q 368 582 453 735 l 253 376 l 559 376 m 392 1036 q 440 1136 392 1095 q 558 1177 488 1177 q 642 1152 609 1177 q 675 1084 675 1127 q 626 985 675 1026 q 509 945 578 945 q 424 970 455 945 q 392 1036 392 995 m 614 1075 q 596 1114 614 1099 q 547 1128 578 1128 q 480 1104 508 1128 q 453 1044 453 1081 q 471 1006 453 1020 q 519 993 488 993 q 587 1015 560 993 q 614 1075 614 1038 z "},"Æ":{"ha":1043,"x_min":-14,"x_max":1089,"o":"m -14 0 l 607 907 l 1089 907 l 1076 844 l 688 844 l 653 492 l 972 492 l 960 437 l 647 437 l 610 65 l 981 65 l 966 0 l 545 0 l 578 322 l 277 322 l 56 0 l -14 0 m 313 376 l 582 376 l 632 844 l 628 844 l 313 376 z "},"Ç":{"ha":762,"x_min":92,"x_max":772,"o":"m 157 349 q 201 168 157 237 q 314 68 246 98 q 454 39 382 39 q 549 48 502 39 q 627 72 596 58 l 614 11 q 453 -17 546 -17 q 376 -11 412 -17 l 339 -94 q 415 -131 387 -102 q 443 -199 443 -161 q 398 -295 443 -258 q 282 -332 354 -332 q 226 -327 256 -332 q 178 -315 195 -322 l 193 -261 q 288 -278 229 -278 q 363 -258 340 -278 q 387 -210 387 -237 q 360 -157 387 -172 q 260 -138 333 -141 l 325 0 l 328 0 q 153 125 215 33 q 92 350 92 218 q 131 561 92 450 q 237 754 170 673 q 396 880 305 836 q 606 925 486 925 q 703 918 655 925 q 772 899 750 910 l 758 843 q 687 862 732 855 q 602 869 642 869 q 375 795 477 869 q 215 601 273 722 q 157 349 157 481 z "},"È":{"ha":704,"x_min":61,"x_max":724,"o":"m 61 0 l 248 907 l 724 907 l 711 852 l 298 852 l 224 492 l 606 492 l 595 437 l 211 437 l 134 54 l 572 54 l 558 0 l 61 0 m 501 956 l 406 1124 l 482 1124 l 553 956 l 501 956 z "},"É":{"ha":704,"x_min":61,"x_max":724,"o":"m 61 0 l 248 907 l 724 907 l 711 852 l 298 852 l 224 492 l 606 492 l 595 437 l 211 437 l 134 54 l 572 54 l 558 0 l 61 0 m 450 956 l 585 1124 l 667 1124 l 517 956 l 450 956 z "},"Ê":{"ha":704,"x_min":61,"x_max":724,"o":"m 61 0 l 248 907 l 724 907 l 711 852 l 298 852 l 224 492 l 606 492 l 595 437 l 211 437 l 134 54 l 572 54 l 558 0 l 61 0 m 326 956 l 513 1124 l 575 1124 l 697 956 l 633 956 l 541 1074 l 537 1074 l 401 956 l 326 956 z "},"Ë":{"ha":704,"x_min":61,"x_max":724,"o":"m 61 0 l 248 907 l 724 907 l 711 852 l 298 852 l 224 492 l 606 492 l 595 437 l 211 437 l 134 54 l 572 54 l 558 0 l 61 0 m 359 982 l 375 1064 l 446 1064 l 431 982 l 359 982 m 584 982 l 600 1064 l 671 1064 l 654 982 l 584 982 z "},"Ì":{"ha":323,"x_min":61,"x_max":317,"o":"m 61 0 l 248 907 l 310 907 l 121 0 l 61 0 m 265 956 l 170 1124 l 246 1124 l 317 956 l 265 956 z "},"Í":{"ha":323,"x_min":61,"x_max":471,"o":"m 61 0 l 248 907 l 310 907 l 121 0 l 61 0 m 254 956 l 389 1124 l 471 1124 l 321 956 l 254 956 z "},"Î":{"ha":323,"x_min":61,"x_max":465,"o":"m 61 0 l 248 907 l 310 907 l 121 0 l 61 0 m 94 956 l 281 1124 l 343 1124 l 465 956 l 401 956 l 309 1074 l 305 1074 l 170 956 l 94 956 z "},"Ï":{"ha":323,"x_min":61,"x_max":444,"o":"m 61 0 l 248 907 l 310 907 l 121 0 l 61 0 m 131 982 l 147 1064 l 218 1064 l 203 982 l 131 982 m 356 982 l 372 1064 l 444 1064 l 427 982 l 356 982 z "},"Ð":{"ha":872,"x_min":61,"x_max":819,"o":"m 819 554 q 754 270 819 396 q 568 72 688 144 q 292 0 448 0 l 62 0 l 151 436 l 61 436 l 74 490 l 163 490 l 249 907 l 440 907 q 654 866 571 907 q 779 747 738 825 q 819 554 819 668 m 753 554 q 677 779 753 705 q 444 852 602 852 l 297 852 l 224 490 l 486 490 l 472 436 l 212 436 l 135 54 l 285 54 q 537 123 431 54 q 698 305 643 191 q 753 554 753 419 z "},"Ñ":{"ha":911,"x_min":61,"x_max":900,"o":"m 248 907 l 300 907 l 631 189 l 675 92 l 676 92 q 713 292 707 266 l 839 907 l 900 907 l 710 0 l 659 0 l 361 643 q 283 817 300 772 l 282 817 l 269 739 l 248 616 l 122 0 l 61 0 l 248 907 m 498 1044 q 456 1025 473 1044 q 433 981 439 1006 l 375 981 q 414 1068 387 1036 q 493 1100 441 1100 q 545 1090 519 1100 q 604 1061 570 1080 q 676 1034 653 1034 q 719 1053 703 1034 q 740 1097 735 1072 l 802 1097 q 760 1009 787 1041 q 682 978 733 978 q 620 989 646 978 q 560 1019 593 1000 q 498 1044 519 1044 z "},"Ò":{"ha":961,"x_min":104,"x_max":904,"o":"m 104 325 q 160 602 104 463 q 326 833 216 741 q 590 925 436 925 q 822 835 741 925 q 904 581 904 745 q 849 306 904 445 q 686 75 795 168 q 421 -17 576 -17 q 187 73 269 -17 q 104 325 104 162 m 842 587 q 778 797 842 725 q 593 869 713 869 q 361 783 458 869 q 217 568 265 696 q 168 319 168 440 q 233 112 168 185 q 418 39 298 39 q 649 124 553 39 q 793 338 745 210 q 842 587 842 466 m 553 956 l 457 1124 l 534 1124 l 604 956 l 553 956 z "},"Ó":{"ha":961,"x_min":104,"x_max":904,"o":"m 104 325 q 160 602 104 463 q 326 833 216 741 q 590 925 436 925 q 822 835 741 925 q 904 581 904 745 q 849 306 904 445 q 686 75 795 168 q 421 -17 576 -17 q 187 73 269 -17 q 104 325 104 162 m 842 587 q 778 797 842 725 q 593 869 713 869 q 361 783 458 869 q 217 568 265 696 q 168 319 168 440 q 233 112 168 185 q 418 39 298 39 q 649 124 553 39 q 793 338 745 210 q 842 587 842 466 m 515 956 l 650 1124 l 732 1124 l 582 956 l 515 956 z "},"Ô":{"ha":961,"x_min":104,"x_max":904,"o":"m 104 325 q 160 602 104 463 q 326 833 216 741 q 590 925 436 925 q 822 835 741 925 q 904 581 904 745 q 849 306 904 445 q 686 75 795 168 q 421 -17 576 -17 q 187 73 269 -17 q 104 325 104 162 m 842 587 q 778 797 842 725 q 593 869 713 869 q 361 783 458 869 q 217 568 265 696 q 168 319 168 440 q 233 112 168 185 q 418 39 298 39 q 649 124 553 39 q 793 338 745 210 q 842 587 842 466 m 397 956 l 584 1124 l 646 1124 l 768 956 l 705 956 l 612 1074 l 608 1074 l 473 956 l 397 956 z "},"Õ":{"ha":961,"x_min":104,"x_max":904,"o":"m 104 325 q 160 602 104 463 q 326 833 216 741 q 590 925 436 925 q 822 835 741 925 q 904 581 904 745 q 849 306 904 445 q 686 75 795 168 q 421 -17 576 -17 q 187 73 269 -17 q 104 325 104 162 m 842 587 q 778 797 842 725 q 593 869 713 869 q 361 783 458 869 q 217 568 265 696 q 168 319 168 440 q 233 112 168 185 q 418 39 298 39 q 649 124 553 39 q 793 338 745 210 q 842 587 842 466 m 513 1044 q 471 1025 488 1044 q 448 981 454 1006 l 389 981 q 428 1068 401 1036 q 507 1100 455 1100 q 559 1090 534 1100 q 618 1061 584 1080 q 690 1034 667 1034 q 733 1053 718 1034 q 754 1097 749 1072 l 816 1097 q 774 1009 801 1041 q 696 978 747 978 q 634 989 661 978 q 574 1019 607 1000 q 513 1044 534 1044 z "},"Ö":{"ha":961,"x_min":104,"x_max":904,"o":"m 104 325 q 160 602 104 463 q 326 833 216 741 q 590 925 436 925 q 822 835 741 925 q 904 581 904 745 q 849 306 904 445 q 686 75 795 168 q 421 -17 576 -17 q 187 73 269 -17 q 104 325 104 162 m 842 587 q 778 797 842 725 q 593 869 713 869 q 361 783 458 869 q 217 568 265 696 q 168 319 168 440 q 233 112 168 185 q 418 39 298 39 q 649 124 553 39 q 793 338 745 210 q 842 587 842 466 m 432 982 l 448 1064 l 519 1064 l 504 982 l 432 982 m 657 982 l 673 1064 l 745 1064 l 728 982 l 657 982 z "},"×":{"ha":694,"x_min":75,"x_max":618,"o":"m 114 75 l 78 113 l 311 346 l 75 581 l 114 618 l 347 385 l 582 618 l 618 581 l 386 346 l 618 113 l 582 75 l 347 310 l 114 75 z "},"Ø":{"ha":961,"x_min":74,"x_max":936,"o":"m 852 794 q 904 581 904 709 q 849 306 904 445 q 686 75 795 168 q 421 -17 576 -17 q 191 68 275 -17 l 113 -17 l 74 20 l 158 113 q 104 325 104 197 q 160 602 104 463 q 326 833 216 741 q 590 925 436 925 q 822 838 741 925 l 899 924 l 936 885 l 852 794 m 168 319 q 201 163 168 227 l 782 793 q 593 869 720 869 q 361 783 458 869 q 217 568 265 696 q 168 319 168 440 m 842 587 q 812 743 842 676 l 231 114 q 418 39 295 39 q 649 124 553 39 q 793 338 745 210 q 842 587 842 466 z "},"Ù":{"ha":876,"x_min":103,"x_max":885,"o":"m 103 233 q 115 349 103 290 l 232 907 l 292 907 l 178 353 q 164 240 164 284 q 215 93 164 147 q 374 39 267 39 q 539 78 471 39 q 648 182 607 118 q 708 345 688 245 l 823 907 l 885 907 l 760 309 q 685 132 737 202 q 555 22 632 61 q 379 -17 478 -17 q 176 49 249 -17 q 103 233 103 115 m 557 956 l 461 1124 l 538 1124 l 608 956 l 557 956 z "},"Ú":{"ha":876,"x_min":103,"x_max":885,"o":"m 103 233 q 115 349 103 290 l 232 907 l 292 907 l 178 353 q 164 240 164 284 q 215 93 164 147 q 374 39 267 39 q 539 78 471 39 q 648 182 607 118 q 708 345 688 245 l 823 907 l 885 907 l 760 309 q 685 132 737 202 q 555 22 632 61 q 379 -17 478 -17 q 176 49 249 -17 q 103 233 103 115 m 505 956 l 640 1124 l 722 1124 l 572 956 l 505 956 z "},"Û":{"ha":876,"x_min":103,"x_max":885,"o":"m 103 233 q 115 349 103 290 l 232 907 l 292 907 l 178 353 q 164 240 164 284 q 215 93 164 147 q 374 39 267 39 q 539 78 471 39 q 648 182 607 118 q 708 345 688 245 l 823 907 l 885 907 l 760 309 q 685 132 737 202 q 555 22 632 61 q 379 -17 478 -17 q 176 49 249 -17 q 103 233 103 115 m 378 956 l 564 1124 l 627 1124 l 749 956 l 685 956 l 592 1074 l 589 1074 l 453 956 l 378 956 z "},"Ü":{"ha":876,"x_min":103,"x_max":885,"o":"m 103 233 q 115 349 103 290 l 232 907 l 292 907 l 178 353 q 164 240 164 284 q 215 93 164 147 q 374 39 267 39 q 539 78 471 39 q 648 182 607 118 q 708 345 688 245 l 823 907 l 885 907 l 760 309 q 685 132 737 202 q 555 22 632 61 q 379 -17 478 -17 q 176 49 249 -17 q 103 233 103 115 m 412 982 l 429 1064 l 500 1064 l 484 982 l 412 982 m 637 982 l 654 1064 l 725 1064 l 708 982 l 637 982 z "},"Ý":{"ha":703,"x_min":140,"x_max":771,"o":"m 268 0 l 346 370 l 140 907 l 201 907 l 380 428 l 701 907 l 771 907 l 406 370 l 328 0 l 268 0 m 401 956 l 536 1124 l 618 1124 l 468 956 l 401 956 z "},"Þ":{"ha":704,"x_min":61,"x_max":682,"o":"m 248 907 l 304 907 l 262 704 l 399 704 q 613 656 544 704 q 682 504 682 609 q 646 369 682 433 q 518 262 610 305 q 269 218 427 218 q 161 225 214 218 l 115 0 l 61 0 l 248 907 m 625 500 q 570 614 625 580 q 427 648 515 648 l 249 648 l 175 279 q 292 272 248 272 q 479 304 404 272 q 590 389 554 337 q 625 500 625 441 z "},"ß":{"ha":800,"x_min":-167,"x_max":717,"o":"m -167 -323 l -158 -271 q -104 -275 -136 -275 q 2 -224 -39 -275 q 64 -68 43 -173 l 221 692 q 325 928 256 858 q 505 999 395 999 q 659 954 602 999 q 717 835 717 909 q 700 761 717 795 q 652 693 683 726 q 562 606 621 659 q 512 552 522 572 q 501 510 501 533 q 519 451 501 475 q 594 384 536 427 q 656 334 633 355 q 693 281 678 313 q 708 204 708 250 q 642 43 708 103 q 465 -17 575 -17 q 366 -4 412 -17 q 313 22 319 9 l 325 74 q 397 44 366 54 q 471 35 428 35 q 603 77 554 35 q 652 189 652 119 q 628 270 652 235 q 562 339 605 306 q 475 413 490 393 q 452 453 459 433 q 444 498 444 473 q 457 563 444 534 q 490 613 471 592 q 545 666 510 635 q 637 763 616 729 q 659 829 659 796 q 629 910 659 871 q 509 949 599 949 q 382 912 429 949 q 312 818 336 876 q 271 669 289 760 l 110 -109 q 23 -287 82 -241 q -110 -332 -37 -332 q -167 -323 -151 -332 z "},"à":{"ha":648,"x_min":58,"x_max":610,"o":"m 58 200 q 98 406 58 302 q 212 580 137 511 q 386 650 286 650 q 538 562 481 650 l 541 562 l 571 633 l 610 633 l 501 118 q 496 72 496 91 q 526 39 496 39 q 568 41 551 39 l 555 -4 q 510 -9 534 -9 q 457 8 475 -9 q 439 54 439 25 q 443 102 439 75 l 440 102 q 232 -17 351 -17 q 104 38 149 -17 q 58 200 58 92 m 526 507 q 463 575 496 550 q 380 600 431 600 q 238 536 298 600 q 148 379 178 473 q 117 197 117 285 q 152 68 117 102 q 244 33 186 33 q 386 94 319 33 q 471 240 452 154 l 526 507 m 366 762 l 309 999 l 379 999 l 412 762 l 366 762 z "},"á":{"ha":648,"x_min":58,"x_max":610,"o":"m 58 200 q 98 406 58 302 q 212 580 137 511 q 386 650 286 650 q 538 562 481 650 l 541 562 l 571 633 l 610 633 l 501 118 q 496 72 496 91 q 526 39 496 39 q 568 41 551 39 l 555 -4 q 510 -9 534 -9 q 457 8 475 -9 q 439 54 439 25 q 443 102 439 75 l 440 102 q 232 -17 351 -17 q 104 38 149 -17 q 58 200 58 92 m 526 507 q 463 575 496 550 q 380 600 431 600 q 238 536 298 600 q 148 379 178 473 q 117 197 117 285 q 152 68 117 102 q 244 33 186 33 q 386 94 319 33 q 471 240 452 154 l 526 507 m 350 762 l 479 999 l 555 999 l 401 762 l 350 762 z "},"â":{"ha":648,"x_min":58,"x_max":610,"o":"m 58 200 q 98 406 58 302 q 212 580 137 511 q 386 650 286 650 q 538 562 481 650 l 541 562 l 571 633 l 610 633 l 501 118 q 496 72 496 91 q 526 39 496 39 q 568 41 551 39 l 555 -4 q 510 -9 534 -9 q 457 8 475 -9 q 439 54 439 25 q 443 102 439 75 l 440 102 q 232 -17 351 -17 q 104 38 149 -17 q 58 200 58 92 m 526 507 q 463 575 496 550 q 380 600 431 600 q 238 536 298 600 q 148 379 178 473 q 117 197 117 285 q 152 68 117 102 q 244 33 186 33 q 386 94 319 33 q 471 240 452 154 l 526 507 m 203 762 l 393 999 l 450 999 l 546 762 l 490 762 l 416 950 l 413 950 l 264 762 l 203 762 z "},"ã":{"ha":648,"x_min":58,"x_max":645,"o":"m 58 200 q 98 406 58 302 q 212 580 137 511 q 386 650 286 650 q 538 562 481 650 l 541 562 l 571 633 l 610 633 l 501 118 q 496 72 496 91 q 526 39 496 39 q 568 41 551 39 l 555 -4 q 510 -9 534 -9 q 457 8 475 -9 q 439 54 439 25 q 443 102 439 75 l 440 102 q 232 -17 351 -17 q 104 38 149 -17 q 58 200 58 92 m 526 507 q 463 575 496 550 q 380 600 431 600 q 238 536 298 600 q 148 379 178 473 q 117 197 117 285 q 152 68 117 102 q 244 33 186 33 q 386 94 319 33 q 471 240 452 154 l 526 507 m 342 873 q 300 854 317 873 q 277 810 283 835 l 218 810 q 257 895 230 864 q 336 925 283 925 q 388 915 363 925 q 448 886 413 905 q 519 859 496 859 q 563 878 547 859 q 583 922 578 897 l 645 922 q 604 837 630 867 q 525 807 577 807 q 463 818 490 807 q 404 848 436 829 q 342 873 363 873 z "},"ä":{"ha":648,"x_min":58,"x_max":610,"o":"m 58 200 q 98 406 58 302 q 212 580 137 511 q 386 650 286 650 q 538 562 481 650 l 541 562 l 571 633 l 610 633 l 501 118 q 496 72 496 91 q 526 39 496 39 q 568 41 551 39 l 555 -4 q 510 -9 534 -9 q 457 8 475 -9 q 439 54 439 25 q 443 102 439 75 l 440 102 q 232 -17 351 -17 q 104 38 149 -17 q 58 200 58 92 m 526 507 q 463 575 496 550 q 380 600 431 600 q 238 536 298 600 q 148 379 178 473 q 117 197 117 285 q 152 68 117 102 q 244 33 186 33 q 386 94 319 33 q 471 240 452 154 l 526 507 m 501 785 l 518 852 l 589 852 l 572 785 l 501 785 m 276 785 l 293 851 l 365 851 l 350 785 l 276 785 z "},"å":{"ha":648,"x_min":58,"x_max":610,"o":"m 58 200 q 98 406 58 302 q 212 580 137 511 q 386 650 286 650 q 538 562 481 650 l 541 562 l 571 633 l 610 633 l 501 118 q 496 72 496 91 q 526 39 496 39 q 568 41 551 39 l 555 -4 q 510 -9 534 -9 q 457 8 475 -9 q 439 54 439 25 q 443 102 439 75 l 440 102 q 232 -17 351 -17 q 104 38 149 -17 q 58 200 58 92 m 526 507 q 463 575 496 550 q 380 600 431 600 q 238 536 298 600 q 148 379 178 473 q 117 197 117 285 q 152 68 117 102 q 244 33 186 33 q 386 94 319 33 q 471 240 452 154 l 526 507 m 279 859 q 326 957 279 917 q 441 997 373 997 q 524 972 493 997 q 554 904 554 947 q 509 805 554 843 q 392 766 465 766 q 309 791 339 766 q 279 859 279 817 m 501 897 q 483 941 501 925 q 431 957 464 957 q 360 932 389 957 q 332 867 332 907 q 351 823 332 839 q 403 807 370 807 q 474 831 446 807 q 501 897 501 856 z "},"æ":{"ha":1040,"x_min":58,"x_max":1007,"o":"m 553 241 q 602 84 553 135 q 754 33 652 33 q 914 69 822 33 l 905 21 q 745 -17 836 -17 q 582 31 641 -17 q 507 167 523 79 q 453 84 491 127 q 360 12 415 41 q 244 -17 306 -17 q 58 154 58 -17 q 129 313 58 254 q 315 372 199 372 q 416 365 355 372 q 517 346 477 357 q 521 412 521 373 q 461 558 521 516 q 322 600 401 600 q 165 572 249 600 l 178 619 q 245 642 204 633 q 332 650 287 650 q 495 603 437 650 q 567 485 553 555 q 828 650 657 650 q 959 608 910 650 q 1007 496 1007 567 q 956 387 1007 428 q 808 325 905 345 q 591 300 711 304 l 559 298 q 553 241 553 269 m 570 351 q 769 369 688 356 q 900 412 850 381 q 950 497 950 443 q 917 570 950 540 q 832 600 883 600 q 665 531 731 600 q 570 351 600 461 m 504 294 q 318 321 381 321 q 195 294 241 321 q 133 229 150 267 q 115 155 115 191 q 147 65 115 98 q 237 33 178 33 q 339 61 286 33 q 436 148 392 89 q 504 294 481 207 z "},"ç":{"ha":551,"x_min":58,"x_max":543,"o":"m 98 -315 l 114 -261 q 208 -278 151 -278 q 285 -258 261 -278 q 309 -210 309 -237 q 281 -156 309 -172 q 180 -138 254 -140 l 239 -14 q 107 58 155 -1 q 58 225 58 116 q 94 420 58 322 q 204 584 130 519 q 386 650 279 650 q 543 614 473 650 l 532 568 q 461 591 503 582 q 383 600 420 600 q 232 539 294 600 q 141 392 171 479 q 111 231 111 306 q 159 79 111 124 q 293 33 207 33 q 383 45 341 33 q 443 69 425 57 l 432 21 q 372 -5 412 6 q 294 -17 332 -16 l 260 -94 q 336 -131 308 -102 q 364 -199 364 -161 q 320 -295 364 -258 q 203 -332 275 -332 q 146 -327 177 -332 q 98 -315 116 -322 z "},"è":{"ha":596,"x_min":57,"x_max":562,"o":"m 57 232 q 97 430 57 334 q 212 588 137 527 q 385 650 286 650 q 513 608 465 650 q 562 496 562 566 q 459 356 562 404 q 148 300 357 309 l 117 298 q 110 241 110 269 q 159 84 110 135 q 311 33 209 33 q 471 69 382 33 l 463 21 q 301 -17 393 -17 q 117 50 176 -17 q 57 232 57 117 m 507 497 q 473 570 507 541 q 389 600 439 600 q 222 530 288 600 q 126 349 157 459 q 423 394 338 357 q 507 497 507 430 m 376 762 l 319 999 l 390 999 l 423 762 l 376 762 z "},"é":{"ha":596,"x_min":57,"x_max":562,"o":"m 57 232 q 97 430 57 334 q 212 588 137 527 q 385 650 286 650 q 513 608 465 650 q 562 496 562 566 q 459 356 562 404 q 148 300 357 309 l 117 298 q 110 241 110 269 q 159 84 110 135 q 311 33 209 33 q 471 69 382 33 l 463 21 q 301 -17 393 -17 q 117 50 176 -17 q 57 232 57 117 m 507 497 q 473 570 507 541 q 389 600 439 600 q 222 530 288 600 q 126 349 157 459 q 423 394 338 357 q 507 497 507 430 m 351 762 l 480 999 l 557 999 l 403 762 l 351 762 z "},"ê":{"ha":596,"x_min":57,"x_max":562,"o":"m 57 232 q 97 430 57 334 q 212 588 137 527 q 385 650 286 650 q 513 608 465 650 q 562 496 562 566 q 459 356 562 404 q 148 300 357 309 l 117 298 q 110 241 110 269 q 159 84 110 135 q 311 33 209 33 q 471 69 382 33 l 463 21 q 301 -17 393 -17 q 117 50 176 -17 q 57 232 57 117 m 507 497 q 473 570 507 541 q 389 600 439 600 q 222 530 288 600 q 126 349 157 459 q 423 394 338 357 q 507 497 507 430 m 208 762 l 399 999 l 456 999 l 551 762 l 496 762 l 421 950 l 418 950 l 270 762 l 208 762 z "},"ë":{"ha":596,"x_min":57,"x_max":562,"o":"m 57 232 q 97 430 57 334 q 212 588 137 527 q 385 650 286 650 q 513 608 465 650 q 562 496 562 566 q 459 356 562 404 q 148 300 357 309 l 117 298 q 110 241 110 269 q 159 84 110 135 q 311 33 209 33 q 471 69 382 33 l 463 21 q 301 -17 393 -17 q 117 50 176 -17 q 57 232 57 117 m 507 497 q 473 570 507 541 q 389 600 439 600 q 222 530 288 600 q 126 349 157 459 q 423 394 338 357 q 507 497 507 430 m 463 785 l 479 852 l 550 852 l 533 785 l 463 785 m 237 785 l 254 851 l 326 851 l 311 785 l 237 785 z "},"ì":{"ha":256,"x_min":41,"x_max":252,"o":"m 41 0 l 171 633 l 227 633 l 96 0 l 41 0 m 205 762 l 149 999 l 219 999 l 252 762 l 205 762 z "},"í":{"ha":256,"x_min":41,"x_max":399,"o":"m 41 0 l 171 633 l 227 633 l 96 0 l 41 0 m 193 762 l 322 999 l 399 999 l 245 762 l 193 762 z "},"î":{"ha":256,"x_min":41,"x_max":389,"o":"m 41 0 l 171 633 l 227 633 l 96 0 l 41 0 m 45 762 l 236 999 l 293 999 l 389 762 l 333 762 l 258 950 l 256 950 l 107 762 l 45 762 z "},"ï":{"ha":256,"x_min":41,"x_max":396,"o":"m 41 0 l 171 633 l 227 633 l 96 0 l 41 0 m 309 785 l 326 852 l 396 852 l 379 785 l 309 785 m 83 785 l 100 851 l 172 851 l 157 785 l 83 785 z "},"ð":{"ha":660,"x_min":58,"x_max":636,"o":"m 507 786 q 596 422 596 632 q 563 232 596 334 q 455 57 530 130 q 264 -16 380 -16 q 115 47 172 -16 q 58 211 58 110 q 100 414 58 319 q 216 566 142 509 q 380 624 290 624 q 487 595 440 624 q 543 528 534 566 l 546 528 q 453 774 516 670 l 265 730 l 254 782 l 424 818 q 277 982 363 899 l 351 982 q 476 835 430 901 l 624 869 l 636 818 l 507 786 m 538 390 q 496 525 538 475 q 380 574 454 574 q 238 518 298 574 q 147 381 178 463 q 117 218 117 298 q 157 86 117 137 q 262 35 197 35 q 410 91 348 35 q 505 230 473 147 q 538 390 538 313 z "},"ñ":{"ha":693,"x_min":43,"x_max":641,"o":"m 175 633 l 215 633 l 214 541 l 216 541 q 323 624 266 598 q 453 650 380 650 q 572 613 530 650 q 614 507 614 576 q 608 442 614 478 q 517 0 602 406 l 464 0 l 546 400 q 558 497 558 458 q 524 577 558 555 q 429 600 490 600 q 220 486 307 600 q 176 380 187 444 l 97 0 l 43 0 l 175 633 m 338 873 q 296 854 313 873 q 273 810 279 835 l 214 810 q 253 895 226 864 q 332 925 279 925 q 384 915 359 925 q 444 886 409 905 q 515 859 492 859 q 558 878 543 859 q 579 922 574 897 l 641 922 q 600 837 626 867 q 521 807 573 807 q 459 818 486 807 q 399 848 432 829 q 338 873 359 873 z "},"ò":{"ha":656,"x_min":58,"x_max":596,"o":"m 58 228 q 92 397 58 298 q 199 573 125 497 q 389 650 273 650 q 544 582 491 650 q 596 392 596 514 q 563 224 596 321 q 454 56 530 128 q 262 -17 379 -17 q 114 50 169 -17 q 58 228 58 116 m 538 395 q 501 541 538 481 q 386 600 465 600 q 242 539 303 600 q 149 391 180 479 q 117 225 117 303 q 157 85 117 138 q 264 33 197 33 q 410 90 348 33 q 505 231 473 146 q 538 395 538 315 m 388 762 l 331 999 l 401 999 l 435 762 l 388 762 z "},"ó":{"ha":656,"x_min":58,"x_max":596,"o":"m 58 228 q 92 397 58 298 q 199 573 125 497 q 389 650 273 650 q 544 582 491 650 q 596 392 596 514 q 563 224 596 321 q 454 56 530 128 q 262 -17 379 -17 q 114 50 169 -17 q 58 228 58 116 m 538 395 q 501 541 538 481 q 386 600 465 600 q 242 539 303 600 q 149 391 180 479 q 117 225 117 303 q 157 85 117 138 q 264 33 197 33 q 410 90 348 33 q 505 231 473 146 q 538 395 538 315 m 370 762 l 498 999 l 575 999 l 421 762 l 370 762 z "},"ô":{"ha":656,"x_min":58,"x_max":596,"o":"m 58 228 q 92 397 58 298 q 199 573 125 497 q 389 650 273 650 q 544 582 491 650 q 596 392 596 514 q 563 224 596 321 q 454 56 530 128 q 262 -17 379 -17 q 114 50 169 -17 q 58 228 58 116 m 538 395 q 501 541 538 481 q 386 600 465 600 q 242 539 303 600 q 149 391 180 479 q 117 225 117 303 q 157 85 117 138 q 264 33 197 33 q 410 90 348 33 q 505 231 473 146 q 538 395 538 315 m 229 762 l 420 999 l 477 999 l 572 762 l 517 762 l 442 950 l 439 950 l 291 762 l 229 762 z "},"õ":{"ha":656,"x_min":58,"x_max":645,"o":"m 58 228 q 92 397 58 298 q 199 573 125 497 q 389 650 273 650 q 544 582 491 650 q 596 392 596 514 q 563 224 596 321 q 454 56 530 128 q 262 -17 379 -17 q 114 50 169 -17 q 58 228 58 116 m 538 395 q 501 541 538 481 q 386 600 465 600 q 242 539 303 600 q 149 391 180 479 q 117 225 117 303 q 157 85 117 138 q 264 33 197 33 q 410 90 348 33 q 505 231 473 146 q 538 395 538 315 m 342 873 q 300 854 317 873 q 277 810 283 835 l 218 810 q 257 895 230 864 q 336 925 283 925 q 388 915 363 925 q 448 886 413 905 q 519 859 496 859 q 563 878 547 859 q 583 922 578 897 l 645 922 q 604 837 630 867 q 525 807 577 807 q 463 818 490 807 q 404 848 436 829 q 342 873 363 873 z "},"ö":{"ha":656,"x_min":58,"x_max":596,"o":"m 58 228 q 92 397 58 298 q 199 573 125 497 q 389 650 273 650 q 544 582 491 650 q 596 392 596 514 q 563 224 596 321 q 454 56 530 128 q 262 -17 379 -17 q 114 50 169 -17 q 58 228 58 116 m 538 395 q 501 541 538 481 q 386 600 465 600 q 242 539 303 600 q 149 391 180 479 q 117 225 117 303 q 157 85 117 138 q 264 33 197 33 q 410 90 348 33 q 505 231 473 146 q 538 395 538 315 m 493 785 l 510 852 l 581 852 l 564 785 l 493 785 m 268 785 l 285 851 l 357 851 l 342 785 l 268 785 z "},"÷":{"ha":694,"x_min":78,"x_max":616,"o":"m 307 533 l 307 621 l 386 621 l 386 533 l 307 533 m 78 319 l 78 375 l 616 375 l 616 319 l 78 319 m 307 74 l 307 158 l 386 158 l 386 74 l 307 74 z "},"ø":{"ha":656,"x_min":29,"x_max":631,"o":"m 29 16 l 90 85 q 58 228 58 143 q 92 397 58 298 q 199 573 125 497 q 389 650 273 650 q 533 595 480 650 l 583 652 l 631 616 l 567 545 q 596 392 596 480 q 563 224 596 321 q 454 56 530 128 q 262 -17 379 -17 q 123 37 178 -17 l 75 -18 l 29 16 m 494 550 q 386 600 455 600 q 242 539 303 600 q 149 391 180 479 q 117 225 117 303 q 132 132 117 172 l 494 550 m 538 395 q 524 494 538 449 l 161 81 q 264 33 199 33 q 410 90 348 33 q 505 231 473 146 q 538 395 538 315 z "},"ù":{"ha":659,"x_min":79,"x_max":631,"o":"m 79 154 q 85 224 79 194 l 171 633 l 225 633 l 140 220 q 134 161 134 191 q 170 69 134 104 q 282 33 205 33 q 422 84 372 33 q 492 229 471 136 l 575 633 l 631 633 l 547 235 q 457 40 520 97 q 285 -17 393 -17 q 79 154 79 -17 m 385 762 l 328 999 l 399 999 l 432 762 l 385 762 z "},"ú":{"ha":659,"x_min":79,"x_max":631,"o":"m 79 154 q 85 224 79 194 l 171 633 l 225 633 l 140 220 q 134 161 134 191 q 170 69 134 104 q 282 33 205 33 q 422 84 372 33 q 492 229 471 136 l 575 633 l 631 633 l 547 235 q 457 40 520 97 q 285 -17 393 -17 q 79 154 79 -17 m 382 762 l 511 999 l 587 999 l 433 762 l 382 762 z "},"û":{"ha":659,"x_min":79,"x_max":631,"o":"m 79 154 q 85 224 79 194 l 171 633 l 225 633 l 140 220 q 134 161 134 191 q 170 69 134 104 q 282 33 205 33 q 422 84 372 33 q 492 229 471 136 l 575 633 l 631 633 l 547 235 q 457 40 520 97 q 285 -17 393 -17 q 79 154 79 -17 m 254 762 l 444 999 l 501 999 l 597 762 l 541 762 l 467 950 l 464 950 l 315 762 l 254 762 z "},"ü":{"ha":659,"x_min":79,"x_max":631,"o":"m 79 154 q 85 224 79 194 l 171 633 l 225 633 l 140 220 q 134 161 134 191 q 170 69 134 104 q 282 33 205 33 q 422 84 372 33 q 492 229 471 136 l 575 633 l 631 633 l 547 235 q 457 40 520 97 q 285 -17 393 -17 q 79 154 79 -17 m 509 785 l 526 852 l 596 852 l 579 785 l 509 785 m 283 785 l 300 851 l 372 851 l 357 785 l 283 785 z "},"ý":{"ha":627,"x_min":-77,"x_max":659,"o":"m -77 -328 l -64 -272 l -37 -275 q 115 -209 49 -275 q 245 7 180 -143 l 102 633 l 161 633 l 271 146 l 288 74 l 290 74 l 333 152 l 590 633 l 659 633 l 304 -14 q 197 -196 241 -130 q 98 -297 153 -262 q -39 -332 42 -332 q -77 -328 -59 -332 m 353 762 l 481 999 l 558 999 l 404 762 l 353 762 z "},"þ":{"ha":679,"x_min":-17,"x_max":607,"o":"m 256 982 l 309 982 l 220 539 l 222 539 q 310 620 262 591 q 422 650 358 650 q 558 589 509 650 q 607 424 607 529 q 570 217 607 319 q 460 49 532 115 q 288 -17 387 -17 q 118 50 180 -17 l 115 50 l 37 -315 l -17 -315 l 256 982 m 547 421 q 506 560 547 522 q 410 597 464 597 q 322 574 367 597 q 238 494 277 550 q 179 350 199 439 l 125 103 q 191 52 154 71 q 283 33 228 33 q 434 101 374 33 q 520 259 494 168 q 547 421 547 351 z "},"ÿ":{"ha":627,"x_min":-77,"x_max":659,"o":"m -77 -328 l -64 -272 l -37 -275 q 115 -209 49 -275 q 245 7 180 -143 l 102 633 l 161 633 l 271 146 l 288 74 l 290 74 l 333 152 l 590 633 l 659 633 l 304 -14 q 197 -196 241 -130 q 98 -297 153 -262 q -39 -332 42 -332 q -77 -328 -59 -332 m 490 785 l 507 852 l 578 852 l 561 785 l 490 785 m 265 785 l 282 851 l 354 851 l 339 785 l 265 785 z "},"Ā":{"ha":802,"x_min":-17,"x_max":713,"o":"m -17 0 l 484 907 l 519 907 l 693 0 l 635 0 l 571 322 l 227 322 l 47 0 l -17 0 m 559 376 l 482 800 l 481 800 q 368 582 453 735 l 253 376 l 559 376 m 345 996 l 357 1050 l 713 1050 l 700 996 l 345 996 z "},"ā":{"ha":648,"x_min":58,"x_max":610,"o":"m 58 200 q 98 406 58 302 q 212 580 137 511 q 386 650 286 650 q 538 562 481 650 l 541 562 l 571 633 l 610 633 l 501 118 q 496 72 496 91 q 526 39 496 39 q 568 41 551 39 l 555 -4 q 510 -9 534 -9 q 457 8 475 -9 q 439 54 439 25 q 443 102 439 75 l 440 102 q 232 -17 351 -17 q 104 38 149 -17 q 58 200 58 92 m 526 507 q 463 575 496 550 q 380 600 431 600 q 238 536 298 600 q 148 379 178 473 q 117 197 117 285 q 152 68 117 102 q 244 33 186 33 q 386 94 319 33 q 471 240 452 154 l 526 507 m 221 799 l 232 852 l 588 852 l 576 799 l 221 799 z "},"Ă":{"ha":802,"x_min":-17,"x_max":730,"o":"m -17 0 l 484 907 l 519 907 l 693 0 l 635 0 l 571 322 l 227 322 l 47 0 l -17 0 m 559 376 l 482 800 l 481 800 q 368 582 453 735 l 253 376 l 559 376 m 351 1103 l 351 1116 l 353 1125 l 393 1125 l 393 1109 q 422 1041 393 1067 q 514 1014 451 1014 q 616 1039 570 1014 q 681 1125 661 1064 l 730 1125 q 648 999 707 1039 q 509 960 589 960 q 423 977 456 960 q 372 1023 390 994 q 351 1103 353 1053 z "},"ă":{"ha":648,"x_min":58,"x_max":633,"o":"m 58 200 q 98 406 58 302 q 212 580 137 511 q 386 650 286 650 q 538 562 481 650 l 541 562 l 571 633 l 610 633 l 501 118 q 496 72 496 91 q 526 39 496 39 q 568 41 551 39 l 555 -4 q 510 -9 534 -9 q 457 8 475 -9 q 439 54 439 25 q 443 102 439 75 l 440 102 q 232 -17 351 -17 q 104 38 149 -17 q 58 200 58 92 m 526 507 q 463 575 496 550 q 380 600 431 600 q 238 536 298 600 q 148 379 178 473 q 117 197 117 285 q 152 68 117 102 q 244 33 186 33 q 386 94 319 33 q 471 240 452 154 l 526 507 m 260 956 l 261 974 l 307 974 l 305 957 q 332 882 305 909 q 414 854 359 854 q 521 883 479 854 q 586 974 564 911 l 633 974 q 554 845 610 889 q 412 800 498 800 q 293 847 326 800 q 260 956 260 893 z "},"Ą":{"ha":808,"x_min":-14,"x_max":696,"o":"m 564 -278 q 627 -268 587 -278 l 648 -262 l 632 -318 q 553 -332 600 -332 q 453 -302 489 -332 q 418 -221 418 -272 q 477 -77 418 -144 q 632 26 536 -9 l 574 322 l 229 322 l 50 0 l -14 0 l 486 907 l 522 907 l 696 0 q 604 -42 657 -10 q 513 -117 551 -74 q 475 -204 475 -161 q 499 -260 475 -242 q 564 -278 524 -278 m 562 376 l 485 800 l 484 800 q 371 582 456 735 l 256 376 l 562 376 z "},"ą":{"ha":663,"x_min":58,"x_max":610,"o":"m 297 -221 q 346 -94 297 -149 q 465 -1 394 -39 q 436 56 436 13 q 440 92 436 71 l 437 92 q 341 7 396 32 q 232 -17 286 -17 q 104 38 149 -17 q 58 200 58 92 q 96 404 58 300 q 207 579 133 509 q 386 650 281 650 q 473 629 441 650 q 530 568 505 608 l 533 568 l 571 633 l 610 633 l 497 103 q 492 62 492 75 q 526 39 492 39 q 568 41 551 39 l 555 -4 q 473 -46 522 -15 q 387 -119 424 -77 q 350 -204 350 -161 q 375 -262 350 -243 q 439 -281 399 -281 q 500 -269 459 -281 l 524 -262 l 507 -318 q 428 -332 475 -332 q 331 -302 365 -332 q 297 -221 297 -272 m 526 507 q 454 581 488 561 q 376 600 419 600 q 237 536 296 600 q 147 379 178 473 q 117 197 117 285 q 150 68 117 104 q 232 33 183 33 q 386 104 311 33 q 479 265 461 175 l 526 507 z "},"Ć":{"ha":762,"x_min":92,"x_max":772,"o":"m 92 350 q 131 561 92 450 q 237 754 170 673 q 396 880 305 836 q 606 925 486 925 q 703 918 655 925 q 772 899 750 910 l 758 843 q 687 862 732 855 q 602 869 642 869 q 375 795 477 869 q 215 601 273 722 q 157 349 157 481 q 201 168 157 237 q 314 68 246 98 q 454 39 382 39 q 549 48 502 39 q 627 72 596 58 l 614 11 q 453 -17 546 -17 q 189 82 286 -17 q 92 350 92 180 m 555 956 l 690 1124 l 772 1124 l 623 956 l 555 956 z "},"ć":{"ha":553,"x_min":58,"x_max":570,"o":"m 58 225 q 94 420 58 322 q 204 584 130 519 q 386 650 279 650 q 543 614 473 650 l 532 568 q 461 591 503 582 q 383 600 420 600 q 234 539 294 600 q 145 393 174 479 q 117 231 117 307 q 162 79 117 124 q 293 33 208 33 q 383 45 341 33 q 443 69 425 57 l 432 21 q 369 -6 411 5 q 288 -17 327 -17 q 121 42 184 -17 q 58 225 58 101 m 364 762 l 493 999 l 570 999 l 416 762 l 364 762 z "},"Ċ":{"ha":762,"x_min":92,"x_max":772,"o":"m 92 350 q 131 561 92 450 q 237 754 170 673 q 396 880 305 836 q 606 925 486 925 q 703 918 655 925 q 772 899 750 910 l 758 843 q 687 862 732 855 q 602 869 642 869 q 375 795 477 869 q 215 601 273 722 q 157 349 157 481 q 201 168 157 237 q 314 68 246 98 q 454 39 382 39 q 549 48 502 39 q 627 72 596 58 l 614 11 q 453 -17 546 -17 q 189 82 286 -17 q 92 350 92 180 m 545 982 l 561 1064 l 632 1064 l 615 982 l 545 982 z "},"ċ":{"ha":553,"x_min":58,"x_max":543,"o":"m 58 225 q 94 420 58 322 q 204 584 130 519 q 386 650 279 650 q 543 614 473 650 l 532 568 q 461 591 503 582 q 383 600 420 600 q 234 539 294 600 q 145 393 174 479 q 117 231 117 307 q 162 79 117 124 q 293 33 208 33 q 383 45 341 33 q 443 69 425 57 l 432 21 q 369 -6 411 5 q 288 -17 327 -17 q 121 42 184 -17 q 58 225 58 101 m 371 777 l 387 844 l 458 844 l 441 777 l 371 777 z "},"Č":{"ha":762,"x_min":92,"x_max":806,"o":"m 92 350 q 131 561 92 450 q 237 754 170 673 q 396 880 305 836 q 606 925 486 925 q 703 918 655 925 q 772 899 750 910 l 758 843 q 687 862 732 855 q 602 869 642 869 q 375 795 477 869 q 215 601 273 722 q 157 349 157 481 q 201 168 157 237 q 314 68 246 98 q 454 39 382 39 q 549 48 502 39 q 627 72 596 58 l 614 11 q 453 -17 546 -17 q 189 82 286 -17 q 92 350 92 180 m 806 1124 l 621 956 l 558 956 l 436 1124 l 500 1124 l 593 1006 l 595 1006 l 732 1124 l 806 1124 z "},"č":{"ha":553,"x_min":58,"x_max":616,"o":"m 58 225 q 94 420 58 322 q 204 584 130 519 q 386 650 279 650 q 543 614 473 650 l 532 568 q 461 591 503 582 q 383 600 420 600 q 234 539 294 600 q 145 393 174 479 q 117 231 117 307 q 162 79 117 124 q 293 33 208 33 q 383 45 341 33 q 443 69 425 57 l 432 21 q 369 -6 411 5 q 288 -17 327 -17 q 121 42 184 -17 q 58 225 58 101 m 616 999 l 426 762 l 369 762 l 273 999 l 329 999 l 404 811 l 407 811 l 555 999 l 616 999 z "},"Ď":{"ha":869,"x_min":61,"x_max":818,"o":"m 248 907 l 439 907 q 653 866 570 907 q 777 747 736 825 q 818 554 818 668 q 752 270 818 396 q 567 72 687 144 q 290 0 447 0 l 61 0 l 248 907 m 283 54 q 536 123 430 54 q 699 306 643 191 q 754 554 754 420 q 715 730 754 667 q 609 823 677 793 q 443 852 542 852 l 296 852 l 134 54 l 283 54 m 715 1124 l 529 956 l 467 956 l 345 1124 l 408 1124 l 501 1006 l 504 1006 l 640 1124 l 715 1124 z "},"ď":{"ha":672,"x_min":58,"x_max":913,"o":"m 58 200 q 103 425 58 317 q 223 591 147 532 q 393 650 298 650 q 550 568 504 650 l 553 568 l 639 982 l 694 982 l 511 103 q 505 64 505 73 q 514 44 505 50 q 547 39 524 39 q 582 43 564 39 l 570 -4 q 522 -9 553 -9 q 468 5 485 -9 q 452 60 452 20 l 454 94 l 452 94 q 345 7 402 31 q 235 -17 288 -17 q 58 200 58 -17 m 541 510 q 474 575 512 549 q 380 600 436 600 q 235 535 294 600 q 146 378 175 471 q 117 203 117 286 q 153 70 117 106 q 241 33 190 33 q 400 104 323 33 q 493 265 477 176 l 541 510 m 831 889 q 819 914 831 909 q 783 920 806 920 l 795 982 q 809 985 796 985 q 882 966 850 985 q 913 914 913 947 q 893 834 913 876 q 829 739 874 793 l 749 739 q 831 889 831 833 z "},"Đ":{"ha":872,"x_min":60,"x_max":818,"o":"m 818 554 q 752 270 818 396 q 567 72 687 144 q 290 0 447 0 l 61 0 l 150 436 l 60 436 l 73 490 l 161 490 l 248 907 l 439 907 q 653 866 570 907 q 777 747 736 825 q 818 554 818 668 m 751 554 q 676 779 751 705 q 443 852 600 852 l 296 852 l 222 490 l 485 490 l 471 436 l 211 436 l 134 54 l 283 54 q 536 123 430 54 q 696 305 642 191 q 751 554 751 419 z "},"đ":{"ha":677,"x_min":58,"x_max":781,"o":"m 58 191 q 102 421 58 315 q 221 588 146 527 q 393 650 296 650 q 493 628 453 650 q 550 568 532 606 l 553 568 l 603 811 l 415 811 l 427 864 l 614 864 l 639 982 l 694 982 l 669 864 l 781 864 l 768 811 l 659 811 l 511 103 q 505 64 505 73 q 514 43 505 48 q 551 39 524 39 q 582 43 564 39 l 570 -4 q 522 -9 553 -9 q 468 5 485 -9 q 452 58 452 19 l 454 94 l 452 94 q 351 7 412 31 q 229 -17 290 -17 q 103 38 147 -17 q 58 191 58 93 m 541 510 q 474 575 512 550 q 378 600 436 600 q 235 536 294 600 q 146 379 176 471 q 117 205 117 287 q 153 70 117 106 q 241 33 189 33 q 400 104 323 33 q 493 265 477 176 l 541 510 z "},"Ē":{"ha":704,"x_min":61,"x_max":724,"o":"m 61 0 l 248 907 l 724 907 l 711 852 l 298 852 l 224 492 l 606 492 l 595 437 l 211 437 l 134 54 l 572 54 l 558 0 l 61 0 m 321 996 l 334 1050 l 689 1050 l 676 996 l 321 996 z "},"ē":{"ha":596,"x_min":57,"x_max":571,"o":"m 57 232 q 97 430 57 334 q 212 588 137 527 q 385 650 286 650 q 513 608 465 650 q 562 496 562 566 q 459 356 562 404 q 148 300 357 309 l 117 298 q 110 241 110 269 q 159 84 110 135 q 311 33 209 33 q 471 69 382 33 l 463 21 q 301 -17 393 -17 q 117 50 176 -17 q 57 232 57 117 m 507 497 q 473 570 507 541 q 389 600 439 600 q 222 530 288 600 q 126 349 157 459 q 423 394 338 357 q 507 497 507 430 m 204 799 l 215 852 l 571 852 l 559 799 l 204 799 z "},"Ė":{"ha":704,"x_min":61,"x_max":724,"o":"m 61 0 l 248 907 l 724 907 l 711 852 l 298 852 l 224 492 l 606 492 l 595 437 l 211 437 l 134 54 l 572 54 l 558 0 l 61 0 m 448 982 l 464 1064 l 535 1064 l 518 982 l 448 982 z "},"ė":{"ha":596,"x_min":57,"x_max":562,"o":"m 57 232 q 97 430 57 334 q 212 588 137 527 q 385 650 286 650 q 513 608 465 650 q 562 496 562 566 q 459 356 562 404 q 148 300 357 309 l 117 298 q 110 241 110 269 q 159 84 110 135 q 311 33 209 33 q 471 69 382 33 l 463 21 q 301 -17 393 -17 q 117 50 176 -17 q 57 232 57 117 m 507 497 q 473 570 507 541 q 389 600 439 600 q 222 530 288 600 q 126 349 157 459 q 423 394 338 357 q 507 497 507 430 m 343 777 l 359 844 l 431 844 l 414 777 l 343 777 z "},"Ę":{"ha":701,"x_min":61,"x_max":724,"o":"m 435 0 l 61 0 l 248 907 l 724 907 l 710 852 l 298 852 l 224 492 l 607 492 l 593 435 l 210 435 l 134 54 l 572 54 l 558 0 q 451 -41 509 -9 q 352 -117 393 -73 q 311 -207 311 -161 q 336 -261 311 -243 q 400 -278 361 -278 q 463 -268 425 -278 l 485 -262 l 468 -318 q 389 -332 437 -332 q 290 -300 326 -332 q 254 -215 254 -269 q 283 -116 254 -158 q 350 -50 313 -75 q 435 -3 387 -26 l 435 0 z "},"ę":{"ha":596,"x_min":58,"x_max":564,"o":"m 155 -221 q 297 -17 155 -102 q 117 52 175 -14 q 58 232 58 119 q 98 430 58 334 q 213 588 138 527 q 386 650 288 650 q 515 609 467 650 q 564 496 564 568 q 465 355 564 399 q 180 301 367 312 l 149 300 l 118 298 q 111 241 111 269 q 161 84 111 135 q 313 33 210 33 q 472 69 383 33 l 464 21 q 277 -89 345 -28 q 208 -204 208 -149 q 233 -262 208 -243 q 297 -281 258 -281 q 358 -269 317 -281 l 382 -262 l 366 -318 q 286 -332 333 -332 q 189 -302 223 -332 q 155 -221 155 -272 m 509 497 q 475 570 509 541 q 390 600 441 600 q 223 531 290 600 q 127 351 157 461 q 328 369 246 356 q 459 412 409 381 q 509 497 509 443 z "},"Ě":{"ha":704,"x_min":61,"x_max":724,"o":"m 61 0 l 248 907 l 724 907 l 711 852 l 298 852 l 224 492 l 606 492 l 595 437 l 211 437 l 134 54 l 572 54 l 558 0 l 61 0 m 704 1124 l 518 956 l 456 956 l 334 1124 l 397 1124 l 490 1006 l 493 1006 l 629 1124 l 704 1124 z "},"ě":{"ha":596,"x_min":57,"x_max":606,"o":"m 57 232 q 97 430 57 334 q 212 588 137 527 q 385 650 286 650 q 513 608 465 650 q 562 496 562 566 q 459 356 562 404 q 148 300 357 309 l 117 298 q 110 241 110 269 q 159 84 110 135 q 311 33 209 33 q 471 69 382 33 l 463 21 q 301 -17 393 -17 q 117 50 176 -17 q 57 232 57 117 m 507 497 q 473 570 507 541 q 389 600 439 600 q 222 530 288 600 q 126 349 157 459 q 423 394 338 357 q 507 497 507 430 m 606 999 l 415 762 l 358 762 l 262 999 l 318 999 l 393 811 l 396 811 l 545 999 l 606 999 z "},"Ğ":{"ha":924,"x_min":104,"x_max":863,"o":"m 104 342 q 157 602 104 467 q 331 830 210 736 q 643 925 452 925 q 769 915 706 925 q 863 892 833 905 l 851 838 q 763 860 817 851 q 652 869 709 869 q 401 804 506 869 q 234 610 297 739 q 171 347 171 481 q 249 120 171 202 q 464 39 326 39 q 644 97 575 39 q 739 278 712 156 l 764 392 l 554 392 l 567 449 l 835 449 l 794 262 q 675 48 762 114 q 463 -17 587 -17 q 282 22 363 -17 q 153 141 201 60 q 104 342 104 222 m 406 1103 l 406 1116 l 407 1125 l 448 1125 l 448 1109 q 476 1041 448 1067 q 568 1014 505 1014 q 670 1039 625 1014 q 735 1125 715 1064 l 785 1125 q 702 999 761 1039 q 563 960 643 960 q 477 977 511 960 q 426 1023 444 994 q 406 1103 408 1053 z "},"ğ":{"ha":672,"x_min":-16,"x_max":632,"o":"m -16 -300 l -7 -244 q 155 -275 73 -275 q 348 -215 283 -275 q 447 5 413 -154 l 468 98 l 465 98 q 358 7 415 32 q 250 -17 301 -17 q 114 38 161 -17 q 68 191 68 93 q 110 408 68 302 q 230 582 153 514 q 408 650 308 650 q 557 568 509 650 l 559 568 l 595 633 l 632 633 l 494 -40 q 372 -265 463 -199 q 155 -332 281 -332 q 73 -324 109 -332 q -16 -300 37 -316 m 549 507 q 483 574 519 549 q 393 600 447 600 q 253 534 314 600 q 160 374 193 468 q 127 205 127 281 q 252 33 127 33 q 355 64 301 33 q 449 146 410 96 q 500 253 489 197 l 549 507 m 250 956 l 252 974 l 297 974 l 296 957 q 322 882 296 909 q 404 854 349 854 q 512 883 469 854 q 576 974 554 911 l 623 974 q 545 845 600 889 q 403 800 489 800 q 283 847 317 800 q 250 956 250 893 z "},"Ġ":{"ha":924,"x_min":104,"x_max":863,"o":"m 104 342 q 157 602 104 467 q 331 830 210 736 q 643 925 452 925 q 769 915 706 925 q 863 892 833 905 l 851 838 q 763 860 817 851 q 652 869 709 869 q 401 804 506 869 q 234 610 297 739 q 171 347 171 481 q 249 120 171 202 q 464 39 326 39 q 644 97 575 39 q 739 278 712 156 l 764 392 l 554 392 l 567 449 l 835 449 l 794 262 q 675 48 762 114 q 463 -17 587 -17 q 282 22 363 -17 q 153 141 201 60 q 104 342 104 222 m 542 982 l 558 1064 l 629 1064 l 612 982 l 542 982 z "},"ġ":{"ha":672,"x_min":-16,"x_max":632,"o":"m -16 -300 l -7 -244 q 155 -275 73 -275 q 348 -215 283 -275 q 447 5 413 -154 l 468 98 l 465 98 q 358 7 415 32 q 250 -17 301 -17 q 114 38 161 -17 q 68 191 68 93 q 110 408 68 302 q 230 582 153 514 q 408 650 308 650 q 557 568 509 650 l 559 568 l 595 633 l 632 633 l 494 -40 q 372 -265 463 -199 q 155 -332 281 -332 q 73 -324 109 -332 q -16 -300 37 -316 m 549 507 q 483 574 519 549 q 393 600 447 600 q 253 534 314 600 q 160 374 193 468 q 127 205 127 281 q 252 33 127 33 q 355 64 301 33 q 449 146 410 96 q 500 253 489 197 l 549 507 m 347 777 l 363 844 l 435 844 l 418 777 l 347 777 z "},"Ģ":{"ha":924,"x_min":104,"x_max":863,"o":"m 104 342 q 157 602 104 467 q 331 830 210 736 q 643 925 452 925 q 769 915 706 925 q 863 892 833 905 l 851 838 q 763 860 817 851 q 652 869 709 869 q 401 804 506 869 q 234 610 297 739 q 171 347 171 481 q 249 120 171 202 q 464 39 326 39 q 644 97 575 39 q 739 278 712 156 l 764 392 l 554 392 l 567 449 l 835 449 l 794 262 q 675 48 762 114 q 463 -17 587 -17 q 282 22 363 -17 q 153 141 201 60 q 104 342 104 222 m 449 -180 q 389 -138 449 -138 l 399 -92 q 414 -89 400 -89 q 477 -108 453 -89 q 501 -164 501 -127 q 481 -244 501 -198 q 416 -332 461 -291 l 358 -332 q 427 -247 405 -281 q 449 -180 449 -212 z "},"ģ":{"ha":0,"x_min":-16,"x_max":632,"o":"m 427 851 q 486 808 427 808 l 477 762 q 461 760 475 760 q 398 779 422 760 q 374 835 374 798 q 394 915 374 868 q 458 1003 414 962 l 517 1003 q 449 918 471 954 q 427 851 427 883 m -16 -300 l -7 -244 q 155 -275 73 -275 q 348 -215 283 -275 q 447 5 413 -154 l 468 98 l 465 98 q 358 7 415 32 q 250 -17 301 -17 q 114 38 161 -17 q 68 191 68 93 q 110 408 68 302 q 230 582 153 514 q 408 650 308 650 q 557 568 509 650 l 559 568 l 595 633 l 632 633 l 494 -40 q 372 -265 463 -199 q 155 -332 281 -332 q 73 -324 109 -332 q -16 -300 37 -316 m 549 507 q 483 574 519 549 q 393 600 447 600 q 253 534 314 600 q 160 374 193 468 q 127 205 127 281 q 252 33 127 33 q 355 64 301 33 q 449 146 410 96 q 500 253 489 197 l 549 507 z "},"Ħ":{"ha":895,"x_min":61,"x_max":930,"o":"m 61 0 l 195 656 l 97 656 l 110 710 l 207 710 l 248 907 l 310 907 l 269 710 l 772 710 l 815 907 l 876 907 l 835 710 l 930 710 l 918 656 l 823 656 l 688 0 l 625 0 l 718 440 l 212 440 l 121 0 l 61 0 m 221 494 l 729 494 l 764 656 l 254 656 l 221 494 z "},"ħ":{"ha":699,"x_min":49,"x_max":621,"o":"m 621 507 q 604 387 621 459 l 524 0 l 469 0 l 551 395 q 564 497 564 457 q 530 577 564 555 q 436 600 497 600 q 323 572 376 600 q 234 495 270 543 q 186 395 197 446 l 103 0 l 49 0 l 216 811 l 104 811 l 117 864 l 228 864 l 253 982 l 307 982 l 282 864 l 467 864 l 456 811 l 271 811 l 235 640 q 207 532 228 604 l 210 532 q 452 650 307 650 q 577 613 534 650 q 621 507 621 577 z "},"Ī":{"ha":323,"x_min":61,"x_max":474,"o":"m 61 0 l 248 907 l 310 907 l 121 0 l 61 0 m 106 996 l 119 1050 l 474 1050 l 461 996 l 106 996 z "},"ī":{"ha":256,"x_min":41,"x_max":413,"o":"m 41 0 l 171 633 l 227 633 l 96 0 l 41 0 m 46 799 l 57 852 l 413 852 l 401 799 l 46 799 z "},"Į":{"ha":339,"x_min":-78,"x_max":310,"o":"m -21 -204 q 4 -260 -21 -242 q 68 -278 28 -278 q 131 -268 92 -278 l 153 -262 l 136 -318 q 57 -332 104 -332 q -42 -302 -7 -332 q -78 -221 -78 -272 q -51 -114 -78 -162 q 1 -41 -24 -66 q 64 14 26 -17 l 248 907 l 310 907 l 121 0 q 82 -33 118 -3 q 12 -113 45 -63 q -21 -204 -21 -162 z "},"į":{"ha":256,"x_min":-94,"x_max":271,"o":"m 201 782 l 215 844 l 271 844 l 257 782 l 201 782 m -40 -204 q -17 -261 -40 -242 q 35 -281 5 -281 q 96 -269 55 -281 l 119 -262 l 103 -318 q 24 -332 71 -332 q -62 -301 -31 -332 q -94 -221 -94 -271 q -68 -114 -94 -162 q -16 -40 -41 -66 q 45 14 10 -15 l 171 633 l 227 633 l 96 0 q 2 -90 45 -38 q -40 -204 -40 -142 z "},"İ":{"ha":323,"x_min":61,"x_max":338,"o":"m 61 0 l 248 907 l 310 907 l 121 0 l 61 0 m 250 982 l 267 1064 l 338 1064 l 321 982 l 250 982 z "},"ı":{"ha":256,"x_min":41,"x_max":227,"o":"m 41 0 l 171 633 l 227 633 l 96 0 l 41 0 z "},"Ķ":{"ha":739,"x_min":61,"x_max":827,"o":"m 827 907 l 289 441 l 657 0 l 585 0 l 212 443 l 119 0 l 61 0 l 248 907 l 309 907 l 212 446 l 749 907 l 827 907 m 347 -180 q 287 -138 347 -138 l 297 -92 q 312 -89 298 -89 q 375 -108 351 -89 q 399 -164 399 -127 q 379 -244 399 -198 q 315 -332 359 -291 l 256 -332 q 325 -247 303 -281 q 347 -180 347 -212 z "},"ķ":{"ha":555,"x_min":49,"x_max":586,"o":"m 490 39 l 498 39 l 489 -12 l 472 -14 q 365 36 410 -14 q 282 168 321 85 q 226 282 250 239 q 174 347 201 326 l 103 0 l 49 0 l 253 982 l 307 982 l 175 354 l 501 633 l 586 633 l 239 346 q 275 308 260 334 q 312 232 290 282 q 398 82 359 126 q 490 39 437 39 m 213 -180 q 153 -138 213 -138 l 163 -92 q 178 -89 164 -89 q 241 -108 217 -89 q 265 -164 265 -127 q 245 -244 265 -198 q 180 -332 225 -291 l 122 -332 q 191 -247 169 -281 q 213 -180 213 -212 z "},"Ĺ":{"ha":640,"x_min":61,"x_max":571,"o":"m 61 0 l 248 907 l 309 907 l 134 54 l 571 54 l 557 0 l 61 0 m 250 956 l 385 1124 l 467 1124 l 317 956 l 250 956 z "},"ĺ":{"ha":293,"x_min":71,"x_max":490,"o":"m 71 56 q 75 92 71 73 l 262 982 l 317 982 l 135 118 l 127 69 q 135 45 127 52 q 164 39 143 39 l 207 41 l 196 -4 q 154 -9 173 -9 q 91 5 112 -9 q 71 56 71 20 m 273 1031 l 408 1199 l 490 1199 l 340 1031 l 273 1031 z "},"Ļ":{"ha":640,"x_min":61,"x_max":571,"o":"m 61 0 l 248 907 l 309 907 l 134 54 l 571 54 l 557 0 l 61 0 m 317 -180 q 256 -138 317 -138 l 267 -92 q 281 -89 268 -89 q 345 -108 321 -89 q 369 -164 369 -127 q 349 -244 369 -198 q 284 -332 329 -291 l 226 -332 q 295 -247 273 -281 q 317 -180 317 -212 z "},"ļ":{"ha":293,"x_min":9,"x_max":317,"o":"m 71 56 q 75 92 71 73 l 262 982 l 317 982 l 135 118 l 127 69 q 135 45 127 52 q 164 39 143 39 l 207 41 l 196 -4 q 154 -9 173 -9 q 91 5 112 -9 q 71 56 71 20 m 100 -180 q 40 -138 100 -138 l 50 -92 q 65 -89 52 -89 q 129 -108 104 -89 q 153 -164 153 -127 q 133 -244 153 -198 q 68 -332 113 -291 l 9 -332 q 78 -247 56 -281 q 100 -180 100 -212 z "},"Ľ":{"ha":640,"x_min":61,"x_max":571,"o":"m 61 0 l 248 907 l 309 907 l 134 54 l 571 54 l 557 0 l 61 0 m 506 825 q 446 868 506 868 l 456 914 q 471 917 457 917 q 534 898 510 917 q 558 842 558 879 q 538 761 558 808 q 473 674 518 715 l 415 674 q 484 759 462 724 q 506 825 506 793 z "},"ľ":{"ha":357,"x_min":71,"x_max":497,"o":"m 71 56 q 75 92 71 73 l 262 982 l 317 982 l 135 118 l 127 69 q 135 45 127 52 q 164 39 143 39 l 207 41 l 196 -4 q 154 -9 173 -9 q 91 5 112 -9 q 71 56 71 20 m 445 895 q 385 937 445 937 l 395 983 q 410 986 396 986 q 473 967 449 986 q 497 911 497 948 q 477 830 497 877 q 412 743 457 784 l 354 743 q 423 828 401 793 q 445 895 445 863 z "},"Ł":{"ha":642,"x_min":43,"x_max":572,"o":"m 64 0 l 147 411 l 43 375 l 56 435 l 160 472 l 249 907 l 310 907 l 225 496 l 503 599 l 490 541 l 212 436 l 135 54 l 572 54 l 558 0 l 64 0 z "},"ł":{"ha":321,"x_min":32,"x_max":389,"o":"m 71 56 q 75 92 71 73 l 161 501 l 32 435 l 46 498 l 175 566 l 262 982 l 317 982 l 236 597 l 389 676 l 376 611 l 222 532 l 135 118 l 127 69 q 135 45 127 52 q 164 39 143 39 l 207 41 l 196 -4 q 154 -9 173 -9 q 91 5 112 -9 q 71 56 71 20 z "},"Ń":{"ha":911,"x_min":61,"x_max":900,"o":"m 248 907 l 300 907 l 631 189 l 675 92 l 676 92 q 713 292 707 266 l 839 907 l 900 907 l 710 0 l 659 0 l 361 643 q 283 817 300 772 l 282 817 l 269 739 l 248 616 l 122 0 l 61 0 l 248 907 m 534 956 l 669 1124 l 751 1124 l 602 956 l 534 956 z "},"ń":{"ha":693,"x_min":43,"x_max":614,"o":"m 175 633 l 215 633 l 214 541 l 216 541 q 323 624 266 598 q 453 650 380 650 q 572 613 530 650 q 614 507 614 576 q 608 442 614 478 q 517 0 602 406 l 464 0 l 546 400 q 558 497 558 458 q 524 577 558 555 q 429 600 490 600 q 220 486 307 600 q 176 380 187 444 l 97 0 l 43 0 l 175 633 m 376 762 l 505 999 l 582 999 l 428 762 l 376 762 z "},"Ņ":{"ha":911,"x_min":61,"x_max":900,"o":"m 248 907 l 300 907 l 631 189 l 675 92 l 676 92 q 713 292 707 266 l 839 907 l 900 907 l 710 0 l 659 0 l 361 643 q 283 817 300 772 l 282 817 l 269 739 l 248 616 l 122 0 l 61 0 l 248 907 m 371 -180 q 311 -138 371 -138 l 321 -92 q 336 -89 322 -89 q 399 -108 375 -89 q 423 -164 423 -127 q 403 -244 423 -198 q 338 -332 383 -291 l 280 -332 q 349 -247 327 -281 q 371 -180 371 -212 z "},"ņ":{"ha":693,"x_min":43,"x_max":614,"o":"m 175 633 l 215 633 l 214 541 l 216 541 q 323 624 266 598 q 453 650 380 650 q 572 613 530 650 q 614 507 614 576 q 608 442 614 478 q 517 0 602 406 l 464 0 l 546 400 q 558 497 558 458 q 524 577 558 555 q 429 600 490 600 q 220 486 307 600 q 176 380 187 444 l 97 0 l 43 0 l 175 633 m 264 -180 q 204 -138 264 -138 l 214 -92 q 229 -89 216 -89 q 293 -108 269 -89 q 317 -164 317 -127 q 297 -244 317 -198 q 232 -332 277 -291 l 174 -332 q 242 -247 220 -281 q 264 -180 264 -212 z "},"Ň":{"ha":911,"x_min":61,"x_max":900,"o":"m 248 907 l 300 907 l 631 189 l 675 92 l 676 92 q 713 292 707 266 l 839 907 l 900 907 l 710 0 l 659 0 l 361 643 q 283 817 300 772 l 282 817 l 269 739 l 248 616 l 122 0 l 61 0 l 248 907 m 782 1124 l 596 956 l 534 956 l 412 1124 l 475 1124 l 568 1006 l 571 1006 l 707 1124 l 782 1124 z "},"ň":{"ha":693,"x_min":43,"x_max":614,"o":"m 175 633 l 215 633 l 214 541 l 216 541 q 323 624 266 598 q 453 650 380 650 q 572 613 530 650 q 614 507 614 576 q 608 442 614 478 q 517 0 602 406 l 464 0 l 546 400 q 558 497 558 458 q 524 577 558 555 q 429 600 490 600 q 220 486 307 600 q 176 380 187 444 l 97 0 l 43 0 l 175 633 m 597 999 l 407 762 l 350 762 l 254 999 l 310 999 l 385 811 l 388 811 l 536 999 l 597 999 z "},"Ŋ":{"ha":911,"x_min":61,"x_max":900,"o":"m 475 -277 q 408 -269 442 -277 l 416 -215 q 471 -220 440 -220 q 563 -202 530 -220 q 614 -148 596 -185 q 647 -39 632 -111 l 656 4 l 361 643 q 283 817 300 772 l 282 817 l 269 739 l 248 616 l 122 0 l 61 0 l 248 907 l 300 907 l 631 189 l 675 92 l 676 92 q 713 292 707 266 l 839 907 l 900 907 l 694 -82 q 655 -190 680 -149 q 586 -254 631 -231 q 475 -277 542 -277 z "},"ŋ":{"ha":693,"x_min":43,"x_max":614,"o":"m 288 -258 q 221 -252 250 -258 l 229 -197 q 283 -201 254 -201 q 377 -185 344 -201 q 428 -132 410 -170 q 460 -21 446 -94 l 546 400 q 558 497 558 458 q 524 577 558 555 q 429 600 490 600 q 220 486 307 600 q 176 380 187 444 l 97 0 l 43 0 l 175 633 l 215 633 l 214 541 l 216 541 q 323 624 266 598 q 453 650 380 650 q 572 613 530 650 q 614 507 614 576 q 597 387 614 471 l 507 -64 q 467 -175 494 -134 q 396 -237 439 -216 q 288 -258 353 -258 z "},"Ō":{"ha":961,"x_min":104,"x_max":904,"o":"m 104 325 q 160 602 104 463 q 326 833 216 741 q 590 925 436 925 q 822 835 741 925 q 904 581 904 745 q 849 306 904 445 q 686 75 795 168 q 421 -17 576 -17 q 187 73 269 -17 q 104 325 104 162 m 842 587 q 778 797 842 725 q 593 869 713 869 q 361 783 458 869 q 217 568 265 696 q 168 319 168 440 q 233 112 168 185 q 418 39 298 39 q 649 124 553 39 q 793 338 745 210 q 842 587 842 466 m 406 996 l 418 1050 l 774 1050 l 761 996 l 406 996 z "},"ō":{"ha":656,"x_min":58,"x_max":608,"o":"m 58 228 q 92 397 58 298 q 199 573 125 497 q 389 650 273 650 q 544 582 491 650 q 596 392 596 514 q 563 224 596 321 q 454 56 530 128 q 262 -17 379 -17 q 114 50 169 -17 q 58 228 58 116 m 538 395 q 501 541 538 481 q 386 600 465 600 q 242 539 303 600 q 149 391 180 479 q 117 225 117 303 q 157 85 117 138 q 264 33 197 33 q 410 90 348 33 q 505 231 473 146 q 538 395 538 315 m 241 799 l 252 852 l 608 852 l 597 799 l 241 799 z "},"Ő":{"ha":961,"x_min":104,"x_max":904,"o":"m 104 325 q 160 602 104 463 q 326 833 216 741 q 590 925 436 925 q 822 835 741 925 q 904 581 904 745 q 849 306 904 445 q 686 75 795 168 q 421 -17 576 -17 q 187 73 269 -17 q 104 325 104 162 m 842 587 q 778 797 842 725 q 593 869 713 869 q 361 783 458 869 q 217 568 265 696 q 168 319 168 440 q 233 112 168 185 q 418 39 298 39 q 649 124 553 39 q 793 338 745 210 q 842 587 842 466 m 433 956 l 568 1124 l 650 1124 l 500 956 l 433 956 m 612 956 l 747 1124 l 829 1124 l 680 956 l 612 956 z "},"ő":{"ha":656,"x_min":58,"x_max":682,"o":"m 58 228 q 92 397 58 298 q 199 573 125 497 q 389 650 273 650 q 544 582 491 650 q 596 392 596 514 q 563 224 596 321 q 454 56 530 128 q 262 -17 379 -17 q 114 50 169 -17 q 58 228 58 116 m 538 395 q 501 541 538 481 q 386 600 465 600 q 242 539 303 600 q 149 391 180 479 q 117 225 117 303 q 157 85 117 138 q 264 33 197 33 q 410 90 348 33 q 505 231 473 146 q 538 395 538 315 m 285 762 l 414 999 l 490 999 l 336 762 l 285 762 m 477 762 l 606 999 l 682 999 l 528 762 l 477 762 z "},"Œ":{"ha":1371,"x_min":103,"x_max":1390,"o":"m 103 321 q 163 616 103 477 q 333 840 224 755 q 583 925 443 925 q 882 758 814 925 l 885 758 l 914 907 l 1390 907 l 1378 852 l 965 852 l 890 492 l 1272 492 l 1261 437 l 878 437 l 800 54 l 1239 54 l 1225 0 l 728 0 l 757 146 l 754 146 q 421 -17 619 -17 q 188 73 273 -17 q 103 321 103 163 m 840 587 q 779 799 840 728 q 585 869 718 869 q 361 783 456 869 q 217 567 267 696 q 167 319 167 439 q 232 111 167 182 q 427 39 297 39 q 649 125 555 39 q 791 339 743 212 q 840 587 840 467 z "},"œ":{"ha":1068,"x_min":58,"x_max":1031,"o":"m 58 228 q 92 397 58 298 q 199 573 125 497 q 389 650 273 650 q 521 605 471 650 q 587 478 572 560 q 699 603 631 557 q 852 650 766 650 q 982 609 934 650 q 1031 496 1031 568 q 976 383 1031 425 q 808 320 920 340 q 616 300 696 300 l 585 298 q 578 241 578 269 q 627 84 578 135 q 779 33 677 33 q 939 69 850 33 l 930 21 q 770 -17 861 -17 q 608 29 667 -17 q 532 157 549 75 q 423 31 490 79 q 262 -17 356 -17 q 114 50 169 -17 q 58 228 58 116 m 538 395 q 501 541 538 481 q 386 600 465 600 q 242 539 303 600 q 149 391 180 479 q 117 225 117 303 q 157 85 117 138 q 264 33 197 33 q 410 90 348 33 q 505 231 473 146 q 538 395 538 315 m 975 497 q 942 570 975 540 q 857 600 908 600 q 690 531 756 600 q 595 351 625 461 q 794 369 713 356 q 925 412 876 381 q 975 497 975 443 z "},"Ŕ":{"ha":787,"x_min":61,"x_max":757,"o":"m 248 907 l 479 907 q 685 849 613 907 q 757 692 757 791 q 676 503 757 578 q 452 407 595 428 l 452 404 l 665 0 l 595 0 l 383 403 l 203 403 l 121 0 l 61 0 l 248 907 m 354 457 q 516 476 438 457 q 644 550 595 495 q 693 689 693 604 q 664 779 693 739 q 588 836 635 819 q 481 852 541 852 l 294 852 l 215 457 l 354 457 m 408 956 l 543 1124 l 625 1124 l 475 956 l 408 956 z "},"ŕ":{"ha":392,"x_min":41,"x_max":479,"o":"m 174 633 l 215 633 l 212 541 l 215 541 q 299 617 246 585 q 412 650 353 650 q 453 646 437 650 l 440 587 q 412 590 429 590 q 298 563 342 590 q 221 490 255 536 q 175 378 188 444 l 97 0 l 41 0 l 174 633 m 274 762 l 403 999 l 479 999 l 326 762 l 274 762 z "},"Ŗ":{"ha":787,"x_min":61,"x_max":757,"o":"m 248 907 l 479 907 q 685 849 613 907 q 757 692 757 791 q 676 503 757 578 q 452 407 595 428 l 452 404 l 665 0 l 595 0 l 383 403 l 203 403 l 121 0 l 61 0 l 248 907 m 354 457 q 516 476 438 457 q 644 550 595 495 q 693 689 693 604 q 664 779 693 739 q 588 836 635 819 q 481 852 541 852 l 294 852 l 215 457 l 354 457 m 338 -180 q 277 -138 338 -138 l 288 -92 q 302 -89 289 -89 q 366 -108 342 -89 q 390 -164 390 -127 q 370 -244 390 -198 q 305 -332 350 -291 l 247 -332 q 316 -247 294 -281 q 338 -180 338 -212 z "},"ŗ":{"ha":392,"x_min":-13,"x_max":453,"o":"m 174 633 l 215 633 l 212 541 l 215 541 q 299 617 246 585 q 412 650 353 650 q 453 646 437 650 l 440 587 q 412 590 429 590 q 298 563 342 590 q 221 490 255 536 q 175 378 188 444 l 97 0 l 41 0 l 174 633 m 78 -180 q 18 -138 78 -138 l 28 -92 q 43 -89 29 -89 q 106 -108 82 -89 q 130 -164 130 -127 q 110 -244 130 -198 q 45 -332 90 -291 l -13 -332 q 56 -247 34 -281 q 78 -180 78 -212 z "},"Ř":{"ha":787,"x_min":61,"x_max":757,"o":"m 248 907 l 479 907 q 685 849 613 907 q 757 692 757 791 q 676 503 757 578 q 452 407 595 428 l 452 404 l 665 0 l 595 0 l 383 403 l 203 403 l 121 0 l 61 0 l 248 907 m 354 457 q 516 476 438 457 q 644 550 595 495 q 693 689 693 604 q 664 779 693 739 q 588 836 635 819 q 481 852 541 852 l 294 852 l 215 457 l 354 457 m 682 1124 l 496 956 l 433 956 l 311 1124 l 375 1124 l 468 1006 l 471 1006 l 607 1124 l 682 1124 z "},"ř":{"ha":392,"x_min":41,"x_max":534,"o":"m 174 633 l 215 633 l 212 541 l 215 541 q 299 617 246 585 q 412 650 353 650 q 453 646 437 650 l 440 587 q 412 590 429 590 q 298 563 342 590 q 221 490 255 536 q 175 378 188 444 l 97 0 l 41 0 l 174 633 m 534 999 l 344 762 l 287 762 l 191 999 l 247 999 l 322 811 l 325 811 l 473 999 l 534 999 z "},"Ś":{"ha":742,"x_min":32,"x_max":704,"o":"m 32 43 l 45 97 q 146 54 82 70 q 282 39 211 39 q 492 100 414 39 q 571 262 571 161 q 543 358 571 321 q 476 412 515 394 q 380 446 437 430 q 258 493 307 467 q 182 562 210 519 q 154 671 154 604 q 192 801 154 743 q 302 892 230 859 q 473 925 374 925 q 704 879 602 925 l 692 818 q 597 853 663 837 q 471 869 530 869 q 288 812 358 869 q 218 665 218 755 q 259 572 218 609 q 412 503 299 535 q 530 456 482 483 q 606 383 577 430 q 635 262 635 336 q 537 60 635 136 q 279 -17 439 -17 q 142 -2 210 -17 q 32 43 75 12 m 423 956 l 558 1124 l 640 1124 l 490 956 l 423 956 z "},"ś":{"ha":528,"x_min":21,"x_max":498,"o":"m 21 25 l 33 79 q 192 33 112 33 q 345 81 310 33 q 379 176 379 129 q 361 243 379 218 q 315 282 343 269 q 241 310 287 296 q 169 341 195 327 q 123 384 142 356 q 104 458 104 412 q 162 598 104 546 q 315 650 220 650 q 411 637 363 650 q 486 608 458 625 l 475 558 q 399 589 433 578 q 326 600 364 600 q 207 564 252 600 q 163 467 163 528 q 187 398 163 422 q 257 359 212 374 q 352 326 318 340 q 411 278 385 311 q 436 192 436 246 q 370 33 436 83 q 192 -17 303 -17 q 104 -8 157 -17 q 21 25 52 1 m 293 762 l 422 999 l 498 999 l 345 762 l 293 762 z "},"Ş":{"ha":742,"x_min":32,"x_max":704,"o":"m 218 665 q 258 573 218 610 q 395 510 297 536 q 525 458 475 486 q 605 384 576 431 q 635 262 635 336 q 545 66 635 142 q 302 -17 454 -9 l 268 -94 q 345 -131 317 -102 q 372 -199 372 -161 q 328 -295 372 -258 q 211 -332 283 -332 q 155 -327 185 -332 q 107 -315 125 -322 l 122 -261 q 216 -278 159 -278 q 293 -258 269 -278 q 317 -210 317 -237 q 290 -157 317 -172 q 189 -138 262 -141 l 248 -16 q 32 43 93 -7 l 45 97 q 144 55 81 71 q 269 39 206 39 q 491 97 412 39 q 571 262 571 156 q 542 358 571 322 q 471 414 513 395 q 358 454 429 433 q 200 537 245 486 q 154 671 154 589 q 192 801 154 743 q 302 892 230 859 q 473 925 374 925 q 704 879 603 925 l 692 818 q 597 853 663 837 q 471 869 530 869 q 288 812 358 869 q 218 665 218 755 z "},"ş":{"ha":528,"x_min":20,"x_max":486,"o":"m 20 -315 l 35 -261 q 129 -278 72 -278 q 205 -258 182 -278 q 229 -210 229 -237 q 202 -157 229 -172 q 102 -138 175 -141 l 160 -16 q 21 25 63 -7 l 33 79 q 192 33 112 33 q 345 81 310 33 q 379 176 379 129 q 361 243 379 218 q 315 282 343 269 q 241 310 287 296 q 169 341 195 327 q 123 384 142 356 q 104 458 104 412 q 162 598 104 546 q 315 650 220 650 q 411 637 363 650 q 486 608 458 625 l 475 558 q 399 589 433 578 q 326 600 364 600 q 207 564 252 600 q 163 467 163 528 q 187 398 163 422 q 257 359 212 374 q 352 326 318 340 q 411 278 385 311 q 436 192 436 246 q 215 -17 436 -4 l 180 -94 q 257 -131 229 -102 q 285 -199 285 -161 q 240 -295 285 -258 q 123 -332 196 -332 q 67 -327 98 -332 q 20 -315 37 -322 z "},"Š":{"ha":742,"x_min":32,"x_max":704,"o":"m 32 43 l 45 97 q 146 54 82 70 q 282 39 211 39 q 492 100 414 39 q 571 262 571 161 q 543 358 571 321 q 476 412 515 394 q 380 446 437 430 q 258 493 307 467 q 182 562 210 519 q 154 671 154 604 q 192 801 154 743 q 302 892 230 859 q 473 925 374 925 q 704 879 602 925 l 692 818 q 597 853 663 837 q 471 869 530 869 q 288 812 358 869 q 218 665 218 755 q 259 572 218 609 q 412 503 299 535 q 530 456 482 483 q 606 383 577 430 q 635 262 635 336 q 537 60 635 136 q 279 -17 439 -17 q 142 -2 210 -17 q 32 43 75 12 m 682 1124 l 496 956 l 433 956 l 311 1124 l 375 1124 l 468 1006 l 471 1006 l 607 1124 l 682 1124 z "},"š":{"ha":528,"x_min":21,"x_max":549,"o":"m 21 25 l 33 79 q 192 33 112 33 q 345 81 310 33 q 379 176 379 129 q 361 243 379 218 q 315 282 343 269 q 241 310 287 296 q 169 341 195 327 q 123 384 142 356 q 104 458 104 412 q 162 598 104 546 q 315 650 220 650 q 411 637 363 650 q 486 608 458 625 l 475 558 q 399 589 433 578 q 326 600 364 600 q 207 564 252 600 q 163 467 163 528 q 187 398 163 422 q 257 359 212 374 q 352 326 318 340 q 411 278 385 311 q 436 192 436 246 q 370 33 436 83 q 192 -17 303 -17 q 104 -8 157 -17 q 21 25 52 1 m 549 999 l 358 762 l 301 762 l 205 999 l 261 999 l 336 811 l 339 811 l 488 999 l 549 999 z "},"Ţ":{"ha":656,"x_min":82,"x_max":747,"o":"m 82 -294 l 97 -243 q 192 -264 142 -264 q 263 -243 235 -264 q 292 -192 292 -222 q 263 -145 292 -159 q 170 -127 235 -132 l 225 0 l 218 0 l 395 852 l 117 852 l 131 907 l 747 907 l 734 852 l 454 852 l 281 0 l 277 0 l 243 -86 q 319 -117 292 -90 q 347 -180 347 -143 q 303 -277 347 -240 q 186 -314 259 -314 q 133 -308 163 -314 q 82 -294 103 -302 z "},"ţ":{"ha":432,"x_min":12,"x_max":443,"o":"m 12 -298 l 28 -248 q 122 -268 72 -268 q 195 -247 167 -268 q 222 -196 222 -226 q 194 -149 222 -163 q 100 -132 165 -136 l 160 5 q 111 98 111 34 q 115 147 111 129 l 205 579 l 78 579 l 89 633 l 220 633 l 253 803 l 307 803 l 272 633 l 443 633 l 431 579 l 260 579 l 176 179 q 170 115 170 144 q 193 54 170 71 q 269 36 216 36 q 346 45 315 36 l 334 -9 q 258 -17 298 -17 q 204 -11 224 -17 l 174 -90 q 250 -121 222 -94 q 278 -184 278 -147 q 234 -281 278 -244 q 117 -318 190 -318 q 63 -312 94 -318 q 12 -298 32 -306 z "},"Ť":{"ha":656,"x_min":117,"x_max":747,"o":"m 218 0 l 395 852 l 117 852 l 131 907 l 747 907 l 734 852 l 454 852 l 281 0 l 218 0 m 672 1124 l 486 956 l 424 956 l 302 1124 l 366 1124 l 458 1006 l 461 1006 l 597 1124 l 672 1124 z "},"ť":{"ha":432,"x_min":78,"x_max":566,"o":"m 111 98 q 115 147 111 129 l 205 579 l 78 579 l 89 633 l 220 633 l 253 803 l 307 803 l 272 633 l 443 633 l 431 579 l 260 579 l 176 179 q 170 115 170 144 q 193 54 170 71 q 269 36 216 36 q 346 45 315 36 l 334 -9 q 258 -17 298 -17 q 111 98 111 -17 m 514 893 q 454 936 514 936 l 464 982 q 479 985 465 985 q 542 966 518 985 q 566 909 566 947 q 546 829 566 876 q 481 742 526 783 l 423 742 q 492 827 470 792 q 514 893 514 861 z "},"Ū":{"ha":876,"x_min":103,"x_max":885,"o":"m 103 233 q 115 349 103 290 l 232 907 l 292 907 l 178 353 q 164 240 164 284 q 215 93 164 147 q 374 39 267 39 q 539 78 471 39 q 648 182 607 118 q 708 345 688 245 l 823 907 l 885 907 l 760 309 q 685 132 737 202 q 555 22 632 61 q 379 -17 478 -17 q 176 49 249 -17 q 103 233 103 115 m 387 996 l 400 1050 l 755 1050 l 743 996 l 387 996 z "},"ū":{"ha":659,"x_min":79,"x_max":631,"o":"m 79 154 q 85 224 79 194 l 171 633 l 225 633 l 140 220 q 134 161 134 191 q 170 69 134 104 q 282 33 205 33 q 422 84 372 33 q 492 229 471 136 l 575 633 l 631 633 l 547 235 q 457 40 520 97 q 285 -17 393 -17 q 79 154 79 -17 m 240 799 l 251 852 l 607 852 l 595 799 l 240 799 z "},"Ŭ":{"ha":876,"x_min":103,"x_max":885,"o":"m 103 233 q 115 349 103 290 l 232 907 l 292 907 l 178 353 q 164 240 164 284 q 215 93 164 147 q 374 39 267 39 q 539 78 471 39 q 648 182 607 118 q 708 345 688 245 l 823 907 l 885 907 l 760 309 q 685 132 737 202 q 555 22 632 61 q 379 -17 478 -17 q 176 49 249 -17 q 103 233 103 115 m 403 1103 l 403 1116 l 404 1125 l 445 1125 l 445 1109 q 474 1041 445 1067 q 566 1014 503 1014 q 667 1039 622 1014 q 732 1125 713 1064 l 782 1125 q 699 999 758 1039 q 560 960 640 960 q 475 977 508 960 q 423 1023 441 994 q 403 1103 405 1053 z "},"ŭ":{"ha":659,"x_min":79,"x_max":631,"o":"m 79 154 q 85 224 79 194 l 171 633 l 225 633 l 140 220 q 134 161 134 191 q 170 69 134 104 q 282 33 205 33 q 422 84 372 33 q 492 229 471 136 l 575 633 l 631 633 l 547 235 q 457 40 520 97 q 285 -17 393 -17 q 79 154 79 -17 m 254 956 l 256 974 l 301 974 l 300 957 q 327 882 300 909 q 408 854 353 854 q 516 883 473 854 q 581 974 558 911 l 627 974 q 549 845 604 889 q 407 800 493 800 q 288 847 321 800 q 254 956 254 893 z "},"Ů":{"ha":876,"x_min":103,"x_max":885,"o":"m 103 233 q 115 349 103 290 l 232 907 l 292 907 l 178 353 q 164 240 164 284 q 215 93 164 147 q 374 39 267 39 q 539 78 471 39 q 648 182 607 118 q 708 345 688 245 l 823 907 l 885 907 l 760 309 q 685 132 737 202 q 555 22 632 61 q 379 -17 478 -17 q 176 49 249 -17 q 103 233 103 115 m 439 1036 q 487 1136 439 1095 q 606 1177 535 1177 q 689 1152 656 1177 q 722 1084 722 1127 q 674 985 722 1026 q 556 945 625 945 q 471 970 503 945 q 439 1036 439 995 m 661 1075 q 644 1114 661 1099 q 595 1128 626 1128 q 528 1104 555 1128 q 500 1044 500 1081 q 518 1006 500 1020 q 567 993 536 993 q 634 1015 608 993 q 661 1075 661 1038 z "},"ů":{"ha":659,"x_min":79,"x_max":631,"o":"m 79 154 q 85 224 79 194 l 171 633 l 225 633 l 140 220 q 134 161 134 191 q 170 69 134 104 q 282 33 205 33 q 422 84 372 33 q 492 229 471 136 l 575 633 l 631 633 l 547 235 q 457 40 520 97 q 285 -17 393 -17 q 79 154 79 -17 m 294 859 q 341 957 294 917 q 456 997 388 997 q 538 972 508 997 q 569 904 569 947 q 524 805 569 843 q 407 766 479 766 q 324 791 354 766 q 294 859 294 817 m 516 897 q 497 941 516 925 q 446 957 479 957 q 375 932 404 957 q 347 867 347 907 q 366 823 347 839 q 418 807 385 807 q 489 831 461 807 q 516 897 516 856 z "},"Ű":{"ha":876,"x_min":103,"x_max":885,"o":"m 103 233 q 115 349 103 290 l 232 907 l 292 907 l 178 353 q 164 240 164 284 q 215 93 164 147 q 374 39 267 39 q 539 78 471 39 q 648 182 607 118 q 708 345 688 245 l 823 907 l 885 907 l 760 309 q 685 132 737 202 q 555 22 632 61 q 379 -17 478 -17 q 176 49 249 -17 q 103 233 103 115 m 427 956 l 562 1124 l 644 1124 l 493 956 l 427 956 m 606 956 l 741 1124 l 823 1124 l 673 956 l 606 956 z "},"ű":{"ha":659,"x_min":79,"x_max":696,"o":"m 79 154 q 85 224 79 194 l 171 633 l 225 633 l 140 220 q 134 161 134 191 q 170 69 134 104 q 282 33 205 33 q 422 84 372 33 q 492 229 471 136 l 575 633 l 631 633 l 547 235 q 457 40 520 97 q 285 -17 393 -17 q 79 154 79 -17 m 298 762 l 427 999 l 504 999 l 350 762 l 298 762 m 490 762 l 619 999 l 696 999 l 541 762 l 490 762 z "},"Ų":{"ha":878,"x_min":102,"x_max":886,"o":"m 359 -210 q 397 -101 359 -154 q 509 8 435 -49 q 449 -10 487 -3 q 379 -17 412 -17 q 175 49 248 -17 q 102 233 102 115 q 115 349 102 283 l 232 907 l 292 907 l 178 353 q 164 240 164 284 q 215 93 164 147 q 374 39 267 39 q 549 84 477 39 q 657 197 620 130 q 686 261 675 228 q 708 345 697 295 l 823 907 l 886 907 l 761 309 q 636 66 732 162 l 572 5 q 488 -76 519 -44 q 437 -141 457 -109 q 416 -204 416 -174 q 507 -278 416 -278 q 589 -262 535 -278 l 572 -318 q 501 -332 543 -332 q 359 -210 359 -332 z "},"ų":{"ha":659,"x_min":79,"x_max":631,"o":"m 285 -17 q 79 154 79 -17 q 81 203 79 187 q 171 633 83 219 l 225 633 l 140 220 q 134 161 134 191 q 170 69 134 104 q 282 33 205 33 q 422 84 372 33 q 492 229 471 136 l 575 633 l 631 633 l 547 235 q 506 103 531 151 q 432 4 481 55 l 366 -57 q 310 -109 330 -88 q 277 -153 290 -129 q 264 -204 264 -177 q 354 -281 264 -281 q 372 -280 363 -281 q 436 -262 381 -279 l 419 -318 q 349 -332 391 -332 q 211 -210 211 -332 q 357 -7 211 -104 q 285 -17 323 -17 z "},"Ÿ":{"ha":703,"x_min":140,"x_max":771,"o":"m 268 0 l 346 370 l 140 907 l 201 907 l 380 428 l 701 907 l 771 907 l 406 370 l 328 0 l 268 0 m 310 982 l 326 1064 l 397 1064 l 382 982 l 310 982 m 535 982 l 551 1064 l 623 1064 l 606 982 l 535 982 z "},"Ź":{"ha":746,"x_min":28,"x_max":768,"o":"m 28 0 l 35 39 l 673 852 l 184 852 l 200 907 l 768 907 l 760 868 l 121 54 l 628 54 l 616 0 l 28 0 m 431 956 l 566 1124 l 648 1124 l 498 956 l 431 956 z "},"ź":{"ha":600,"x_min":28,"x_max":562,"o":"m 28 0 l 32 26 l 478 585 l 147 585 l 160 633 l 562 633 l 554 597 l 122 49 l 478 49 l 468 0 l 28 0 m 330 762 l 458 999 l 535 999 l 381 762 l 330 762 z "},"Ż":{"ha":746,"x_min":28,"x_max":768,"o":"m 28 0 l 35 39 l 673 852 l 184 852 l 200 907 l 768 907 l 760 868 l 121 54 l 628 54 l 616 0 l 28 0 m 446 982 l 462 1064 l 533 1064 l 516 982 l 446 982 z "},"ż":{"ha":600,"x_min":28,"x_max":562,"o":"m 28 0 l 32 26 l 478 585 l 147 585 l 160 633 l 562 633 l 554 597 l 122 49 l 478 49 l 468 0 l 28 0 m 334 777 l 350 844 l 421 844 l 404 777 l 334 777 z "},"Ž":{"ha":746,"x_min":28,"x_max":768,"o":"m 28 0 l 35 39 l 673 852 l 184 852 l 200 907 l 768 907 l 760 868 l 121 54 l 628 54 l 616 0 l 28 0 m 693 1124 l 507 956 l 445 956 l 323 1124 l 387 1124 l 479 1006 l 482 1006 l 618 1124 l 693 1124 z "},"ž":{"ha":600,"x_min":28,"x_max":585,"o":"m 28 0 l 32 26 l 478 585 l 147 585 l 160 633 l 562 633 l 554 597 l 122 49 l 478 49 l 468 0 l 28 0 m 585 999 l 394 762 l 337 762 l 241 999 l 297 999 l 372 811 l 375 811 l 524 999 l 585 999 z "},"Ɓ":{"ha":848,"x_min":54,"x_max":782,"o":"m 749 277 q 697 123 749 191 q 557 26 646 55 q 460 5 507 9 q 329 0 414 0 l 110 0 l 288 852 l 279 852 q 118 647 118 852 l 56 647 l 54 681 q 120 846 54 785 q 298 907 186 907 l 475 907 q 697 854 613 907 q 782 692 782 802 q 725 540 782 602 q 574 464 669 478 l 574 461 q 701 405 653 454 q 749 277 749 355 m 273 489 l 479 489 q 585 515 524 489 q 681 586 646 542 q 715 692 715 631 q 650 808 715 764 q 479 852 585 852 l 346 852 l 273 489 m 682 279 q 633 390 682 345 q 488 435 583 435 l 258 435 l 183 54 l 340 54 q 497 70 438 54 q 597 114 557 85 q 660 185 637 142 q 682 279 682 229 z "},"Ɔ":{"ha":761,"x_min":21,"x_max":704,"o":"m 21 22 l 36 78 q 130 46 92 54 q 210 39 168 39 q 420 115 322 39 q 576 315 518 191 q 635 576 635 439 q 555 792 635 714 q 338 869 476 869 q 178 840 268 869 l 167 836 l 180 896 q 343 925 252 925 q 606 830 509 925 q 704 578 704 736 q 666 353 704 467 q 557 153 629 239 q 401 25 485 67 q 201 -17 317 -17 q 120 -11 154 -17 q 70 2 87 -5 q 21 22 52 8 z "},"Ɖ":{"ha":885,"x_min":72,"x_max":830,"o":"m 830 554 q 765 270 830 396 q 579 72 699 144 q 302 0 459 0 l 73 0 l 162 436 l 72 436 l 85 490 l 174 490 l 260 907 l 451 907 q 665 866 582 907 q 789 747 749 825 q 830 554 830 668 m 764 554 q 688 779 764 705 q 455 852 612 852 l 308 852 l 235 490 l 497 490 l 483 436 l 223 436 l 146 54 l 296 54 q 548 123 442 54 q 709 305 654 191 q 764 554 764 419 z "},"Ɗ":{"ha":913,"x_min":37,"x_max":864,"o":"m 864 554 q 799 270 864 396 q 613 72 733 144 q 336 0 493 0 l 107 0 l 282 852 l 262 852 q 102 647 102 852 l 39 647 l 37 681 q 105 846 37 786 q 292 907 173 907 l 485 907 q 699 866 615 907 q 823 748 782 826 q 864 554 864 669 m 800 554 q 760 732 800 668 q 652 824 720 795 q 489 852 585 852 l 342 852 l 179 54 l 329 54 q 582 123 475 54 q 745 306 689 191 q 800 554 800 420 z "},"Ǝ":{"ha":749,"x_min":0,"x_max":733,"o":"m 0 0 l 11 54 l 493 54 l 571 435 l 154 435 l 167 492 l 583 492 l 660 852 l 204 852 l 216 907 l 733 907 l 542 0 l 0 0 z "},"Ə":{"ha":822,"x_min":41,"x_max":766,"o":"m 766 574 q 698 285 766 420 q 513 66 630 150 q 268 -17 396 -17 q 101 39 161 -17 q 41 193 41 96 q 117 373 41 300 q 352 484 193 446 q 704 521 511 521 l 705 553 q 689 685 705 632 q 634 780 673 737 q 525 846 595 823 q 376 869 454 869 q 192 838 289 869 l 205 895 q 393 925 289 925 q 587 883 499 925 q 721 766 675 841 q 766 574 766 692 m 699 464 q 253 395 403 464 q 103 197 103 326 q 149 81 103 124 q 272 39 195 39 q 540 171 404 39 q 699 464 676 303 z "},"Ɛ":{"ha":689,"x_min":41,"x_max":733,"o":"m 41 203 q 105 375 41 301 q 269 467 169 449 l 271 471 q 199 532 231 490 q 168 640 168 574 q 270 849 168 773 q 549 925 371 925 q 655 916 606 925 q 733 892 704 907 l 720 839 q 549 869 642 869 q 314 810 399 869 q 229 643 229 750 q 283 528 229 562 q 441 493 337 493 l 479 493 l 463 437 l 403 437 q 188 383 271 437 q 106 211 106 329 q 175 80 106 121 q 383 39 244 39 q 514 51 459 39 q 624 89 568 64 l 610 29 q 375 -17 503 -17 q 127 39 214 -17 q 41 203 41 96 z "},"Ƒ":{"ha":546,"x_min":-235,"x_max":628,"o":"m -235 -330 l -222 -272 l -193 -272 q -99 -253 -131 -272 q -53 -195 -68 -233 q -21 -74 -38 -156 l 179 907 l 628 907 l 618 854 l 231 854 l 155 492 l 514 492 l 503 436 l 143 436 l 28 -121 q -19 -257 7 -219 q -90 -313 -44 -295 q -212 -332 -136 -332 l -235 -330 z "},"ƒ":{"ha":681,"x_min":-65,"x_max":660,"o":"m -65 -227 l -57 -178 q -26 -180 -41 -180 q 156 -20 77 -180 q 314 503 236 140 l 158 503 l 170 551 l 325 551 q 428 826 358 728 q 616 925 498 925 q 641 922 627 925 q 660 917 655 920 l 653 871 q 615 875 642 875 q 382 551 445 875 l 571 551 l 559 503 l 372 503 q 260 84 312 236 q 138 -149 209 -68 q -39 -229 66 -229 q -65 -227 -56 -229 z "},"Ɣ":{"ha":804,"x_min":134,"x_max":872,"o":"m 134 -191 q 159 -86 134 -145 q 220 30 184 -28 q 311 168 256 87 l 326 191 l 158 907 l 220 907 l 367 252 l 806 907 l 872 907 l 383 178 l 387 158 l 404 98 q 432 -14 422 33 q 441 -109 441 -60 q 395 -265 441 -208 q 268 -322 348 -322 q 170 -286 206 -322 q 134 -191 134 -250 m 383 -98 q 378 -27 383 -60 q 343 119 372 6 q 222 -70 254 -5 q 191 -180 191 -135 q 209 -243 191 -216 q 272 -269 227 -269 q 361 -216 339 -269 q 383 -98 383 -163 z "},"Ƙ":{"ha":750,"x_min":66,"x_max":851,"o":"m 294 437 l 663 0 l 590 0 l 218 443 l 125 0 l 66 0 l 253 907 l 314 907 l 218 446 l 689 854 q 753 903 732 892 q 800 914 774 914 q 851 904 831 914 l 846 860 q 802 865 822 865 q 742 836 777 865 l 294 437 z "},"ƙ":{"ha":528,"x_min":21,"x_max":558,"o":"m 463 39 l 471 39 l 461 -12 l 444 -14 q 337 36 382 -14 q 254 168 293 85 q 200 280 225 233 q 146 347 174 326 l 75 0 l 21 0 l 180 772 q 251 944 205 889 q 376 999 296 999 q 446 989 405 999 l 435 942 q 368 950 395 950 q 239 785 274 950 l 147 354 l 473 633 l 558 633 l 211 346 q 247 308 232 334 q 284 232 262 282 q 370 82 331 126 q 463 39 409 39 z "},"Ơ":{"ha":1021,"x_min":104,"x_max":1038,"o":"m 1038 905 q 1001 775 1038 825 q 892 699 964 725 q 904 581 904 647 q 849 306 904 445 q 686 75 795 168 q 421 -17 576 -17 q 187 73 269 -17 q 104 325 104 162 q 160 602 104 463 q 326 833 216 741 q 590 925 436 925 q 771 879 696 925 q 879 739 846 832 q 979 904 979 784 q 965 968 979 935 l 1031 968 q 1038 905 1038 936 m 842 587 q 778 797 842 725 q 593 869 713 869 q 361 783 458 869 q 217 568 265 696 q 168 319 168 440 q 233 112 168 185 q 418 39 298 39 q 649 124 553 39 q 793 338 745 210 q 842 587 842 466 z "},"ơ":{"ha":717,"x_min":58,"x_max":737,"o":"m 737 676 q 590 465 737 519 q 596 392 596 435 q 563 224 596 321 q 454 56 530 128 q 262 -17 379 -17 q 114 50 169 -17 q 58 228 58 116 q 92 397 58 298 q 199 573 125 497 q 389 650 273 650 q 581 505 539 650 q 679 672 679 549 q 665 734 679 703 l 730 734 q 737 676 737 705 m 538 395 q 501 541 538 481 q 386 600 465 600 q 242 539 303 600 q 149 391 180 479 q 117 225 117 303 q 157 85 117 138 q 264 33 197 33 q 410 90 348 33 q 505 231 473 146 q 538 395 538 315 z "},"Ư":{"ha":1015,"x_min":103,"x_max":1064,"o":"m 1064 905 q 1005 753 1064 807 q 836 673 945 699 l 760 309 q 684 131 736 201 q 555 22 632 60 q 379 -17 477 -17 q 176 49 249 -17 q 103 233 103 115 q 115 349 103 290 l 232 907 l 292 907 l 178 353 q 164 240 164 284 q 215 93 164 147 q 374 39 267 39 q 531 75 465 39 q 642 174 596 111 q 708 345 687 237 l 823 907 l 885 907 l 846 721 q 1006 903 1006 751 q 993 968 1006 938 l 1059 968 q 1064 905 1064 943 z "},"ư":{"ha":783,"x_min":79,"x_max":810,"o":"m 810 669 q 752 520 810 575 q 590 441 694 466 l 547 235 q 456 40 519 96 q 285 -17 393 -17 q 79 154 79 -17 q 85 224 79 194 l 171 633 l 225 633 l 140 220 q 134 161 134 191 q 170 69 134 104 q 282 33 205 33 q 423 85 373 33 q 492 229 473 136 l 575 633 l 631 633 l 600 489 q 751 668 751 520 q 739 734 751 704 l 804 734 q 810 669 810 707 z "},"Ʋ":{"ha":932,"x_min":131,"x_max":869,"o":"m 404 -17 q 203 49 275 -17 q 131 235 131 115 q 143 349 131 290 l 260 907 l 319 907 l 205 353 q 192 240 192 284 q 243 93 192 146 q 404 39 294 39 q 573 82 504 39 q 685 197 643 126 q 717 270 705 232 q 769 506 729 309 q 808 746 808 703 q 681 857 808 857 q 662 857 671 857 q 582 840 653 856 l 595 903 q 701 918 652 918 q 830 877 791 918 q 869 758 869 835 q 855 640 869 719 q 787 309 840 561 q 654 70 756 156 q 404 -17 552 -17 z "},"Ƴ":{"ha":688,"x_min":61,"x_max":741,"o":"m 741 905 l 734 861 q 693 865 717 865 q 664 857 675 865 q 633 821 652 848 l 326 370 l 249 0 l 189 0 l 267 370 l 61 907 l 122 907 l 301 428 l 585 854 q 682 914 623 914 q 741 905 711 914 z "},"ƴ":{"ha":717,"x_min":-77,"x_max":868,"o":"m -77 -328 l -64 -272 l -37 -275 q 115 -209 49 -275 q 245 7 180 -143 l 102 633 l 161 633 l 271 146 l 288 74 l 290 74 l 346 175 l 615 682 q 703 793 652 752 q 815 833 753 833 q 868 828 846 833 l 854 781 q 783 773 810 781 q 729 741 755 766 q 675 665 703 717 l 304 -14 q 197 -196 241 -130 q 98 -297 153 -262 q -39 -332 42 -332 q -77 -328 -59 -332 z "},"Ʒ":{"ha":699,"x_min":57,"x_max":751,"o":"m 57 20 l 69 71 q 241 33 151 33 q 419 68 334 33 q 559 166 505 102 q 612 311 612 229 q 542 449 612 407 q 311 490 472 490 l 285 490 l 300 536 l 654 854 l 252 854 l 262 907 l 751 907 l 742 863 l 382 539 q 587 489 507 539 q 668 325 668 439 q 610 138 668 216 q 453 22 551 61 q 235 -17 354 -17 q 57 20 148 -17 z "},"ǝ":{"ha":570,"x_min":14,"x_max":519,"o":"m 519 401 q 479 203 519 300 q 365 45 439 106 q 192 -17 290 -17 q 62 24 111 -17 q 14 138 14 66 q 101 271 14 224 q 397 332 189 318 l 460 335 q 467 392 467 364 q 417 549 467 498 q 265 600 368 600 q 184 589 228 600 q 106 564 140 578 l 114 612 q 275 650 182 650 q 460 583 400 650 q 519 401 519 516 m 69 136 q 103 63 69 94 q 187 33 136 33 q 354 103 288 33 q 450 282 420 172 q 250 264 331 277 q 119 221 169 252 q 69 136 69 191 z "},"Ș":{"ha":742,"x_min":32,"x_max":704,"o":"m 32 43 l 45 97 q 146 54 82 70 q 282 39 211 39 q 492 100 414 39 q 571 262 571 161 q 543 358 571 321 q 476 412 515 394 q 380 446 437 430 q 258 493 307 467 q 182 562 210 519 q 154 671 154 604 q 192 801 154 743 q 302 892 230 859 q 473 925 374 925 q 704 879 602 925 l 692 818 q 597 853 663 837 q 471 869 530 869 q 288 812 358 869 q 218 665 218 755 q 259 572 218 609 q 412 503 299 535 q 530 456 482 483 q 606 383 577 430 q 635 262 635 336 q 537 60 635 136 q 279 -17 439 -17 q 142 -2 210 -17 q 32 43 75 12 m 296 -180 q 236 -138 296 -138 l 246 -92 q 261 -89 248 -89 q 325 -108 300 -89 q 349 -164 349 -127 q 329 -244 349 -198 q 264 -332 309 -291 l 205 -332 q 274 -247 252 -281 q 296 -180 296 -212 z "},"ș":{"ha":0,"x_min":21,"x_max":486,"o":"m 185 -180 q 125 -138 185 -138 l 135 -92 q 150 -89 136 -89 q 213 -108 189 -89 q 237 -164 237 -127 q 217 -244 237 -198 q 153 -332 197 -291 l 94 -332 q 163 -247 141 -281 q 185 -180 185 -212 m 21 25 l 33 79 q 192 33 112 33 q 345 81 310 33 q 379 176 379 129 q 361 243 379 218 q 315 282 343 269 q 241 310 287 296 q 169 341 195 327 q 123 384 142 356 q 104 458 104 412 q 162 598 104 546 q 315 650 220 650 q 411 637 363 650 q 486 608 458 625 l 475 558 q 399 589 433 578 q 326 600 364 600 q 207 564 252 600 q 163 467 163 528 q 187 398 163 422 q 257 359 212 374 q 352 326 318 340 q 411 278 385 311 q 436 192 436 246 q 370 33 436 83 q 192 -17 303 -17 q 104 -8 157 -17 q 21 25 52 1 z "},"Ț":{"ha":656,"x_min":117,"x_max":747,"o":"m 218 0 l 395 852 l 117 852 l 131 907 l 747 907 l 734 852 l 454 852 l 281 0 l 218 0 m 224 -180 q 163 -138 224 -138 l 174 -92 q 189 -89 175 -89 q 252 -108 228 -89 q 276 -164 276 -127 q 256 -244 276 -198 q 191 -332 236 -291 l 133 -332 q 202 -247 180 -281 q 224 -180 224 -212 z "},"ț":{"ha":432,"x_min":66,"x_max":443,"o":"m 111 98 q 115 147 111 129 l 205 579 l 78 579 l 89 633 l 220 633 l 253 803 l 307 803 l 272 633 l 443 633 l 431 579 l 260 579 l 176 179 q 170 115 170 144 q 193 54 170 71 q 269 36 216 36 q 346 45 315 36 l 334 -9 q 258 -17 298 -17 q 111 98 111 -17 m 157 -180 q 97 -138 157 -138 l 107 -92 q 122 -89 109 -89 q 185 -108 161 -89 q 210 -164 210 -127 q 190 -244 210 -198 q 125 -332 170 -291 l 66 -332 q 135 -247 113 -281 q 157 -180 157 -212 z "},"ɓ":{"ha":581,"x_min":-8,"x_max":507,"o":"m 507 435 q 470 223 507 327 q 355 51 433 119 q 165 -17 278 -17 q 38 31 83 -17 q -8 160 -8 79 q -1 218 -8 183 l 115 772 q 185 944 140 889 q 311 999 231 999 q 380 989 340 999 l 370 942 q 302 950 330 950 q 174 785 209 950 l 121 541 l 123 541 q 208 618 159 587 q 319 650 258 650 q 457 593 406 650 q 507 435 507 536 m 449 422 q 411 552 449 503 q 307 600 372 600 q 224 574 271 600 q 141 500 178 547 q 92 395 104 453 q 59 236 70 293 q 47 161 47 180 q 81 68 47 103 q 174 33 115 33 q 327 96 264 33 q 419 249 389 158 q 449 422 449 339 z "},"ɔ":{"ha":578,"x_min":35,"x_max":518,"o":"m 35 20 l 45 75 q 115 49 75 59 q 195 39 156 39 q 328 85 267 39 q 425 214 389 131 q 461 403 461 297 q 419 547 461 494 q 283 600 377 600 q 197 587 237 600 q 135 558 156 573 l 144 612 q 207 639 166 629 q 289 650 248 650 q 463 583 408 650 q 518 408 518 516 q 472 184 518 281 q 351 35 426 87 q 191 -17 275 -17 q 35 20 102 -17 z "},"ɖ":{"ha":672,"x_min":61,"x_max":694,"o":"m 386 -261 q 387 -242 386 -252 q 458 98 388 -233 l 456 98 q 346 8 404 34 q 237 -17 288 -17 q 61 201 61 -17 q 103 415 61 311 q 221 584 145 519 q 393 650 298 650 q 492 627 450 650 q 550 568 535 604 l 553 568 l 640 982 l 694 982 l 446 -216 q 440 -256 440 -249 q 449 -276 440 -271 q 482 -281 458 -281 q 517 -277 498 -281 l 504 -323 q 457 -329 490 -329 q 403 -315 420 -329 q 386 -261 386 -300 m 542 507 q 474 574 511 549 q 383 600 437 600 q 241 536 301 600 q 150 378 181 472 q 119 199 119 284 q 155 69 119 104 q 240 33 191 33 q 348 66 294 33 q 440 147 402 100 q 486 232 478 195 l 542 507 z "},"ɗ":{"ha":607,"x_min":58,"x_max":861,"o":"m 861 989 l 850 942 q 783 950 810 950 q 705 909 738 950 q 654 785 671 867 l 511 103 q 505 64 505 73 q 514 44 505 50 q 547 39 524 39 q 582 43 564 39 l 570 -4 q 522 -9 553 -9 q 468 5 485 -9 q 452 61 452 20 l 454 94 l 452 94 q 345 7 402 31 q 235 -17 288 -17 q 58 200 58 -17 q 103 425 58 317 q 223 591 147 532 q 393 650 298 650 q 550 568 504 650 l 553 568 l 596 772 q 666 945 621 890 q 791 999 711 999 q 861 989 819 999 m 541 510 q 474 575 512 549 q 380 600 436 600 q 235 535 294 600 q 146 378 175 471 q 117 203 117 286 q 154 70 117 106 q 241 33 191 33 q 400 104 323 33 q 493 265 477 176 l 541 510 z "},"ə":{"ha":570,"x_min":14,"x_max":519,"o":"m 519 401 q 479 203 519 300 q 365 45 439 106 q 192 -17 290 -17 q 62 24 111 -17 q 14 138 14 66 q 101 271 14 224 q 397 332 189 318 l 460 335 q 467 392 467 364 q 417 549 467 498 q 265 600 368 600 q 184 589 228 600 q 106 564 140 578 l 114 612 q 275 650 182 650 q 460 583 400 650 q 519 401 519 516 m 69 136 q 103 63 69 94 q 187 33 136 33 q 354 103 288 33 q 450 282 420 172 q 250 264 331 277 q 119 221 169 252 q 69 136 69 191 z "},"ɛ":{"ha":571,"x_min":43,"x_max":557,"o":"m 43 146 q 89 264 43 218 q 211 334 134 311 l 211 336 q 146 383 170 349 q 122 460 122 417 q 193 599 122 548 q 385 650 264 650 q 557 627 483 650 l 543 575 q 380 600 471 600 q 231 562 283 600 q 179 458 179 524 q 334 355 179 355 l 432 355 l 419 306 l 307 307 q 159 267 216 307 q 102 160 102 227 q 279 33 102 33 q 396 47 336 33 q 493 81 456 60 l 482 26 q 385 -5 442 7 q 272 -17 328 -17 q 136 8 187 -17 q 64 70 85 33 q 43 146 43 107 z "},"ɣ":{"ha":639,"x_min":65,"x_max":616,"o":"m 65 -187 q 75 -127 65 -155 q 102 -68 84 -99 q 161 23 121 -38 l 248 155 l 122 633 l 182 633 l 283 211 l 553 633 l 616 633 l 301 147 q 348 -21 334 38 q 363 -121 363 -79 q 317 -266 363 -210 q 203 -322 272 -322 q 103 -285 140 -322 q 65 -187 65 -248 m 310 -117 q 303 -53 310 -85 q 279 39 296 -20 l 265 90 q 157 -80 191 -20 q 122 -180 122 -140 q 141 -245 122 -221 q 200 -269 161 -269 q 280 -227 250 -269 q 310 -117 310 -185 z "},"ʃ":{"ha":351,"x_min":-199,"x_max":559,"o":"m -199 -323 l -192 -278 l -138 -282 q -2 -229 -49 -282 q 71 -52 45 -175 l 248 774 q 337 944 273 889 q 492 999 401 999 q 559 990 527 999 l 550 943 q 488 949 519 949 q 367 905 412 949 q 301 762 321 861 l 117 -103 q 24 -281 90 -231 q -134 -332 -42 -332 q -199 -323 -172 -332 z "},"ʋ":{"ha":713,"x_min":85,"x_max":633,"o":"m 633 453 q 598 221 633 328 q 488 49 564 115 q 297 -17 412 -17 q 146 36 203 -17 q 90 179 90 90 q 101 259 90 219 q 132 357 111 299 q 163 457 153 418 q 174 534 174 495 q 161 579 174 565 q 119 593 149 593 q 85 590 96 593 l 89 639 q 118 643 105 643 q 203 621 177 643 q 229 546 229 600 q 218 451 229 496 q 185 343 207 405 q 158 254 167 289 q 149 183 149 218 q 310 33 149 33 q 459 94 399 33 q 546 248 519 155 q 574 439 574 341 q 555 554 574 517 q 497 591 536 591 q 401 574 448 591 l 411 625 q 496 642 439 642 q 607 582 581 642 q 633 453 633 522 m 287 633 z "},"ʒ":{"ha":707,"x_min":-54,"x_max":640,"o":"m -54 -244 l -41 -193 q 131 -231 40 -231 q 309 -196 223 -231 q 448 -98 394 -161 q 501 47 501 -35 q 431 185 501 143 q 200 227 361 227 l 174 227 l 189 272 l 543 590 l 140 590 l 151 643 l 640 643 l 631 599 l 271 275 q 476 225 395 275 q 557 61 557 176 q 498 -125 557 -48 q 341 -242 440 -203 q 123 -281 243 -281 q -54 -244 37 -281 m 117 633 z "},"ʻ":{"ha":273,"x_min":164,"x_max":260,"o":"m 196 607 l 164 907 l 216 907 l 260 607 l 196 607 z "},"ʼ":{"ha":273,"x_min":140,"x_max":367,"o":"m 140 607 l 290 907 l 367 907 l 193 607 l 140 607 z "},"ˆ":{"ha":414,"x_min":69,"x_max":412,"o":"m 69 762 l 260 999 l 317 999 l 412 762 l 357 762 l 282 950 l 279 950 l 131 762 l 69 762 z "},"ˇ":{"ha":414,"x_min":121,"x_max":464,"o":"m 464 999 l 273 762 l 216 762 l 121 999 l 176 999 l 252 811 l 254 811 l 403 999 l 464 999 z "},"ˉ":{"ha":414,"x_min":89,"x_max":456,"o":"m 89 799 l 100 852 l 456 852 l 444 799 l 89 799 z "},"˘":{"ha":414,"x_min":103,"x_max":476,"o":"m 103 956 l 104 974 l 150 974 l 149 957 q 175 882 149 909 q 257 854 202 854 q 365 883 322 854 q 429 974 407 911 l 476 974 q 397 845 453 889 q 256 800 342 800 q 136 847 170 800 q 103 956 103 893 z "},"˙":{"ha":414,"x_min":228,"x_max":315,"o":"m 228 777 l 244 844 l 315 844 l 298 777 l 228 777 z "},"˚":{"ha":414,"x_min":138,"x_max":412,"o":"m 138 859 q 184 957 138 917 q 300 997 231 997 q 382 972 351 997 q 412 904 412 947 q 368 805 412 843 q 250 766 323 766 q 168 791 197 766 q 138 859 138 817 m 359 897 q 341 941 359 925 q 289 957 322 957 q 219 932 247 957 q 191 867 191 907 q 209 823 191 839 q 261 807 228 807 q 332 831 304 807 q 359 897 359 856 z "},"˛":{"ha":414,"x_min":-56,"x_max":235,"o":"m 235 24 q 122 -44 171 -12 q 35 -118 74 -76 q -4 -204 -4 -161 q 21 -262 -4 -243 q 85 -281 45 -281 q 170 -264 102 -281 l 153 -318 q 74 -332 120 -332 q -22 -302 11 -332 q -56 -221 -56 -272 q 13 -71 -56 -133 q 167 24 81 -9 l 235 24 z "},"˜":{"ha":414,"x_min":81,"x_max":507,"o":"m 204 873 q 162 854 179 873 q 139 810 145 835 l 81 810 q 119 895 92 864 q 199 925 146 925 q 250 915 225 925 q 310 886 275 905 q 382 859 359 859 q 425 878 409 859 q 446 922 441 897 l 507 922 q 466 837 492 867 q 387 807 439 807 q 325 818 352 807 q 266 848 298 829 q 204 873 225 873 z "},"˝":{"ha":414,"x_min":87,"x_max":485,"o":"m 87 762 l 216 999 l 293 999 l 139 762 l 87 762 m 279 762 l 408 999 l 485 999 l 330 762 l 279 762 z "},"̀":{"ha":0,"x_min":42,"x_max":146,"o":"m 99 762 l 42 999 l 113 999 l 146 762 l 99 762 z "},"́":{"ha":0,"x_min":21,"x_max":227,"o":"m 21 762 l 150 999 l 227 999 l 73 762 l 21 762 z "},"̂":{"ha":0,"x_min":-513,"x_max":-170,"o":"m -513 762 l -322 999 l -265 999 l -170 762 l -225 762 l -300 950 l -302 950 l -451 762 l -513 762 z "},"̃":{"ha":0,"x_min":-109,"x_max":318,"o":"m 15 873 q -27 854 -10 873 q -50 810 -44 835 l -109 810 q -70 895 -97 864 q 9 925 -43 925 q 61 915 36 925 q 121 886 86 905 q 193 859 170 859 q 236 878 220 859 q 256 922 252 897 l 318 922 q 277 837 303 867 q 198 807 250 807 q 136 818 163 807 q 77 848 109 829 q 15 873 36 873 z "},"̄":{"ha":0,"x_min":-494,"x_max":-127,"o":"m -494 799 l -484 852 l -127 852 l -139 799 l -494 799 z "},"̆":{"ha":0,"x_min":-469,"x_max":-96,"o":"m -469 956 l -468 974 l -422 974 l -424 957 q -397 882 -424 909 q -315 854 -370 854 q -208 883 -250 854 q -143 974 -165 911 l -96 974 q -175 845 -119 889 q -317 800 -231 800 q -436 847 -403 800 q -469 956 -469 893 z "},"̇":{"ha":0,"x_min":-368,"x_max":-281,"o":"m -368 777 l -352 844 l -281 844 l -298 777 l -368 777 z "},"̈":{"ha":0,"x_min":-460,"x_max":-147,"o":"m -235 785 l -218 852 l -147 852 l -164 785 l -235 785 m -460 785 l -443 851 l -371 851 l -386 785 l -460 785 z "},"̊":{"ha":0,"x_min":-455,"x_max":-180,"o":"m -455 859 q -408 957 -455 917 q -293 997 -361 997 q -211 972 -241 997 q -180 904 -180 947 q -225 805 -180 843 q -342 766 -270 766 q -425 791 -395 766 q -455 859 -455 817 m -233 897 q -252 941 -233 925 q -304 957 -271 957 q -374 932 -346 957 q -402 867 -402 907 q -384 823 -402 839 q -332 807 -365 807 q -261 831 -288 807 q -233 897 -233 856 z "},"̋":{"ha":0,"x_min":-473,"x_max":-76,"o":"m -473 762 l -345 999 l -268 999 l -422 762 l -473 762 m -281 762 l -153 999 l -76 999 l -231 762 l -281 762 z "},"̌":{"ha":0,"x_min":-471,"x_max":-127,"o":"m -127 999 l -318 762 l -375 762 l -471 999 l -415 999 l -340 811 l -337 811 l -189 999 l -127 999 z "},"̒":{"ha":0,"x_min":37,"x_max":180,"o":"m 90 851 q 150 808 90 808 l 140 762 q 125 760 139 760 q 61 779 85 760 q 37 835 37 798 q 57 915 37 868 q 122 1003 77 962 l 180 1003 q 112 918 134 954 q 90 851 90 883 z "},"̕":{"ha":0,"x_min":-7,"x_max":157,"o":"m 75 889 q 62 914 75 909 q 26 920 50 920 l 39 982 q 53 985 40 985 q 125 966 94 985 q 157 914 157 947 q 137 834 157 876 q 73 739 118 793 l -7 739 q 75 889 75 833 z "},"̣":{"ha":0,"x_min":-125,"x_max":-53,"o":"m -125 -158 l -111 -96 l -53 -96 l -64 -158 l -125 -158 z "},"̦":{"ha":0,"x_min":-396,"x_max":-253,"o":"m -305 -180 q -366 -138 -305 -138 l -355 -92 q -340 -89 -354 -89 q -277 -108 -301 -89 q -253 -164 -253 -127 q -273 -244 -253 -198 q -338 -332 -293 -291 l -396 -332 q -327 -247 -349 -281 q -305 -180 -305 -212 z "},"̧":{"ha":0,"x_min":-436,"x_max":-171,"o":"m -240 -16 l -275 -104 q -198 -135 -226 -109 q -171 -199 -171 -161 q -215 -295 -171 -258 q -332 -332 -260 -332 q -436 -313 -379 -332 l -420 -261 q -326 -282 -375 -282 q -254 -261 -282 -282 q -227 -210 -227 -239 q -255 -163 -227 -177 q -349 -146 -284 -149 l -288 -4 l -240 -16 z "},"̨":{"ha":0,"x_min":-464,"x_max":-174,"o":"m -174 24 q -286 -44 -237 -12 q -373 -118 -334 -76 q -412 -204 -412 -161 q -388 -262 -412 -243 q -323 -281 -363 -281 q -239 -264 -307 -281 l -256 -318 q -334 -332 -288 -332 q -431 -302 -397 -332 q -464 -221 -464 -272 q -395 -71 -464 -133 q -241 24 -327 -9 l -174 24 z "},"̈́":{"ha":0,"x_min":-648,"x_max":-274,"o":"m -518 762 l -429 999 l -357 999 l -471 762 l -518 762 m -648 785 l -627 871 l -555 871 l -575 785 l -648 785 m -366 785 l -346 871 l -274 871 l -293 785 l -366 785 z "},"ʹ":{"ha":285,"x_min":107,"x_max":321,"o":"m 107 728 l 244 947 l 321 947 l 157 728 l 107 728 z "},"͵":{"ha":285,"x_min":-69,"x_max":175,"o":"m -69 -220 l 121 0 l 175 0 l 7 -220 l -69 -220 z "},"΄":{"ha":414,"x_min":147,"x_max":357,"o":"m 147 762 l 275 999 l 357 999 l 196 762 l 147 762 z "},"΅":{"ha":414,"x_min":-102,"x_max":272,"o":"m 28 762 l 117 999 l 189 999 l 75 762 l 28 762 m -102 785 l -81 871 l -9 871 l -29 785 l -102 785 m 180 785 l 200 871 l 272 871 l 253 785 l 180 785 z "},"Ά":{"ha":802,"x_min":-17,"x_max":693,"o":"m 111 762 l 239 999 l 321 999 l 160 762 l 111 762 m -17 0 l 484 907 l 519 907 l 693 0 l 635 0 l 571 322 l 227 322 l 47 0 l -17 0 m 559 376 l 482 800 l 481 800 q 368 582 453 735 l 253 376 l 559 376 z "},"Έ":{"ha":818,"x_min":71,"x_max":838,"o":"m 71 762 l 199 999 l 280 999 l 119 762 l 71 762 m 175 0 l 361 907 l 838 907 l 825 852 l 412 852 l 338 492 l 720 492 l 709 437 l 325 437 l 248 54 l 686 54 l 672 0 l 175 0 z "},"Ή":{"ha":1006,"x_min":71,"x_max":990,"o":"m 71 762 l 199 999 l 280 999 l 119 762 l 71 762 m 363 907 l 424 907 l 336 494 l 842 494 l 929 907 l 990 907 l 799 0 l 738 0 l 831 440 l 325 440 l 232 0 l 171 0 l 363 907 z "},"Ί":{"ha":414,"x_min":71,"x_max":400,"o":"m 71 762 l 199 999 l 280 999 l 119 762 l 71 762 m 151 0 l 338 907 l 400 907 l 211 0 l 151 0 z "},"Ό":{"ha":1036,"x_min":71,"x_max":979,"o":"m 71 762 l 199 999 l 280 999 l 119 762 l 71 762 m 180 325 q 235 602 180 463 q 401 833 291 741 q 665 925 511 925 q 898 835 816 925 q 979 581 979 745 q 925 306 979 445 q 761 75 870 168 q 496 -17 652 -17 q 262 73 345 -17 q 180 325 180 162 m 917 587 q 853 797 917 725 q 668 869 789 869 q 437 783 533 869 q 292 568 340 696 q 243 319 243 440 q 308 112 243 185 q 493 39 373 39 q 724 124 628 39 q 868 338 820 210 q 917 587 917 466 z "},"Ύ":{"ha":854,"x_min":71,"x_max":947,"o":"m 71 762 l 199 999 l 280 999 l 119 762 l 71 762 m 507 367 q 472 591 507 486 q 397 765 437 696 q 313 892 357 833 l 302 907 l 370 907 q 557 453 520 715 l 558 453 q 700 700 602 562 q 880 907 798 838 l 947 907 q 720 634 789 739 q 610 434 651 529 q 547 236 570 339 l 496 0 l 441 0 l 486 203 q 507 367 507 301 z "},"Ώ":{"ha":1063,"x_min":71,"x_max":1006,"o":"m 71 762 l 199 999 l 280 999 l 119 762 l 71 762 m 279 436 q 319 231 279 329 q 433 56 359 133 l 425 0 l 94 0 l 104 56 l 360 56 q 217 433 217 227 q 272 677 217 565 q 431 858 328 790 q 670 925 534 925 q 917 834 828 925 q 1006 581 1006 744 q 706 56 1006 269 l 949 56 l 938 0 l 606 0 l 616 56 q 856 288 769 155 q 942 579 942 420 q 870 794 942 718 q 667 871 799 871 q 468 810 556 871 q 329 649 379 749 q 279 436 279 549 z "},"ΐ":{"ha":300,"x_min":68,"x_max":441,"o":"m 127 69 q 135 45 127 52 q 164 39 143 39 l 207 41 l 196 -4 q 154 -9 173 -9 q 91 5 112 -9 q 71 56 71 20 q 75 92 71 73 l 189 633 l 243 633 l 135 118 q 127 69 127 87 m 197 762 l 286 999 l 359 999 l 245 762 l 197 762 m 68 785 l 89 871 l 160 871 l 140 785 l 68 785 m 350 785 l 370 871 l 441 871 l 422 785 l 350 785 z "},"Α":{"ha":804,"x_min":-17,"x_max":693,"o":"m -17 0 l 484 907 l 519 907 l 693 0 l 635 0 l 571 322 l 227 322 l 47 0 l -17 0 m 559 376 l 482 800 l 481 800 q 368 582 453 735 l 253 376 l 559 376 z "},"Β":{"ha":800,"x_min":62,"x_max":734,"o":"m 252 907 l 428 907 q 650 854 566 907 q 734 692 734 802 q 678 540 734 602 q 526 464 621 478 l 526 461 q 654 404 606 454 q 701 277 701 354 q 680 177 701 225 q 617 90 659 128 q 519 31 576 51 q 415 5 462 11 q 282 0 368 0 l 62 0 l 252 907 m 432 489 q 540 516 479 489 q 634 587 600 543 q 668 692 668 631 q 603 808 668 764 q 432 852 537 852 l 298 852 l 227 489 l 432 489 m 293 54 q 486 82 410 54 q 598 162 561 109 q 635 279 635 215 q 585 390 635 345 q 440 435 536 435 l 211 435 l 136 54 l 293 54 z "},"Γ":{"ha":681,"x_min":45,"x_max":774,"o":"m 45 0 l 232 907 l 774 907 l 760 852 l 283 852 l 106 0 l 45 0 z "},"Δ":{"ha":766,"x_min":-57,"x_max":696,"o":"m -57 0 l -50 35 l 472 907 l 546 907 l 696 35 l 689 0 l -57 0 m 633 54 l 546 559 q 503 848 515 743 l 496 848 l 329 562 l 29 54 l 633 54 z "},"Ε":{"ha":701,"x_min":61,"x_max":724,"o":"m 61 0 l 248 907 l 724 907 l 711 852 l 298 852 l 224 492 l 606 492 l 595 437 l 211 437 l 134 54 l 572 54 l 558 0 l 61 0 z "},"Ζ":{"ha":746,"x_min":28,"x_max":768,"o":"m 28 0 l 35 39 l 673 852 l 184 852 l 200 907 l 768 907 l 760 868 l 121 54 l 628 54 l 616 0 l 28 0 z "},"Η":{"ha":888,"x_min":56,"x_max":875,"o":"m 248 907 l 309 907 l 221 494 l 726 494 l 814 907 l 875 907 l 684 0 l 623 0 l 715 440 l 210 440 l 117 0 l 56 0 l 248 907 z "},"Θ":{"ha":958,"x_min":103,"x_max":903,"o":"m 103 325 q 159 602 103 463 q 325 833 214 741 q 589 925 435 925 q 821 835 739 925 q 903 581 903 745 q 848 306 903 445 q 684 75 793 168 q 419 -17 574 -17 q 185 72 268 -17 q 103 325 103 161 m 840 587 q 776 797 840 725 q 591 869 712 869 q 360 783 456 869 q 215 568 264 696 q 167 319 167 440 q 232 112 167 185 q 416 39 296 39 q 647 124 551 39 q 792 338 743 210 q 840 587 840 466 m 285 436 l 297 498 l 714 498 l 699 436 l 285 436 z "},"Ι":{"ha":323,"x_min":61,"x_max":310,"o":"m 61 0 l 248 907 l 310 907 l 121 0 l 61 0 z "},"Κ":{"ha":775,"x_min":61,"x_max":827,"o":"m 827 907 l 289 441 l 657 0 l 585 0 l 212 443 l 119 0 l 61 0 l 248 907 l 309 907 l 212 446 l 749 907 l 827 907 z "},"Λ":{"ha":787,"x_min":-28,"x_max":682,"o":"m 472 907 l 509 907 l 682 0 l 624 0 l 504 618 l 472 804 l 471 804 q 357 582 445 743 l 36 0 l -28 0 l 472 907 z "},"Μ":{"ha":1092,"x_min":54,"x_max":1069,"o":"m 338 907 l 447 273 q 479 71 466 168 l 482 71 l 555 195 l 975 907 l 1069 907 l 878 0 l 819 0 q 964 667 943 576 q 1007 851 984 758 l 1002 851 l 836 568 l 498 0 l 440 0 l 326 656 q 292 851 309 764 l 288 851 q 203 419 236 574 l 114 0 l 54 0 l 245 907 l 338 907 z "},"Ν":{"ha":914,"x_min":61,"x_max":900,"o":"m 248 907 l 300 907 l 631 189 l 675 92 l 676 92 q 713 292 707 266 l 839 907 l 900 907 l 710 0 l 659 0 l 361 643 q 283 817 300 772 l 282 817 l 269 739 l 248 616 l 122 0 l 61 0 l 248 907 z "},"Ξ":{"ha":725,"x_min":-20,"x_max":747,"o":"m 189 852 l 200 907 l 747 907 l 734 852 l 189 852 m 150 437 l 163 492 l 610 492 l 599 437 l 150 437 m -20 0 l -7 54 l 595 54 l 583 0 l -20 0 z "},"Ο":{"ha":958,"x_min":104,"x_max":904,"o":"m 104 325 q 160 602 104 463 q 326 833 216 741 q 590 925 436 925 q 822 835 741 925 q 904 581 904 745 q 849 306 904 445 q 686 75 795 168 q 421 -17 576 -17 q 187 73 269 -17 q 104 325 104 162 m 842 587 q 778 797 842 725 q 593 869 713 869 q 361 783 458 869 q 217 568 265 696 q 168 319 168 440 q 233 112 168 185 q 418 39 298 39 q 649 124 553 39 q 793 338 745 210 q 842 587 842 466 z "},"Π":{"ha":879,"x_min":61,"x_max":865,"o":"m 61 0 l 248 907 l 865 907 l 675 0 l 616 0 l 791 852 l 298 852 l 121 0 l 61 0 z "},"Ρ":{"ha":770,"x_min":61,"x_max":743,"o":"m 248 907 l 467 907 q 667 850 592 907 q 743 697 743 793 q 633 475 743 557 q 330 392 523 394 q 203 399 271 392 l 122 0 l 61 0 l 248 907 m 679 690 q 620 809 679 765 q 464 852 562 852 l 296 852 l 216 456 q 323 446 260 446 q 583 511 488 446 q 679 690 679 577 z "},"Σ":{"ha":761,"x_min":7,"x_max":828,"o":"m 481 493 l 207 873 l 214 907 l 828 907 l 812 852 l 290 852 q 366 743 341 776 l 550 485 l 244 189 l 195 139 q 107 53 143 86 l 113 50 l 267 54 l 663 54 l 653 0 l 7 0 l 14 35 l 481 493 z "},"Τ":{"ha":656,"x_min":117,"x_max":747,"o":"m 218 0 l 395 852 l 117 852 l 131 907 l 747 907 l 734 852 l 454 852 l 281 0 l 218 0 z "},"Υ":{"ha":669,"x_min":118,"x_max":762,"o":"m 322 367 q 288 591 322 486 q 213 765 253 696 q 128 892 172 833 l 118 907 l 186 907 q 372 453 336 715 l 374 453 q 515 700 417 562 q 696 907 614 838 l 762 907 q 536 634 605 739 q 426 434 467 529 q 363 236 385 339 l 311 0 l 257 0 l 301 203 q 322 367 322 301 z "},"Φ":{"ha":997,"x_min":90,"x_max":958,"o":"m 449 -50 l 389 -47 l 411 60 q 262 98 336 62 q 139 210 188 134 q 90 397 90 286 q 151 620 90 513 q 322 795 211 727 q 578 865 433 863 l 599 966 l 660 966 l 639 864 q 874 761 789 851 q 958 525 958 671 q 900 306 958 412 q 731 133 842 201 q 471 60 620 64 l 449 -50 m 422 115 l 567 810 q 344 743 437 805 q 202 586 250 680 q 154 392 154 491 q 191 244 154 305 q 288 151 227 183 q 422 115 349 119 m 893 530 q 857 679 893 616 q 760 773 821 741 q 627 810 700 806 l 484 115 q 705 182 612 120 q 846 338 798 244 q 893 530 893 432 z "},"Χ":{"ha":737,"x_min":-58,"x_max":811,"o":"m -58 0 l 353 469 l 161 907 l 222 907 l 397 510 l 400 510 l 736 907 l 811 907 l 424 458 l 616 0 l 555 0 l 382 411 l 379 411 l 18 0 l -58 0 z "},"Ψ":{"ha":867,"x_min":121,"x_max":935,"o":"m 389 0 l 328 0 l 392 302 q 186 374 251 309 q 121 587 121 439 q 163 907 121 728 l 221 907 q 180 587 180 719 q 230 418 180 469 q 404 363 279 367 l 518 907 l 579 907 l 465 364 q 659 417 587 369 q 778 578 731 466 q 869 907 825 691 l 935 907 q 836 554 888 678 q 696 367 785 429 q 453 301 607 305 l 389 0 z "},"Ω":{"ha":961,"x_min":-8,"x_max":904,"o":"m 178 436 q 218 231 178 329 q 332 56 258 133 l 323 0 l -8 0 l 3 56 l 258 56 q 115 433 115 227 q 171 677 115 565 q 329 858 226 790 q 568 925 432 925 q 815 834 726 925 q 904 581 904 744 q 604 56 904 269 l 847 56 l 836 0 l 504 0 l 514 56 q 754 288 667 155 q 840 579 840 420 q 769 794 840 718 q 566 871 697 871 q 366 810 454 871 q 228 649 277 749 q 178 436 178 549 z "},"Ϊ":{"ha":323,"x_min":61,"x_max":453,"o":"m 61 0 l 248 907 l 310 907 l 121 0 l 61 0 m 140 982 l 157 1064 l 228 1064 l 212 982 l 140 982 m 366 982 l 382 1064 l 453 1064 l 436 982 l 366 982 z "},"Ϋ":{"ha":669,"x_min":118,"x_max":762,"o":"m 322 367 q 288 591 322 486 q 213 765 253 696 q 128 892 172 833 l 118 907 l 186 907 q 372 453 336 715 l 374 453 q 515 700 417 562 q 696 907 614 838 l 762 907 q 536 634 605 739 q 426 434 467 529 q 363 236 385 339 l 311 0 l 257 0 l 301 203 q 322 367 322 301 m 300 982 l 317 1064 l 388 1064 l 372 982 l 300 982 m 526 982 l 542 1064 l 613 1064 l 596 982 l 526 982 z "},"ά":{"ha":713,"x_min":61,"x_max":699,"o":"m 61 225 q 98 432 61 334 q 200 590 135 530 q 345 650 265 650 q 472 584 422 650 q 532 411 522 519 l 534 411 q 647 633 559 461 l 699 633 q 614 464 664 560 q 541 314 564 370 l 545 243 q 554 126 549 165 q 573 63 559 87 q 615 39 587 39 l 644 41 l 633 -4 q 604 -9 621 -9 q 539 15 559 -9 q 512 82 518 39 q 500 224 505 125 l 498 224 q 380 56 449 130 q 224 -17 311 -17 q 61 225 61 -17 m 497 328 q 336 600 471 600 q 225 545 276 600 q 146 403 175 489 q 117 232 117 317 q 144 82 117 133 q 232 32 171 32 q 339 81 286 32 q 435 200 393 131 q 497 328 477 270 m 338 762 l 466 999 l 547 999 l 387 762 l 338 762 z "},"έ":{"ha":571,"x_min":43,"x_max":583,"o":"m 43 146 q 89 264 43 218 q 211 334 134 311 l 211 336 q 146 383 170 349 q 122 460 122 417 q 193 599 122 548 q 385 650 264 650 q 557 627 483 650 l 543 575 q 380 600 471 600 q 231 562 283 600 q 179 458 179 524 q 334 355 179 355 l 432 355 l 419 306 l 307 307 q 159 267 216 307 q 102 160 102 227 q 279 33 102 33 q 396 47 336 33 q 493 81 456 60 l 482 26 q 385 -5 442 7 q 272 -17 328 -17 q 136 8 187 -17 q 64 70 85 33 q 43 146 43 107 m 374 762 l 502 999 l 583 999 l 422 762 l 374 762 z "},"ή":{"ha":657,"x_min":36,"x_max":611,"o":"m 539 497 q 422 600 539 600 q 332 583 375 600 q 254 533 290 566 q 198 463 218 500 q 161 349 178 427 l 87 0 l 36 0 l 138 497 q 144 559 144 534 q 137 590 144 581 q 103 600 129 600 l 77 597 l 83 640 q 118 643 86 643 q 191 564 191 643 q 186 517 191 538 l 189 517 q 299 616 238 583 q 422 650 360 650 q 546 613 500 650 q 591 507 591 576 q 576 387 591 463 l 428 -315 l 376 -315 l 525 397 q 539 497 539 470 m 401 762 l 530 999 l 611 999 l 450 762 l 401 762 z "},"ί":{"ha":300,"x_min":71,"x_max":415,"o":"m 127 69 q 135 45 127 52 q 164 39 143 39 l 207 41 l 196 -4 q 154 -9 173 -9 q 91 5 112 -9 q 71 56 71 20 q 75 92 71 73 l 189 633 l 243 633 l 135 118 q 127 69 127 87 m 205 762 l 334 999 l 415 999 l 254 762 l 205 762 z "},"ΰ":{"ha":684,"x_min":71,"x_max":619,"o":"m 81 176 q 90 252 81 213 q 120 354 100 291 q 150 457 140 418 q 160 534 160 496 q 148 579 160 565 q 106 593 135 593 q 71 590 82 593 l 75 639 q 114 643 92 643 q 190 618 165 643 q 215 538 215 593 q 204 443 215 490 q 172 332 193 397 q 146 245 155 279 q 138 183 138 212 q 174 74 138 115 q 300 33 211 33 q 455 100 396 33 q 538 261 514 168 q 562 443 562 355 q 555 563 562 522 q 538 633 548 604 l 596 633 l 603 610 q 619 450 619 557 q 590 236 619 342 q 487 57 561 131 q 286 -17 412 -17 q 136 36 191 -17 q 81 176 81 88 m 259 633 m 351 762 l 440 999 l 513 999 l 399 762 l 351 762 m 222 785 l 243 871 l 314 871 l 294 785 l 222 785 m 504 785 l 524 871 l 595 871 l 576 785 l 504 785 z "},"α":{"ha":713,"x_min":61,"x_max":699,"o":"m 61 225 q 98 432 61 334 q 200 590 135 530 q 345 650 265 650 q 472 584 422 650 q 532 411 522 519 l 534 411 q 647 633 559 461 l 699 633 q 614 464 664 560 q 541 314 564 370 l 545 243 q 554 126 549 165 q 573 63 559 87 q 615 39 587 39 l 644 41 l 633 -4 q 604 -9 621 -9 q 539 15 559 -9 q 512 82 518 39 q 500 224 505 125 l 498 224 q 380 56 449 130 q 224 -17 311 -17 q 61 225 61 -17 m 497 328 q 336 600 471 600 q 225 545 276 600 q 146 403 175 489 q 117 232 117 317 q 144 82 117 133 q 232 32 171 32 q 339 81 286 32 q 435 200 393 131 q 497 328 477 270 z "},"β":{"ha":696,"x_min":-16,"x_max":688,"o":"m 482 999 q 633 946 578 999 q 688 804 688 894 q 632 633 688 710 q 484 519 577 556 l 484 514 q 592 442 551 498 q 632 306 632 385 q 544 74 632 165 q 318 -17 455 -17 q 191 1 239 -17 q 117 40 142 19 l 114 39 l 39 -315 l -16 -315 l 210 745 q 307 932 235 865 q 482 999 379 999 m 575 304 q 524 441 575 390 q 389 492 473 492 q 297 489 335 492 l 306 546 q 380 543 330 543 q 507 579 450 543 q 597 676 564 616 q 629 804 629 736 q 592 908 629 867 q 481 949 554 949 q 342 893 400 949 q 262 739 284 838 l 126 103 q 201 53 151 73 q 319 33 252 33 q 502 111 429 33 q 575 304 575 189 z "},"γ":{"ha":600,"x_min":68,"x_max":604,"o":"m 178 -9 q 142 322 178 117 q 68 633 107 526 l 132 633 q 195 352 168 515 q 222 85 222 189 l 221 16 l 224 16 q 377 334 289 162 q 541 633 465 505 l 604 633 q 399 257 524 497 q 231 -90 275 17 q 146 -315 186 -196 l 92 -315 l 116 -248 q 151 -151 130 -212 q 175 -66 172 -90 q 178 -9 178 -43 z "},"δ":{"ha":671,"x_min":58,"x_max":689,"o":"m 58 222 q 142 460 58 356 q 396 632 225 565 l 396 635 q 300 763 321 720 q 278 850 278 806 q 327 957 278 916 q 453 999 376 999 q 578 980 515 999 q 689 935 641 962 l 675 885 q 569 929 628 910 q 458 947 510 947 q 371 924 408 947 q 334 850 334 900 q 353 780 334 817 q 438 669 372 743 q 497 598 452 654 q 562 499 541 542 q 591 418 583 456 q 600 336 600 380 q 518 79 600 176 q 298 -17 435 -17 q 123 47 188 -17 q 58 222 58 112 m 541 335 q 514 470 541 412 q 428 596 487 528 q 202 455 291 545 q 114 224 114 366 q 162 85 114 138 q 300 33 210 33 q 474 116 408 33 q 541 335 541 198 z "},"ε":{"ha":571,"x_min":43,"x_max":557,"o":"m 43 146 q 89 264 43 218 q 211 334 134 311 l 211 336 q 146 383 170 349 q 122 460 122 417 q 193 599 122 548 q 385 650 264 650 q 557 627 483 650 l 543 575 q 380 600 471 600 q 231 562 283 600 q 179 458 179 524 q 334 355 179 355 l 432 355 l 419 306 l 307 307 q 159 267 216 307 q 102 160 102 227 q 279 33 102 33 q 396 47 336 33 q 493 81 456 60 l 482 26 q 385 -5 442 7 q 272 -17 328 -17 q 136 8 187 -17 q 64 70 85 33 q 43 146 43 107 z "},"ζ":{"ha":501,"x_min":61,"x_max":648,"o":"m 395 -58 q 383 -19 395 -33 q 347 6 371 -4 q 266 34 322 16 q 118 94 147 72 q 75 150 88 117 q 61 237 61 184 q 140 523 61 378 q 339 779 218 667 q 582 939 460 890 l 582 942 q 256 909 444 909 l 269 961 q 648 999 520 961 l 635 932 q 378 745 496 857 q 188 501 260 634 q 117 233 117 368 q 152 143 117 173 q 279 88 186 114 q 372 57 334 73 q 432 16 410 42 q 454 -53 454 -9 q 427 -155 454 -99 q 349 -269 400 -211 l 285 -269 q 368 -158 342 -207 q 395 -58 395 -109 z "},"η":{"ha":657,"x_min":36,"x_max":591,"o":"m 539 497 q 422 600 539 600 q 332 583 375 600 q 254 533 290 566 q 198 463 218 500 q 161 349 178 427 l 87 0 l 36 0 l 138 497 q 144 559 144 534 q 137 590 144 581 q 103 600 129 600 l 77 597 l 83 640 q 118 643 86 643 q 191 564 191 643 q 186 517 191 538 l 189 517 q 299 616 238 583 q 422 650 360 650 q 546 613 500 650 q 591 507 591 576 q 576 387 591 463 l 428 -315 l 376 -315 l 525 397 q 539 497 539 470 z "},"θ":{"ha":652,"x_min":78,"x_max":694,"o":"m 78 269 q 130 594 78 422 q 277 882 181 765 q 497 999 372 999 q 645 930 595 999 q 694 713 694 862 q 645 389 694 560 q 502 101 596 218 q 281 -17 408 -17 q 129 52 180 -17 q 78 269 78 121 m 618 533 q 639 715 639 650 q 602 890 639 838 q 493 943 566 943 q 358 887 422 943 q 245 738 293 831 q 174 533 197 644 l 618 533 m 607 479 l 161 479 q 136 262 136 358 q 172 93 136 146 q 282 39 208 39 q 420 100 354 39 q 535 262 486 161 q 607 479 583 363 z "},"ι":{"ha":300,"x_min":71,"x_max":243,"o":"m 127 69 q 135 45 127 52 q 164 39 143 39 l 207 41 l 196 -4 q 154 -9 173 -9 q 91 5 112 -9 q 71 56 71 20 q 75 92 71 73 l 189 633 l 243 633 l 135 118 q 127 69 127 87 z "},"κ":{"ha":660,"x_min":54,"x_max":669,"o":"m 275 332 q 155 227 193 263 l 109 0 l 54 0 l 184 633 l 239 633 l 203 454 q 200 440 201 448 q 171 311 199 433 l 174 302 q 348 460 244 361 q 468 568 425 532 q 556 627 512 605 q 647 650 601 650 l 669 650 l 659 589 l 640 589 q 524 545 589 589 q 317 367 458 500 q 435 118 371 196 q 589 40 499 40 l 612 41 l 604 -7 l 578 -8 q 402 73 475 -8 q 277 329 330 155 l 275 332 z "},"λ":{"ha":639,"x_min":-5,"x_max":570,"o":"m 368 546 l 366 546 q 348 512 359 532 q 58 0 336 491 l -5 0 l 364 650 q 329 874 360 803 q 231 946 298 946 q 180 940 199 946 l 189 989 q 243 999 217 999 q 366 924 327 999 q 415 741 406 849 q 425 450 425 633 l 425 427 q 454 121 427 201 q 551 40 481 40 l 570 40 l 559 -7 l 532 -8 q 408 77 445 -8 q 371 379 371 162 l 368 546 z "},"μ":{"ha":724,"x_min":-12,"x_max":661,"o":"m 489 92 q 396 11 447 39 q 271 -17 345 -17 q 119 54 165 -17 l 117 54 l 41 -315 l -12 -315 l 184 633 l 240 633 l 150 205 q 144 160 144 178 q 286 33 144 33 q 438 104 363 33 q 530 264 513 175 l 606 633 l 661 633 l 549 103 q 543 64 543 75 q 551 44 543 50 q 578 39 559 39 q 619 41 603 39 l 607 -4 q 558 -9 591 -9 q 505 5 520 -9 q 489 57 489 20 l 492 92 l 489 92 z "},"ν":{"ha":589,"x_min":49,"x_max":542,"o":"m 49 633 l 104 633 q 177 395 153 556 q 201 66 201 235 l 204 66 q 399 323 313 184 q 486 585 486 462 l 485 633 l 538 633 q 542 589 542 609 q 491 397 542 507 q 361 182 441 288 q 200 0 282 75 l 154 0 q 49 633 144 479 z "},"ξ":{"ha":518,"x_min":54,"x_max":654,"o":"m 383 -77 q 368 -23 383 -43 q 329 7 352 -3 q 264 29 306 18 q 144 72 188 52 q 77 125 100 92 q 54 215 54 159 q 100 365 54 300 q 212 465 146 429 q 335 511 277 502 l 335 514 q 207 650 207 541 q 258 783 207 720 q 391 890 309 846 q 558 950 472 934 l 558 956 q 264 929 427 934 l 275 981 q 654 999 467 981 l 642 939 q 367 818 469 894 q 264 646 264 743 q 304 580 264 604 q 395 548 344 556 q 489 539 446 539 l 518 539 l 510 497 q 319 462 411 494 q 169 368 227 430 q 110 218 110 306 q 140 145 110 176 q 244 93 171 114 q 346 60 308 75 q 412 17 384 45 q 440 -56 440 -12 q 412 -161 440 -102 q 334 -272 383 -220 l 273 -272 q 346 -176 309 -233 q 383 -77 383 -119 z "},"ο":{"ha":656,"x_min":58,"x_max":596,"o":"m 58 228 q 92 397 58 298 q 199 573 125 497 q 389 650 273 650 q 544 582 491 650 q 596 392 596 514 q 563 224 596 321 q 454 56 530 128 q 262 -17 379 -17 q 114 50 169 -17 q 58 228 58 116 m 538 395 q 501 541 538 481 q 386 600 465 600 q 242 539 303 600 q 149 391 180 479 q 117 225 117 303 q 157 85 117 138 q 264 33 197 33 q 410 90 348 33 q 505 231 473 146 q 538 395 538 315 z "},"π":{"ha":673,"x_min":53,"x_max":724,"o":"m 258 579 q 110 0 201 303 l 53 0 q 203 579 142 288 l 78 579 l 89 633 l 724 633 l 711 579 l 587 579 q 489 201 508 280 q 471 90 471 123 q 482 53 471 65 q 521 40 494 40 q 570 45 546 40 l 561 0 q 501 -9 542 -9 q 432 18 450 -9 q 415 85 415 45 q 435 203 415 118 q 532 579 454 288 l 258 579 z "},"ρ":{"ha":710,"x_min":-17,"x_max":639,"o":"m 404 650 q 575 581 511 650 q 639 397 639 512 q 597 194 639 289 q 482 41 555 98 q 318 -17 408 -17 q 119 68 187 -17 l 117 68 l 37 -315 l -17 -315 l 117 332 q 173 514 140 446 q 261 616 206 583 q 404 650 316 650 m 581 392 q 534 543 581 485 q 396 600 488 600 q 282 568 326 600 q 214 478 239 536 q 170 325 189 419 l 129 127 q 315 33 184 33 q 459 91 399 33 q 550 232 519 148 q 581 392 581 315 z "},"ς":{"ha":498,"x_min":62,"x_max":543,"o":"m 393 -61 q 364 -164 393 -115 q 282 -273 335 -214 l 221 -271 q 306 -163 276 -211 q 336 -68 336 -115 q 310 -8 336 -34 q 207 50 283 17 q 101 127 140 81 q 62 253 62 174 q 103 451 62 359 q 217 596 144 542 q 382 650 290 650 q 475 639 431 650 q 543 612 518 629 l 532 568 q 460 591 502 583 q 379 600 418 600 q 244 552 304 600 q 152 425 185 503 q 119 258 119 346 q 150 158 119 198 q 241 90 181 119 q 361 16 330 50 q 393 -61 393 -18 z "},"σ":{"ha":692,"x_min":64,"x_max":692,"o":"m 64 239 q 106 449 64 353 q 244 589 149 544 q 485 633 339 633 l 692 633 l 679 581 l 606 581 l 534 582 l 534 579 q 571 477 562 509 q 584 415 580 446 q 587 346 587 385 q 551 161 587 244 q 445 31 514 79 q 283 -17 376 -17 q 122 51 180 -17 q 64 239 64 119 m 530 364 q 484 581 530 470 l 446 581 q 186 475 250 581 q 123 243 123 369 q 171 81 123 130 q 289 33 219 33 q 465 124 399 33 q 530 364 530 215 z "},"τ":{"ha":489,"x_min":71,"x_max":546,"o":"m 163 78 q 186 218 163 115 q 282 579 210 320 l 71 579 l 81 633 l 546 633 l 534 579 l 335 579 q 239 206 259 295 q 218 75 218 117 q 268 33 218 33 q 317 37 288 33 l 309 -7 q 249 -17 287 -17 q 180 11 197 -17 q 163 78 163 38 z "},"υ":{"ha":684,"x_min":71,"x_max":619,"o":"m 81 176 q 90 252 81 213 q 120 354 100 291 q 150 457 140 418 q 160 534 160 496 q 148 579 160 565 q 106 593 135 593 q 71 590 82 593 l 75 639 q 114 643 92 643 q 190 618 165 643 q 215 538 215 593 q 204 443 215 490 q 172 332 193 397 q 146 245 155 279 q 138 183 138 212 q 174 74 138 115 q 300 33 211 33 q 455 100 396 33 q 538 261 514 168 q 562 443 562 355 q 555 563 562 522 q 538 633 548 604 l 596 633 l 603 610 q 619 450 619 557 q 590 236 619 342 q 487 57 561 131 q 286 -17 412 -17 q 136 36 191 -17 q 81 176 81 88 m 259 633 z "},"φ":{"ha":873,"x_min":40,"x_max":832,"o":"m 338 -28 q 119 60 197 -18 q 40 272 40 139 q 100 483 40 394 q 260 617 159 571 q 481 663 360 663 l 550 982 l 604 982 l 534 663 q 753 574 675 653 q 832 363 832 496 q 772 152 832 241 q 612 18 713 64 q 392 -28 512 -28 l 329 -315 l 275 -315 l 338 -28 m 777 359 q 712 537 777 469 q 529 615 648 605 l 399 22 q 588 65 501 22 q 725 185 674 109 q 777 359 777 262 m 473 612 q 284 569 371 612 q 147 449 198 526 q 96 275 96 372 q 160 98 96 165 q 343 20 224 30 l 473 612 z "},"χ":{"ha":625,"x_min":-138,"x_max":667,"o":"m 253 37 q 256 104 253 72 l 252 104 l 184 20 l -71 -315 l -138 -315 l 254 192 l 256 292 q 244 483 256 416 q 209 576 233 550 q 143 602 184 602 q 86 597 98 602 l 94 644 q 149 650 113 650 q 242 624 209 650 q 292 520 275 598 q 309 286 309 442 l 307 237 l 309 237 l 320 253 l 602 633 l 667 633 l 306 149 q 302 85 302 123 q 331 -191 302 -103 q 428 -279 359 -279 q 469 -275 445 -279 l 458 -321 q 414 -328 441 -328 q 292 -242 330 -328 q 253 37 254 -157 z "},"ψ":{"ha":904,"x_min":103,"x_max":888,"o":"m 351 -315 l 296 -315 l 359 -8 q 162 65 222 -1 q 103 265 103 130 q 160 633 103 417 l 220 633 q 161 267 161 409 q 208 101 161 151 q 371 47 254 52 l 533 821 l 587 821 l 427 46 q 619 109 545 50 q 740 292 692 168 q 828 633 787 415 l 888 633 q 796 271 844 403 q 659 66 748 140 q 415 -9 570 -7 l 351 -315 z "},"ω":{"ha":994,"x_min":69,"x_max":914,"o":"m 69 191 q 116 410 69 299 q 239 633 163 522 l 302 633 q 173 399 221 513 q 125 196 125 284 q 152 78 125 122 q 240 33 180 33 q 407 143 338 33 q 490 429 476 252 l 557 429 q 518 207 518 287 q 552 78 518 123 q 653 33 587 33 q 772 86 727 33 q 836 218 817 139 q 854 380 854 296 q 845 505 854 448 q 818 633 836 561 l 872 633 q 902 510 890 582 q 914 368 914 437 q 843 84 914 186 q 644 -17 771 -17 q 471 144 492 -17 l 468 144 q 383 31 435 79 q 241 -17 331 -17 q 111 38 153 -17 q 69 191 69 94 z "},"ϊ":{"ha":300,"x_min":71,"x_max":410,"o":"m 127 69 q 135 45 127 52 q 164 39 143 39 l 207 41 l 196 -4 q 154 -9 173 -9 q 91 5 112 -9 q 71 56 71 20 q 75 92 71 73 l 189 633 l 243 633 l 135 118 q 127 69 127 87 m 322 785 l 339 852 l 410 852 l 393 785 l 322 785 m 97 785 l 114 851 l 186 851 l 171 785 l 97 785 z "},"ϋ":{"ha":684,"x_min":71,"x_max":619,"o":"m 81 176 q 90 252 81 213 q 120 354 100 291 q 150 457 140 418 q 160 534 160 496 q 148 579 160 565 q 106 593 135 593 q 71 590 82 593 l 75 639 q 114 643 92 643 q 190 618 165 643 q 215 538 215 593 q 204 443 215 490 q 172 332 193 397 q 146 245 155 279 q 138 183 138 212 q 174 74 138 115 q 300 33 211 33 q 455 100 396 33 q 538 261 514 168 q 562 443 562 355 q 555 563 562 522 q 538 633 548 604 l 596 633 l 603 610 q 619 450 619 557 q 590 236 619 342 q 487 57 561 131 q 286 -17 412 -17 q 136 36 191 -17 q 81 176 81 88 m 259 633 m 479 785 l 496 852 l 567 852 l 550 785 l 479 785 m 254 785 l 271 851 l 343 851 l 328 785 l 254 785 z "},"ό":{"ha":656,"x_min":58,"x_max":610,"o":"m 58 228 q 92 397 58 298 q 199 573 125 497 q 389 650 273 650 q 544 582 491 650 q 596 392 596 514 q 563 224 596 321 q 454 56 530 128 q 262 -17 379 -17 q 114 50 169 -17 q 58 228 58 116 m 538 395 q 501 541 538 481 q 386 600 465 600 q 242 539 303 600 q 149 391 180 479 q 117 225 117 303 q 157 85 117 138 q 264 33 197 33 q 410 90 348 33 q 505 231 473 146 q 538 395 538 315 m 400 762 l 528 999 l 610 999 l 449 762 l 400 762 z "},"ύ":{"ha":684,"x_min":71,"x_max":619,"o":"m 81 176 q 90 252 81 213 q 120 354 100 291 q 150 457 140 418 q 160 534 160 496 q 148 579 160 565 q 106 593 135 593 q 71 590 82 593 l 75 639 q 114 643 92 643 q 190 618 165 643 q 215 538 215 593 q 204 443 215 490 q 172 332 193 397 q 146 245 155 279 q 138 183 138 212 q 174 74 138 115 q 300 33 211 33 q 455 100 396 33 q 538 261 514 168 q 562 443 562 355 q 555 563 562 522 q 538 633 548 604 l 596 633 l 603 610 q 619 450 619 557 q 590 236 619 342 q 487 57 561 131 q 286 -17 412 -17 q 136 36 191 -17 q 81 176 81 88 m 259 633 m 349 762 l 477 999 l 558 999 l 397 762 l 349 762 z "},"ώ":{"ha":994,"x_min":69,"x_max":914,"o":"m 69 191 q 116 410 69 299 q 239 633 163 522 l 302 633 q 173 399 221 513 q 125 196 125 284 q 152 78 125 122 q 240 33 180 33 q 407 143 338 33 q 490 429 476 252 l 557 429 q 518 207 518 287 q 552 78 518 123 q 653 33 587 33 q 772 86 727 33 q 836 218 817 139 q 854 380 854 296 q 845 505 854 448 q 818 633 836 561 l 872 633 q 902 510 890 582 q 914 368 914 437 q 843 84 914 186 q 644 -17 771 -17 q 471 144 492 -17 l 468 144 q 383 31 435 79 q 241 -17 331 -17 q 111 38 153 -17 q 69 191 69 94 m 543 762 l 671 999 l 753 999 l 592 762 l 543 762 z "},"ϰ":{"ha":715,"x_min":18,"x_max":679,"o":"m 467 127 q 497 313 467 199 q 572 534 527 428 l 89 0 l 18 0 l 73 161 q 144 381 123 306 q 165 513 165 456 q 149 580 165 559 q 97 600 133 600 q 52 597 77 600 q 26 589 26 594 l 26 633 q 114 650 67 650 q 228 518 228 650 q 209 404 228 471 q 104 98 190 337 l 590 633 l 661 633 q 552 304 581 410 q 522 146 522 197 q 545 60 522 87 q 611 33 567 33 q 679 47 647 33 l 665 0 q 589 -17 640 -17 q 495 23 524 -17 q 467 127 467 64 z "},"ϱ":{"ha":721,"x_min":29,"x_max":637,"o":"m 346 -297 q 328 -257 346 -267 q 277 -245 310 -248 q 127 -216 180 -241 q 52 -138 75 -191 q 29 8 29 -85 q 64 242 29 104 q 152 471 100 380 q 271 606 203 562 q 433 650 338 650 q 583 589 528 650 q 637 427 637 529 q 594 201 637 302 q 469 41 550 100 q 279 -18 387 -18 q 168 5 218 -18 q 92 71 117 28 l 89 71 q 85 0 85 32 q 105 -113 85 -73 q 172 -172 125 -153 q 302 -196 218 -191 q 406 -285 406 -204 q 403 -315 406 -306 l 345 -315 l 346 -297 m 424 600 q 321 571 373 600 q 224 477 269 543 q 143 313 180 412 q 97 135 107 214 q 183 60 134 86 q 288 33 233 33 q 438 88 373 33 q 538 231 503 142 q 574 416 574 319 q 535 551 574 501 q 424 600 497 600 z "},"Ѐ":{"ha":701,"x_min":61,"x_max":724,"o":"m 61 0 l 248 907 l 724 907 l 711 852 l 298 852 l 224 492 l 606 492 l 595 437 l 211 437 l 134 54 l 572 54 l 558 0 l 61 0 m 483 956 l 387 1124 l 464 1124 l 534 956 l 483 956 z "},"Ё":{"ha":701,"x_min":61,"x_max":724,"o":"m 61 0 l 248 907 l 724 907 l 711 852 l 298 852 l 224 492 l 606 492 l 595 437 l 211 437 l 134 54 l 572 54 l 558 0 l 61 0 m 345 982 l 361 1064 l 432 1064 l 416 982 l 345 982 m 570 982 l 586 1064 l 657 1064 l 640 982 l 570 982 z "},"Ђ":{"ha":972,"x_min":117,"x_max":879,"o":"m 488 -14 l 501 39 l 515 39 q 680 78 612 39 q 782 178 748 118 q 815 300 815 238 q 754 428 815 382 q 583 473 693 473 q 370 449 465 473 l 277 0 l 215 0 l 393 852 l 117 852 l 131 907 l 844 907 l 829 852 l 453 852 l 382 509 q 575 528 477 528 q 803 466 728 528 q 879 300 879 405 q 830 138 879 210 q 697 24 781 65 q 517 -17 614 -17 q 488 -14 503 -17 z "},"Ѓ":{"ha":699,"x_min":58,"x_max":787,"o":"m 58 0 l 245 907 l 787 907 l 773 852 l 297 852 l 119 0 l 58 0 m 472 956 l 607 1124 l 689 1124 l 539 956 l 472 956 z "},"Є":{"ha":777,"x_min":90,"x_max":786,"o":"m 90 349 q 157 632 90 499 q 342 845 223 764 q 610 925 460 925 q 786 893 712 925 l 772 839 q 614 869 706 869 q 411 818 503 869 q 259 681 319 766 q 174 496 198 595 l 653 496 l 637 441 l 161 441 q 154 345 154 399 q 239 123 154 207 q 461 39 323 39 q 626 71 535 39 l 640 75 l 627 20 q 541 -6 593 4 q 446 -17 489 -17 q 188 83 285 -17 q 90 349 90 184 z "},"Ѕ":{"ha":741,"x_min":32,"x_max":704,"o":"m 32 43 l 45 97 q 146 54 82 70 q 282 39 211 39 q 492 100 414 39 q 571 262 571 161 q 543 358 571 321 q 476 412 515 394 q 380 446 437 430 q 258 493 307 467 q 182 562 210 519 q 154 671 154 604 q 192 801 154 743 q 302 892 230 859 q 473 925 374 925 q 704 879 602 925 l 692 818 q 597 853 663 837 q 471 869 530 869 q 288 812 358 869 q 218 665 218 755 q 259 572 218 609 q 412 503 299 535 q 530 456 482 483 q 606 383 577 430 q 635 262 635 336 q 537 60 635 136 q 279 -17 439 -17 q 142 -2 210 -17 q 32 43 75 12 z "},"І":{"ha":323,"x_min":61,"x_max":310,"o":"m 61 0 l 248 907 l 310 907 l 121 0 l 61 0 z "},"Ї":{"ha":323,"x_min":61,"x_max":449,"o":"m 136 982 l 153 1064 l 224 1064 l 208 982 l 136 982 m 361 982 l 378 1064 l 449 1064 l 432 982 l 361 982 m 61 0 l 248 907 l 310 907 l 121 0 l 61 0 z "},"Ј":{"ha":471,"x_min":-14,"x_max":457,"o":"m -14 -3 l 0 56 q 81 40 45 40 q 186 76 144 40 q 248 200 229 112 l 397 907 l 457 907 l 309 183 q 256 58 288 99 q 185 0 224 16 q 89 -17 146 -17 q -14 -3 25 -17 z "},"Љ":{"ha":1354,"x_min":-7,"x_max":1270,"o":"m -7 -12 l 4 46 l 9 46 q 165 128 95 52 q 312 388 235 204 q 486 907 388 571 l 873 907 l 794 522 q 954 538 883 538 q 1181 490 1092 538 q 1270 309 1270 441 q 1209 137 1270 212 q 1036 26 1148 62 q 811 0 965 0 l 624 0 l 799 852 l 534 852 q 342 311 427 496 q 181 56 258 125 q 3 -12 103 -12 l -7 -12 m 817 54 q 1107 121 1003 54 q 1211 311 1211 189 q 1146 437 1211 390 q 972 484 1082 484 q 783 467 871 484 l 699 54 l 817 54 z "},"Њ":{"ha":1289,"x_min":61,"x_max":1196,"o":"m 1196 306 q 1166 182 1196 240 q 1081 82 1137 124 q 948 20 1024 40 q 747 0 873 0 l 570 0 l 668 482 l 220 482 l 121 0 l 61 0 l 248 907 l 310 907 l 232 536 l 679 536 l 754 907 l 815 907 l 743 536 l 914 536 q 1124 475 1053 536 q 1196 306 1196 414 m 1137 309 q 1079 436 1137 389 q 920 482 1020 482 l 729 482 l 640 54 l 771 54 q 1038 123 939 54 q 1137 309 1137 192 z "},"Ћ":{"ha":977,"x_min":118,"x_max":876,"o":"m 871 343 q 861 258 871 304 l 808 1 l 747 1 l 799 252 q 811 338 811 314 q 642 489 811 489 q 504 474 578 489 q 389 436 429 458 l 300 1 l 239 1 l 415 852 l 118 852 l 131 907 l 876 907 l 864 852 l 476 852 l 403 503 q 635 545 511 545 q 811 493 752 545 q 871 343 871 441 z "},"Ќ":{"ha":775,"x_min":61,"x_max":827,"o":"m 827 907 l 289 441 l 657 0 l 585 0 l 212 443 l 119 0 l 61 0 l 248 907 l 309 907 l 212 446 l 749 907 l 827 907 m 472 956 l 607 1124 l 689 1124 l 539 956 l 472 956 z "},"Ѝ":{"ha":914,"x_min":58,"x_max":905,"o":"m 248 907 l 310 907 l 227 514 q 127 92 174 260 l 131 92 l 838 907 l 905 907 l 710 0 l 650 0 l 734 393 q 835 827 796 676 l 832 827 q 632 593 772 752 l 122 0 l 58 0 l 248 907 m 561 956 l 465 1124 l 542 1124 l 612 956 l 561 956 z "},"Ў":{"ha":692,"x_min":8,"x_max":779,"o":"m 8 -9 l 22 47 l 56 46 q 209 96 145 46 q 340 269 273 146 l 122 907 l 187 907 l 378 345 l 385 345 l 707 907 l 779 907 l 393 243 q 298 98 338 149 q 200 18 258 47 q 54 -12 142 -12 l 8 -9 m 250 1157 l 251 1165 l 249 1179 l 302 1179 l 303 1161 q 344 1054 303 1086 q 443 1022 385 1022 q 574 1065 517 1022 q 650 1179 631 1109 l 697 1179 q 604 1027 675 1087 q 443 966 532 966 q 302 1018 355 966 q 250 1157 250 1069 z "},"Џ":{"ha":856,"x_min":61,"x_max":846,"o":"m 268 -300 l 329 0 l 61 0 l 248 907 l 310 907 l 134 54 l 607 54 l 785 907 l 846 907 l 659 0 l 390 0 l 329 -300 l 268 -300 z "},"А":{"ha":804,"x_min":-17,"x_max":693,"o":"m -17 0 l 484 907 l 519 907 l 693 0 l 635 0 l 571 322 l 227 322 l 47 0 l -17 0 m 559 376 l 482 800 l 481 800 q 368 582 453 735 l 253 376 l 559 376 z "},"Б":{"ha":810,"x_min":61,"x_max":762,"o":"m 248 907 l 762 907 l 749 852 l 296 852 l 228 518 q 410 538 315 538 q 634 477 560 538 q 708 306 708 416 q 624 110 708 190 q 395 7 541 29 q 260 0 344 0 l 61 0 l 248 907 m 283 54 q 550 123 451 54 q 650 309 650 192 q 587 437 650 391 q 415 484 525 484 q 215 463 304 484 l 132 54 l 283 54 z "},"В":{"ha":800,"x_min":62,"x_max":734,"o":"m 252 907 l 428 907 q 650 854 566 907 q 734 692 734 802 q 678 540 734 602 q 526 464 621 478 l 526 461 q 654 404 606 454 q 701 277 701 354 q 680 177 701 225 q 617 90 659 128 q 519 31 576 51 q 415 5 462 11 q 282 0 368 0 l 62 0 l 252 907 m 432 489 q 540 516 479 489 q 634 587 600 543 q 668 692 668 631 q 603 808 668 764 q 432 852 537 852 l 298 852 l 227 489 l 432 489 m 293 54 q 486 82 410 54 q 598 162 561 109 q 635 279 635 215 q 585 390 635 345 q 440 435 536 435 l 211 435 l 136 54 l 293 54 z "},"Г":{"ha":699,"x_min":57,"x_max":786,"o":"m 57 0 l 244 907 l 786 907 l 772 852 l 296 852 l 118 0 l 57 0 z "},"Д":{"ha":947,"x_min":-61,"x_max":896,"o":"m 17 54 l 45 54 q 511 907 366 313 l 896 907 l 720 54 l 832 54 l 755 -300 l 694 -300 l 758 0 l 65 0 l 3 -300 l -61 -300 l 17 54 m 659 54 l 821 844 l 559 844 q 134 57 418 308 l 131 54 l 659 54 z "},"Е":{"ha":701,"x_min":61,"x_max":724,"o":"m 61 0 l 248 907 l 724 907 l 711 852 l 298 852 l 224 492 l 606 492 l 595 437 l 211 437 l 134 54 l 572 54 l 558 0 l 61 0 z "},"Ж":{"ha":966,"x_min":-46,"x_max":997,"o":"m 997 907 l 608 446 l 930 0 l 860 0 l 543 446 l 450 0 l 389 0 l 481 440 l 33 0 l -46 0 l 419 452 l 184 907 l 244 907 l 482 446 l 578 907 l 639 907 l 543 450 l 928 907 l 997 907 z "},"З":{"ha":768,"x_min":33,"x_max":710,"o":"m 33 37 l 46 93 q 163 52 111 64 q 285 39 215 39 q 504 103 420 39 q 587 271 587 167 q 535 394 587 349 q 374 439 482 439 l 285 439 l 297 493 l 345 493 q 484 508 439 493 q 565 557 528 524 q 624 634 602 590 q 646 724 646 677 q 590 832 646 795 q 437 869 534 869 q 351 862 390 869 q 212 817 313 854 l 227 880 q 452 925 340 925 q 640 876 570 925 q 710 726 710 827 q 676 599 710 654 q 594 513 642 545 q 504 471 546 481 l 504 465 q 610 403 568 454 q 652 279 652 353 q 605 130 652 197 q 475 22 558 62 q 286 -17 391 -17 q 33 37 134 -17 z "},"И":{"ha":914,"x_min":58,"x_max":905,"o":"m 248 907 l 310 907 l 227 514 q 127 92 174 260 l 131 92 l 838 907 l 905 907 l 710 0 l 650 0 l 734 393 q 835 827 796 676 l 832 827 q 632 593 772 752 l 122 0 l 58 0 l 248 907 z "},"Й":{"ha":914,"x_min":58,"x_max":905,"o":"m 248 907 l 310 907 l 227 514 q 127 92 174 260 l 131 92 l 838 907 l 905 907 l 710 0 l 650 0 l 734 393 q 835 827 796 676 l 832 827 q 632 593 772 752 l 122 0 l 58 0 l 248 907 m 396 1157 l 397 1165 l 395 1179 l 448 1179 l 449 1161 q 490 1054 449 1086 q 589 1022 530 1022 q 720 1065 663 1022 q 796 1179 777 1109 l 843 1179 q 750 1027 821 1087 q 589 966 678 966 q 448 1018 500 966 q 396 1157 396 1069 z "},"К":{"ha":775,"x_min":61,"x_max":827,"o":"m 827 907 l 289 441 l 657 0 l 585 0 l 212 443 l 119 0 l 61 0 l 248 907 l 309 907 l 212 446 l 749 907 l 827 907 z "},"Л":{"ha":888,"x_min":-7,"x_max":872,"o":"m -7 -12 l 3 45 l 14 45 q 163 121 94 45 q 311 385 233 198 q 486 907 388 572 l 872 907 l 685 0 l 624 0 l 803 854 l 539 854 q 347 311 431 497 q 184 56 262 125 q 3 -12 105 -12 l -7 -12 z "},"М":{"ha":1092,"x_min":54,"x_max":1069,"o":"m 338 907 l 447 273 q 479 71 466 168 l 482 71 l 555 195 l 975 907 l 1069 907 l 878 0 l 819 0 q 964 667 943 576 q 1007 851 984 758 l 1002 851 l 836 568 l 498 0 l 440 0 l 326 656 q 292 851 309 764 l 288 851 q 203 419 236 574 l 114 0 l 54 0 l 245 907 l 338 907 z "},"Н":{"ha":888,"x_min":56,"x_max":875,"o":"m 248 907 l 309 907 l 221 494 l 726 494 l 814 907 l 875 907 l 684 0 l 623 0 l 715 440 l 210 440 l 117 0 l 56 0 l 248 907 z "},"О":{"ha":958,"x_min":104,"x_max":904,"o":"m 104 325 q 160 602 104 463 q 326 833 216 741 q 590 925 436 925 q 822 835 741 925 q 904 581 904 745 q 849 306 904 445 q 686 75 795 168 q 421 -17 576 -17 q 187 73 269 -17 q 104 325 104 162 m 842 587 q 778 797 842 725 q 593 869 713 869 q 361 783 458 869 q 217 568 265 696 q 168 319 168 440 q 233 112 168 185 q 418 39 298 39 q 649 124 553 39 q 793 338 745 210 q 842 587 842 466 z "},"П":{"ha":879,"x_min":61,"x_max":865,"o":"m 61 0 l 248 907 l 865 907 l 675 0 l 616 0 l 791 852 l 298 852 l 121 0 l 61 0 z "},"Р":{"ha":770,"x_min":61,"x_max":743,"o":"m 248 907 l 467 907 q 667 850 592 907 q 743 697 743 793 q 633 475 743 557 q 330 392 523 394 q 203 399 271 392 l 122 0 l 61 0 l 248 907 m 679 690 q 620 809 679 765 q 464 852 562 852 l 296 852 l 216 456 q 323 446 260 446 q 583 511 488 446 q 679 690 679 577 z "},"С":{"ha":762,"x_min":92,"x_max":772,"o":"m 92 350 q 131 561 92 450 q 237 754 170 673 q 396 880 305 836 q 606 925 486 925 q 703 918 655 925 q 772 899 750 910 l 758 843 q 687 862 732 855 q 602 869 642 869 q 375 795 477 869 q 215 601 273 722 q 157 349 157 481 q 201 168 157 237 q 314 68 246 98 q 454 39 382 39 q 549 48 502 39 q 627 72 596 58 l 614 11 q 453 -17 546 -17 q 189 82 286 -17 q 92 350 92 180 z "},"Т":{"ha":656,"x_min":117,"x_max":747,"o":"m 218 0 l 395 852 l 117 852 l 131 907 l 747 907 l 734 852 l 454 852 l 281 0 l 218 0 z "},"У":{"ha":692,"x_min":8,"x_max":779,"o":"m 8 -9 l 22 47 l 56 46 q 209 96 145 46 q 340 269 273 146 l 122 907 l 187 907 l 378 345 l 385 345 l 707 907 l 779 907 l 393 243 q 298 98 338 149 q 200 18 258 47 q 54 -12 142 -12 l 8 -9 z "},"Ф":{"ha":997,"x_min":90,"x_max":958,"o":"m 449 -50 l 389 -47 l 411 60 q 262 98 336 62 q 139 210 188 134 q 90 397 90 286 q 151 620 90 513 q 322 795 211 727 q 578 865 433 863 l 599 966 l 660 966 l 639 864 q 874 761 789 851 q 958 525 958 671 q 900 306 958 412 q 731 133 842 201 q 471 60 620 64 l 449 -50 m 422 115 l 567 810 q 344 743 437 805 q 202 586 250 680 q 154 392 154 491 q 191 244 154 305 q 288 151 227 183 q 422 115 349 119 m 893 530 q 857 679 893 616 q 760 773 821 741 q 627 810 700 806 l 484 115 q 705 182 612 120 q 846 338 798 244 q 893 530 893 432 z "},"Х":{"ha":737,"x_min":-58,"x_max":811,"o":"m -58 0 l 353 469 l 161 907 l 222 907 l 397 510 l 400 510 l 736 907 l 811 907 l 424 458 l 616 0 l 555 0 l 382 411 l 379 411 l 18 0 l -58 0 z "},"Ц":{"ha":920,"x_min":60,"x_max":842,"o":"m 639 -300 l 700 0 l 60 0 l 248 907 l 309 907 l 134 54 l 603 54 l 781 907 l 842 907 l 664 54 l 772 54 l 700 -300 l 639 -300 z "},"Ч":{"ha":807,"x_min":151,"x_max":793,"o":"m 635 439 q 518 400 582 414 q 392 386 454 386 q 151 587 151 386 q 165 692 151 633 l 210 907 l 271 907 l 224 679 q 211 585 211 619 q 395 439 211 439 q 532 455 458 439 q 647 494 606 471 l 732 907 l 793 907 l 606 0 l 545 0 l 635 439 z "},"Ш":{"ha":1229,"x_min":61,"x_max":1218,"o":"m 61 0 l 248 907 l 310 907 l 134 54 l 524 54 l 703 907 l 764 907 l 587 54 l 979 54 l 1157 907 l 1218 907 l 1031 0 l 61 0 z "},"Щ":{"ha":1254,"x_min":61,"x_max":1204,"o":"m 1002 -300 l 1063 0 l 61 0 l 248 907 l 310 907 l 134 56 l 518 56 l 694 907 l 755 907 l 579 56 l 964 56 l 1143 907 l 1204 907 l 1025 56 l 1136 56 l 1064 -300 l 1002 -300 z "},"Ъ":{"ha":913,"x_min":98,"x_max":829,"o":"m 357 852 l 98 852 l 113 907 l 428 907 l 349 518 q 530 538 436 538 q 750 477 671 538 q 829 306 829 416 q 800 182 829 241 q 714 82 770 124 q 582 20 657 40 q 380 0 507 0 l 182 0 l 357 852 m 404 54 q 604 87 521 54 q 729 178 686 121 q 771 309 771 236 q 708 437 771 391 q 536 484 646 484 q 336 463 424 484 l 253 54 l 404 54 z "},"Ы":{"ha":1004,"x_min":62,"x_max":990,"o":"m 248 907 l 309 907 l 229 518 q 407 538 311 538 q 631 477 557 538 q 705 306 705 416 q 676 182 705 240 q 590 82 647 124 q 458 20 534 40 q 257 0 383 0 l 62 0 l 248 907 m 742 0 l 928 907 l 990 907 l 802 0 l 742 0 m 281 54 q 548 123 448 54 q 647 309 647 192 q 585 437 647 391 q 412 484 522 484 q 216 463 305 484 l 134 54 l 281 54 z "},"Ь":{"ha":794,"x_min":62,"x_max":705,"o":"m 248 907 l 309 907 l 229 518 q 407 538 311 538 q 631 477 557 538 q 705 306 705 416 q 676 182 705 240 q 590 82 647 124 q 458 20 534 40 q 257 0 383 0 l 62 0 l 248 907 m 281 54 q 548 123 448 54 q 647 309 647 192 q 585 437 647 391 q 412 484 522 484 q 216 463 305 484 l 134 54 l 281 54 z "},"Э":{"ha":799,"x_min":21,"x_max":746,"o":"m 21 20 l 33 75 q 114 48 72 58 q 216 39 155 39 q 528 144 408 39 q 675 440 648 249 l 182 440 l 195 494 l 682 494 l 685 551 q 640 742 685 671 q 529 841 595 813 q 393 869 463 869 q 195 839 285 869 l 208 893 q 380 925 292 925 q 555 899 476 925 q 690 785 633 872 q 746 532 746 698 q 702 300 746 413 q 592 120 659 186 q 428 19 526 54 q 210 -17 330 -17 q 104 -8 157 -17 q 21 20 51 1 z "},"Ю":{"ha":1219,"x_min":61,"x_max":1168,"o":"m 1168 581 q 1114 307 1168 446 q 955 76 1061 168 q 701 -17 849 -17 q 481 73 560 -17 q 401 325 401 163 q 411 440 401 386 l 210 440 l 121 0 l 61 0 l 248 907 l 310 907 l 222 494 l 422 494 q 509 707 449 610 q 661 865 569 805 q 871 925 753 925 q 1089 834 1010 925 q 1168 581 1168 743 m 1105 587 q 1045 795 1105 722 q 873 869 984 869 q 653 783 746 869 q 513 568 561 696 q 465 319 465 439 q 527 113 465 186 q 699 39 589 39 q 918 125 826 39 q 1058 339 1010 211 q 1105 587 1105 467 z "},"Я":{"ha":808,"x_min":37,"x_max":794,"o":"m 319 414 q 207 477 254 429 q 160 610 160 525 q 207 768 160 697 q 334 873 253 840 q 558 907 416 907 l 794 907 l 604 0 l 545 0 l 629 403 l 376 403 l 104 0 l 37 0 l 319 414 m 640 457 l 718 852 l 546 852 q 390 837 443 852 q 301 787 337 821 q 244 707 265 754 q 224 606 224 661 q 277 494 224 530 q 414 457 331 457 l 640 457 z "},"а":{"ha":663,"x_min":58,"x_max":610,"o":"m 58 200 q 98 406 58 302 q 212 580 137 511 q 386 650 286 650 q 538 562 481 650 l 541 562 l 571 633 l 610 633 l 501 118 q 496 72 496 91 q 526 39 496 39 q 568 41 551 39 l 555 -4 q 510 -9 534 -9 q 457 8 475 -9 q 439 54 439 25 q 443 102 439 75 l 440 102 q 232 -17 351 -17 q 104 38 149 -17 q 58 200 58 92 m 526 507 q 463 575 496 550 q 380 600 431 600 q 238 536 298 600 q 148 379 178 473 q 117 197 117 285 q 152 68 117 102 q 244 33 186 33 q 386 94 319 33 q 471 240 452 154 l 526 507 z "},"б":{"ha":660,"x_min":58,"x_max":635,"o":"m 58 239 q 92 483 58 354 q 181 712 125 611 q 297 857 237 814 q 465 925 357 899 l 635 965 l 619 904 l 419 851 q 262 741 325 827 q 161 539 200 655 l 167 539 q 268 604 216 583 q 386 625 319 625 q 530 561 479 625 q 582 383 582 496 q 543 188 582 280 q 431 40 503 96 q 262 -17 358 -17 q 117 41 175 -17 q 58 239 58 98 m 528 382 q 374 572 528 572 q 253 544 315 572 q 150 469 191 516 q 123 356 132 427 q 114 244 114 284 q 267 33 114 33 q 404 86 345 33 q 495 219 463 138 q 528 382 528 300 z "},"в":{"ha":607,"x_min":43,"x_max":551,"o":"m 43 25 q 77 301 51 159 q 138 514 104 444 q 228 617 173 584 q 359 650 282 650 q 500 608 450 650 q 551 494 551 567 q 396 329 551 375 l 396 326 q 522 184 522 299 q 449 38 522 94 q 256 -17 376 -17 q 43 25 135 -17 m 492 492 q 455 570 492 540 q 358 600 418 600 q 218 539 267 600 q 142 339 169 479 l 181 341 q 333 354 270 345 q 444 396 396 363 q 492 492 492 428 m 464 189 q 426 265 464 235 q 309 296 389 296 q 131 285 202 296 q 103 60 106 141 q 249 33 163 33 q 406 73 348 33 q 464 189 464 112 z "},"г":{"ha":545,"x_min":45,"x_max":509,"o":"m 45 147 q 97 283 45 236 q 248 355 149 330 q 361 390 321 374 q 426 431 402 406 q 450 497 450 456 q 418 572 450 543 q 325 600 387 600 q 235 589 274 600 q 157 558 195 578 l 174 618 q 326 650 250 650 q 458 610 408 650 q 509 503 509 570 q 451 385 509 428 q 294 317 393 342 q 182 279 221 298 q 123 230 142 260 q 103 149 103 199 q 144 61 103 90 q 249 33 186 33 q 419 75 345 33 l 410 18 q 244 -17 329 -17 q 99 26 153 -17 q 45 147 45 70 z "},"д":{"ha":689,"x_min":61,"x_max":621,"o":"m 61 212 q 103 416 61 321 q 216 568 145 511 q 368 625 286 625 q 448 617 415 625 q 504 598 481 610 q 555 567 526 587 l 558 567 q 564 669 564 633 q 517 862 564 789 q 350 935 471 935 q 239 922 298 935 l 253 972 q 353 987 303 987 q 556 912 491 987 q 621 685 621 837 q 525 170 621 357 q 261 -17 429 -17 q 112 45 163 -17 q 61 212 61 107 m 554 509 q 379 572 479 572 q 240 516 300 572 q 150 377 181 460 q 119 216 119 294 q 159 78 119 123 q 262 33 199 33 q 454 160 376 33 q 554 509 532 287 z "},"е":{"ha":599,"x_min":57,"x_max":562,"o":"m 57 232 q 97 430 57 334 q 212 588 137 527 q 385 650 286 650 q 513 608 465 650 q 562 496 562 566 q 459 356 562 404 q 148 300 357 309 l 117 298 q 110 241 110 269 q 159 84 110 135 q 311 33 209 33 q 471 69 382 33 l 463 21 q 301 -17 393 -17 q 117 50 176 -17 q 57 232 57 117 m 507 497 q 473 570 507 541 q 389 600 439 600 q 222 530 288 600 q 126 349 157 459 q 423 394 338 357 q 507 497 507 430 z "},"ж":{"ha":1069,"x_min":-3,"x_max":1072,"o":"m -3 -9 l 8 41 q 52 33 37 33 q 172 95 121 33 q 250 254 223 157 q 277 457 277 352 q 249 563 277 526 q 175 600 220 600 q 119 589 145 600 l 131 635 q 191 650 151 650 q 279 617 247 650 q 323 542 311 585 q 335 463 335 499 q 313 300 335 385 q 249 140 290 214 l 252 140 q 456 430 376 305 q 558 633 536 555 l 661 633 l 489 87 l 493 87 q 680 373 572 221 q 832 568 788 524 q 1013 650 916 650 q 1072 643 1038 650 l 1060 591 q 1017 600 1042 600 q 897 538 947 600 q 819 382 846 477 q 793 192 793 288 q 820 72 793 111 q 893 33 848 33 q 951 45 924 33 l 943 -3 q 914 -14 928 -12 q 878 -17 901 -17 q 775 32 814 -17 q 736 154 736 80 q 758 330 736 240 q 821 493 780 419 l 818 493 q 510 0 552 140 l 410 0 l 582 546 l 576 546 q 343 192 431 311 q 192 28 254 74 q 57 -17 130 -17 q 19 -14 35 -17 q -3 -9 3 -10 z "},"з":{"ha":585,"x_min":18,"x_max":518,"o":"m 18 20 l 26 71 q 199 33 95 33 q 366 75 304 33 q 428 187 428 116 q 388 277 428 243 q 267 310 349 310 l 171 310 l 182 358 l 252 358 q 419 398 373 358 q 465 494 465 438 q 422 573 465 546 q 309 600 380 600 q 209 588 254 600 q 121 558 163 575 l 135 612 q 222 639 173 628 q 318 650 272 650 q 465 609 411 650 q 518 496 518 568 q 476 390 518 436 q 372 334 435 345 l 372 330 q 449 286 419 320 q 479 193 479 252 q 404 40 479 97 q 200 -17 328 -17 q 96 -7 138 -17 q 18 20 55 2 z "},"и":{"ha":688,"x_min":56,"x_max":618,"o":"m 447 77 l 447 89 l 444 89 q 244 -17 374 -17 q 56 143 56 -17 q 66 231 56 175 l 149 633 l 204 633 l 117 211 q 109 140 109 168 q 146 62 109 91 q 244 33 183 33 q 390 90 328 33 q 478 244 453 146 l 564 633 l 618 633 l 522 172 q 509 82 509 103 q 518 49 509 59 q 555 39 528 39 l 583 41 l 572 -4 q 529 -9 550 -9 q 470 11 494 -9 q 447 77 447 32 z "},"й":{"ha":688,"x_min":56,"x_max":629,"o":"m 447 77 l 447 89 l 444 89 q 244 -17 374 -17 q 56 143 56 -17 q 66 231 56 175 l 149 633 l 204 633 l 117 211 q 109 140 109 168 q 146 62 109 91 q 244 33 183 33 q 390 90 328 33 q 478 244 453 146 l 564 633 l 618 633 l 522 172 q 509 82 509 103 q 518 49 509 59 q 555 39 528 39 l 583 41 l 572 -4 q 529 -9 550 -9 q 470 11 494 -9 q 447 77 447 32 m 246 897 q 250 933 246 924 l 288 933 l 288 909 q 318 828 288 854 q 401 802 349 802 q 581 933 534 802 l 629 933 q 543 797 602 843 q 401 750 485 750 q 283 792 319 750 q 246 897 246 835 z "},"к":{"ha":635,"x_min":49,"x_max":586,"o":"m 490 39 l 498 39 l 489 -12 l 472 -14 q 365 36 410 -14 q 282 168 321 85 q 170 318 235 270 l 103 0 l 49 0 l 179 633 l 233 633 l 171 325 l 515 633 l 586 633 l 237 326 q 336 174 286 285 q 403 75 367 111 q 490 39 439 39 z "},"л":{"ha":692,"x_min":-40,"x_max":625,"o":"m 546 39 l 589 41 l 578 -4 q 536 -9 556 -9 q 474 5 494 -9 q 453 56 453 20 q 457 92 453 71 l 561 595 q 494 602 535 602 q 394 574 437 602 q 312 488 351 547 q 222 277 274 429 q 155 112 179 157 q 104 39 131 67 q 45 -1 78 12 q -33 -14 12 -14 l -40 -14 l -25 43 l -24 43 q 41 60 9 43 q 99 122 74 77 q 173 297 125 168 q 238 459 210 397 q 301 561 267 522 q 380 625 330 600 q 492 650 431 650 q 625 637 559 650 l 518 118 l 511 69 q 518 45 511 52 q 546 39 526 39 z "},"м":{"ha":897,"x_min":-40,"x_max":831,"o":"m 720 69 q 727 45 720 52 q 754 39 734 39 l 798 41 l 786 -4 q 745 -9 764 -9 q 682 5 703 -9 q 661 56 661 20 q 665 92 661 71 l 766 578 q 406 0 552 263 l 361 0 q 348 320 355 193 q 322 575 340 448 l 314 575 q 203 180 262 309 q 91 19 144 51 q -33 -14 37 -14 l -40 -14 l -26 43 l -21 43 q 79 84 34 43 q 173 254 124 125 q 273 633 222 383 l 367 633 q 397 373 386 535 q 408 109 408 212 l 412 109 q 566 363 456 192 q 743 633 675 534 l 831 633 l 726 118 l 720 69 z "},"н":{"ha":710,"x_min":43,"x_max":654,"o":"m 43 0 l 172 633 l 228 633 l 170 355 l 543 355 l 599 633 l 654 633 l 522 0 l 467 0 l 530 301 l 160 301 l 97 0 l 43 0 z "},"о":{"ha":656,"x_min":58,"x_max":596,"o":"m 58 228 q 92 397 58 298 q 199 573 125 497 q 389 650 273 650 q 544 582 491 650 q 596 392 596 514 q 563 224 596 321 q 454 56 530 128 q 262 -17 379 -17 q 114 50 169 -17 q 58 228 58 116 m 538 395 q 501 541 538 481 q 386 600 465 600 q 242 539 303 600 q 149 391 180 479 q 117 225 117 303 q 157 85 117 138 q 264 33 197 33 q 410 90 348 33 q 505 231 473 146 q 538 395 538 315 z "},"п":{"ha":693,"x_min":41,"x_max":612,"o":"m 174 633 l 214 633 l 212 541 l 215 541 q 321 624 264 598 q 452 650 378 650 q 571 613 529 650 q 612 507 612 576 q 606 442 612 478 q 515 0 600 406 l 463 0 l 545 400 q 557 497 557 458 q 523 577 557 555 q 428 600 489 600 q 218 486 305 600 q 175 380 186 444 l 96 0 l 41 0 l 174 633 z "},"р":{"ha":679,"x_min":-12,"x_max":611,"o":"m 182 633 l 221 633 l 221 541 l 224 541 q 316 624 263 598 q 422 650 369 650 q 564 592 516 650 q 611 424 611 534 q 574 217 611 319 q 465 49 537 115 q 292 -17 392 -17 q 118 50 180 -17 l 115 50 l 40 -315 l -12 -315 l 182 633 m 553 416 q 513 557 553 515 q 415 600 473 600 q 272 536 341 600 q 186 386 203 472 l 127 103 q 195 52 158 71 q 288 33 231 33 q 438 101 378 33 q 525 258 498 168 q 553 416 553 349 z "},"с":{"ha":551,"x_min":58,"x_max":543,"o":"m 58 225 q 94 420 58 322 q 204 584 130 519 q 386 650 279 650 q 543 614 473 650 l 532 568 q 461 591 503 582 q 383 600 420 600 q 234 539 294 600 q 145 393 174 479 q 117 231 117 307 q 162 79 117 124 q 293 33 208 33 q 383 45 341 33 q 443 69 425 57 l 432 21 q 369 -6 411 5 q 288 -17 327 -17 q 121 42 184 -17 q 58 225 58 101 z "},"т":{"ha":1064,"x_min":43,"x_max":982,"o":"m 175 633 l 215 633 l 214 541 l 215 541 q 314 620 256 591 q 436 650 372 650 q 545 613 503 650 q 587 517 587 577 l 587 511 l 590 511 q 700 616 634 583 q 833 650 765 650 q 941 612 899 650 q 982 507 982 575 q 968 387 982 457 l 888 0 l 833 0 l 920 418 q 928 492 928 458 q 898 575 928 549 q 825 600 868 600 q 664 532 740 600 q 568 366 589 465 l 493 0 l 437 0 l 524 418 q 532 492 532 458 q 427 600 532 600 q 322 575 374 600 q 231 500 270 549 q 178 385 192 452 l 97 0 l 43 0 l 175 633 z "},"у":{"ha":627,"x_min":-77,"x_max":659,"o":"m -77 -328 l -64 -272 l -37 -275 q 115 -209 49 -275 q 245 7 180 -143 l 102 633 l 161 633 l 271 146 l 288 74 l 290 74 l 333 152 l 590 633 l 659 633 l 304 -14 q 197 -196 241 -130 q 98 -297 153 -262 q -39 -332 42 -332 q -77 -328 -59 -332 z "},"ф":{"ha":921,"x_min":58,"x_max":847,"o":"m 847 424 q 813 216 847 318 q 711 49 779 115 q 549 -17 644 -17 q 480 -5 515 -17 q 424 28 446 7 l 399 -96 q 320 -268 377 -204 q 189 -332 264 -332 l 174 -332 l 180 -275 l 193 -275 q 267 -249 235 -275 q 321 -166 299 -222 q 368 29 342 -111 q 225 -17 298 -17 q 101 41 144 -17 q 58 199 58 99 q 93 397 58 292 q 194 576 127 503 q 355 650 262 650 q 432 632 398 650 q 484 590 465 615 l 488 593 q 522 745 511 705 q 550 836 532 784 q 622 951 574 903 q 745 999 671 999 l 762 999 l 754 937 l 737 937 q 623 865 667 937 q 541 602 578 793 q 602 637 572 625 q 672 650 633 650 q 802 591 757 650 q 847 424 847 532 m 473 542 q 350 600 412 600 q 224 534 277 600 q 144 372 171 469 q 117 187 117 275 q 227 33 117 33 q 313 46 271 33 q 379 74 355 60 l 473 542 m 787 431 q 758 558 787 516 q 668 600 729 600 q 597 583 637 600 q 526 539 558 565 l 432 71 q 494 41 470 50 q 545 33 519 33 q 687 99 633 33 q 765 256 742 165 q 787 431 787 348 z "},"х":{"ha":578,"x_min":-31,"x_max":611,"o":"m -31 0 l 262 325 l 97 633 l 157 633 l 302 357 l 545 633 l 611 633 l 328 310 l 496 0 l 436 0 l 289 278 l 36 0 l -31 0 z "},"ц":{"ha":664,"x_min":56,"x_max":618,"o":"m 539 -7 q 447 66 447 -7 l 447 78 l 444 78 q 358 4 405 25 q 233 -17 311 -17 q 105 21 154 -17 q 56 151 56 59 q 66 231 56 175 l 149 633 l 204 633 l 117 211 q 109 149 109 172 q 145 59 109 84 q 241 33 182 33 q 395 81 340 33 q 478 228 450 130 l 564 633 l 618 633 l 519 153 q 509 82 509 106 q 520 49 509 60 q 567 39 532 39 l 600 40 l 547 -231 l 492 -231 l 539 -7 z "},"ч":{"ha":640,"x_min":93,"x_max":583,"o":"m 467 329 q 371 267 427 289 q 252 245 316 245 q 137 283 181 245 q 93 383 93 321 q 103 468 93 424 l 138 633 l 193 633 l 155 464 q 147 393 147 426 q 265 296 147 296 q 374 316 324 296 q 454 378 425 337 q 500 493 484 418 l 529 633 l 583 633 l 454 0 l 399 0 l 467 329 z "},"ш":{"ha":1029,"x_min":56,"x_max":965,"o":"m 903 39 l 930 41 l 920 -4 q 876 -9 897 -9 q 818 9 841 -9 q 794 68 794 27 l 794 78 l 791 78 q 712 6 756 29 q 606 -17 667 -17 q 498 8 543 -17 q 437 90 452 34 q 363 14 418 45 q 248 -17 309 -17 q 105 27 154 -17 q 56 154 56 72 q 61 224 56 194 l 147 633 l 201 633 l 116 220 q 110 161 110 191 q 143 69 110 105 q 244 33 177 33 q 440 229 400 33 l 524 633 l 579 633 l 492 211 q 484 140 484 168 q 519 63 484 93 q 606 33 554 33 q 752 96 692 33 q 835 269 812 159 l 911 633 l 965 633 l 869 172 q 856 82 856 103 q 866 49 856 59 q 903 39 876 39 z "},"щ":{"ha":1007,"x_min":56,"x_max":965,"o":"m 794 68 l 794 78 l 791 78 q 712 6 756 29 q 606 -17 667 -17 q 498 8 543 -17 q 437 90 452 34 q 363 14 418 45 q 248 -17 309 -17 q 105 27 154 -17 q 56 154 56 72 q 61 224 56 194 l 147 633 l 201 633 l 116 220 q 110 161 110 191 q 143 69 110 105 q 244 33 177 33 q 440 229 400 33 l 524 633 l 579 633 l 492 211 q 484 140 484 168 q 519 63 484 93 q 606 33 554 33 q 752 96 692 33 q 835 269 812 159 l 911 633 l 965 633 l 869 172 q 856 82 856 103 q 868 49 856 59 q 914 39 881 39 l 947 40 l 895 -231 l 839 -231 l 886 -9 l 876 -9 q 818 9 841 -9 q 794 68 794 27 z "},"ъ":{"ha":684,"x_min":31,"x_max":589,"o":"m 94 49 l 203 586 l 31 586 l 39 633 l 267 633 l 208 346 q 299 374 247 363 q 389 386 351 386 q 535 341 481 386 q 589 220 589 296 q 508 59 589 123 q 307 -5 427 -5 q 94 49 165 -5 m 533 221 q 496 301 533 269 q 382 334 458 334 q 295 323 347 334 q 197 293 242 313 l 154 75 q 304 45 213 45 q 470 93 407 45 q 533 221 533 142 z "},"ы":{"ha":847,"x_min":40,"x_max":802,"o":"m 40 45 l 163 633 l 215 633 l 157 346 q 248 375 197 363 q 339 386 298 386 q 485 341 431 386 q 539 220 539 296 q 462 55 539 115 q 252 -5 385 -5 q 40 45 117 -5 m 614 0 l 745 633 l 802 633 l 671 0 l 614 0 m 484 221 q 442 303 484 272 q 332 334 400 334 q 245 323 297 334 q 147 293 193 312 l 102 75 q 253 45 162 45 q 422 91 360 45 q 484 221 484 136 z "},"ь":{"ha":639,"x_min":39,"x_max":545,"o":"m 39 45 l 161 632 l 215 633 l 157 346 q 338 386 248 386 q 490 341 435 386 q 545 216 545 296 q 510 105 545 155 q 410 24 476 54 q 254 -5 345 -5 q 133 8 191 -5 q 39 45 76 21 m 492 220 q 447 302 492 271 q 330 334 403 334 q 241 324 291 334 q 144 293 191 314 l 102 75 q 254 45 162 45 q 428 92 363 45 q 492 220 492 139 z "},"э":{"ha":596,"x_min":28,"x_max":524,"o":"m 28 17 l 39 71 q 113 43 81 50 q 184 36 145 36 q 371 109 296 36 q 463 307 446 182 l 139 307 l 155 359 l 468 359 l 469 376 l 469 390 q 426 542 469 487 q 292 597 383 597 q 201 588 250 597 q 115 562 153 578 l 126 616 q 289 650 201 650 q 460 585 397 650 q 524 392 524 521 q 429 96 524 210 q 180 -17 334 -17 q 28 17 80 -17 z "},"ю":{"ha":924,"x_min":43,"x_max":864,"o":"m 311 221 q 318 301 311 248 l 160 301 l 97 0 l 43 0 l 172 633 l 228 633 l 170 354 l 329 354 q 451 571 366 492 q 648 650 536 650 q 808 585 752 650 q 864 392 864 520 q 829 225 864 321 q 719 56 795 129 q 526 -17 643 -17 q 369 47 427 -17 q 311 221 311 112 m 810 408 q 769 549 810 497 q 648 600 728 600 q 500 543 564 600 q 402 398 437 486 q 368 225 368 311 q 409 85 368 136 q 526 33 449 33 q 677 90 613 33 q 776 234 742 147 q 810 408 810 321 z "},"я":{"ha":675,"x_min":-1,"x_max":616,"o":"m -1 -16 l 16 36 q 37 33 21 33 q 81 50 62 33 q 114 92 100 67 q 148 159 128 117 q 194 248 174 216 q 244 292 215 280 l 244 294 q 174 349 201 311 q 147 431 147 387 q 225 582 147 523 q 421 642 303 642 q 534 630 484 642 q 616 600 585 618 l 494 0 l 440 0 l 496 278 l 332 278 q 288 272 298 278 q 236 222 256 254 q 193 134 217 190 q 155 54 172 84 q 109 3 138 24 q 33 -17 79 -17 l -1 -16 m 507 328 l 555 572 q 429 593 496 593 q 301 569 352 593 q 228 508 251 545 q 205 433 205 471 q 233 355 205 382 q 323 328 260 328 l 507 328 z "},"ѐ":{"ha":596,"x_min":57,"x_max":562,"o":"m 57 232 q 97 430 57 334 q 212 588 137 527 q 385 650 286 650 q 513 608 465 650 q 562 496 562 566 q 459 356 562 404 q 148 300 357 309 l 117 298 q 110 241 110 269 q 159 84 110 135 q 311 33 209 33 q 471 69 382 33 l 463 21 q 301 -17 393 -17 q 117 50 176 -17 q 57 232 57 117 m 507 497 q 473 570 507 541 q 389 600 439 600 q 222 530 288 600 q 126 349 157 459 q 423 394 338 357 q 507 497 507 430 m 376 762 l 319 999 l 390 999 l 423 762 l 376 762 z "},"ё":{"ha":596,"x_min":57,"x_max":562,"o":"m 57 232 q 97 430 57 334 q 212 588 137 527 q 385 650 286 650 q 513 608 465 650 q 562 496 562 566 q 459 356 562 404 q 148 300 357 309 l 117 298 q 110 241 110 269 q 159 84 110 135 q 311 33 209 33 q 471 69 382 33 l 463 21 q 301 -17 393 -17 q 117 50 176 -17 q 57 232 57 117 m 507 497 q 473 570 507 541 q 389 600 439 600 q 222 530 288 600 q 126 349 157 459 q 423 394 338 357 q 507 497 507 430 m 464 785 l 481 852 l 551 852 l 534 785 l 464 785 m 239 785 l 256 851 l 328 851 l 313 785 l 239 785 z "},"ђ":{"ha":664,"x_min":54,"x_max":618,"o":"m 144 -212 l 160 -157 l 189 -158 q 391 -62 307 -158 q 517 163 475 33 q 559 389 559 293 q 529 513 559 473 q 435 553 498 553 q 267 487 340 553 q 174 317 195 422 l 109 0 l 54 0 l 225 814 l 110 814 l 122 867 l 235 867 l 260 982 l 314 982 l 290 867 l 542 867 l 529 814 l 278 814 q 208 489 229 576 l 211 489 q 316 575 261 547 q 443 603 370 603 q 572 551 526 603 q 618 396 618 499 q 572 140 618 283 q 426 -107 527 -2 q 168 -212 325 -212 l 144 -212 z "},"ѓ":{"ha":545,"x_min":45,"x_max":536,"o":"m 45 147 q 97 283 45 236 q 248 355 149 330 q 361 390 321 374 q 426 431 402 406 q 450 497 450 456 q 418 572 450 543 q 325 600 387 600 q 235 589 274 600 q 157 558 195 578 l 174 618 q 326 650 250 650 q 458 610 408 650 q 509 503 509 570 q 451 385 509 428 q 294 317 393 342 q 182 279 221 298 q 123 230 142 260 q 103 149 103 199 q 144 61 103 90 q 249 33 186 33 q 419 75 345 33 l 410 18 q 244 -17 329 -17 q 99 26 153 -17 q 45 147 45 70 m 331 762 l 460 999 l 536 999 l 382 762 l 331 762 z "},"є":{"ha":574,"x_min":69,"x_max":554,"o":"m 69 235 q 115 445 69 350 q 240 595 161 540 q 412 650 319 650 q 554 618 483 650 l 545 570 q 408 600 467 600 q 280 565 336 600 q 189 475 224 530 q 143 361 154 420 l 464 361 l 449 307 l 127 307 q 122 239 122 260 q 166 87 122 141 q 311 33 210 33 q 389 45 346 33 q 457 75 433 58 l 447 20 q 289 -17 375 -17 q 128 51 186 -17 q 69 235 69 118 z "},"ѕ":{"ha":528,"x_min":21,"x_max":486,"o":"m 21 25 l 33 79 q 192 33 112 33 q 345 81 310 33 q 379 176 379 129 q 361 243 379 218 q 315 282 343 269 q 241 310 287 296 q 169 341 195 327 q 123 384 142 356 q 104 458 104 412 q 162 598 104 546 q 315 650 220 650 q 411 637 363 650 q 486 608 458 625 l 475 558 q 399 589 433 578 q 326 600 364 600 q 207 564 252 600 q 163 467 163 528 q 187 398 163 422 q 257 359 212 374 q 352 326 318 340 q 411 278 385 311 q 436 192 436 246 q 370 33 436 83 q 192 -17 303 -17 q 104 -8 157 -17 q 21 25 52 1 z "},"і":{"ha":256,"x_min":41,"x_max":271,"o":"m 201 782 l 215 844 l 271 844 l 257 782 l 201 782 m 41 0 l 171 633 l 227 633 l 96 0 l 41 0 z "},"ї":{"ha":256,"x_min":41,"x_max":391,"o":"m 41 0 l 171 633 l 227 633 l 96 0 l 41 0 m 303 785 l 320 852 l 391 852 l 374 785 l 303 785 m 78 785 l 95 851 l 167 851 l 152 785 l 78 785 z "},"ј":{"ha":271,"x_min":-203,"x_max":288,"o":"m 214 782 l 228 844 l 288 844 l 273 782 l 214 782 m -203 -325 l -195 -271 q -140 -275 -165 -275 q -48 -258 -81 -275 q 3 -203 -15 -241 q 36 -94 21 -166 l 186 633 l 240 633 l 83 -138 q 44 -248 70 -207 q -24 -310 18 -288 q -136 -332 -67 -332 q -203 -325 -174 -332 z "},"љ":{"ha":1018,"x_min":-40,"x_max":926,"o":"m 567 346 q 651 375 606 363 q 734 386 697 386 q 876 343 825 386 q 926 227 926 301 q 850 59 926 123 q 653 -5 774 -5 q 450 54 527 -5 l 561 595 q 494 602 535 602 q 394 574 437 602 q 312 488 351 547 q 222 277 274 429 q 155 112 179 157 q 104 39 131 67 q 45 -1 78 12 q -33 -14 12 -14 l -40 -14 l -25 43 l -24 43 q 40 59 8 43 q 96 115 72 75 q 175 304 120 155 q 273 528 237 474 q 367 616 309 583 q 492 650 425 650 q 627 637 561 650 l 567 346 m 873 224 q 840 302 873 270 q 736 334 806 334 q 554 293 646 334 l 511 75 q 664 45 572 45 q 763 66 714 45 q 842 127 811 87 q 873 224 873 168 z "},"њ":{"ha":1017,"x_min":43,"x_max":926,"o":"m 447 56 l 501 317 l 161 317 l 97 0 l 43 0 l 172 633 l 228 633 l 172 366 l 514 366 l 570 633 l 624 633 l 564 346 q 656 375 608 364 q 734 386 703 386 q 880 340 834 386 q 926 220 926 294 q 849 54 926 113 q 637 -5 772 -5 q 447 56 522 -5 m 871 221 q 730 334 871 334 q 647 323 696 334 q 553 293 599 313 l 509 75 q 648 45 561 45 q 809 89 747 45 q 871 221 871 132 z "},"ћ":{"ha":676,"x_min":49,"x_max":607,"o":"m 607 454 q 590 335 607 412 l 524 0 l 469 0 l 538 342 q 550 444 550 404 q 517 525 550 502 q 422 547 484 547 q 264 488 336 547 q 172 342 191 429 l 103 0 l 49 0 l 216 818 l 107 818 l 118 867 l 228 867 l 253 982 l 304 982 l 282 867 l 545 867 l 533 818 l 269 818 q 197 484 206 516 l 200 484 q 437 597 294 597 q 564 561 521 597 q 607 454 607 524 z "},"ќ":{"ha":635,"x_min":49,"x_max":586,"o":"m 490 39 l 498 39 l 489 -12 l 472 -14 q 365 36 410 -14 q 282 168 321 85 q 170 318 235 270 l 103 0 l 49 0 l 179 633 l 233 633 l 171 325 l 515 633 l 586 633 l 237 326 q 336 174 286 285 q 403 75 367 111 q 490 39 439 39 m 353 762 l 481 999 l 558 999 l 404 762 l 353 762 z "},"ѝ":{"ha":688,"x_min":56,"x_max":618,"o":"m 447 77 l 447 89 l 444 89 q 244 -17 374 -17 q 56 143 56 -17 q 66 231 56 175 l 149 633 l 204 633 l 117 211 q 109 140 109 168 q 146 62 109 91 q 244 33 183 33 q 390 90 328 33 q 478 244 453 146 l 564 633 l 618 633 l 522 172 q 509 82 509 103 q 518 49 509 59 q 555 39 528 39 l 583 41 l 572 -4 q 529 -9 550 -9 q 470 11 494 -9 q 447 77 447 32 m 380 762 l 323 999 l 394 999 l 427 762 l 380 762 z "},"ў":{"ha":627,"x_min":-77,"x_max":659,"o":"m 253 897 q 257 933 253 924 l 294 933 l 294 909 q 325 828 294 854 q 408 802 356 802 q 587 933 541 802 l 636 933 q 550 797 608 843 q 408 750 492 750 q 290 792 326 750 q 253 897 253 835 m -77 -328 l -64 -272 l -37 -275 q 115 -209 49 -275 q 245 7 180 -143 l 102 633 l 161 633 l 271 146 l 288 74 l 290 74 l 333 152 l 590 633 l 659 633 l 304 -14 q 197 -196 241 -130 q 98 -297 153 -262 q -39 -332 42 -332 q -77 -328 -59 -332 z "},"џ":{"ha":703,"x_min":56,"x_max":618,"o":"m 447 77 l 447 89 l 444 89 q 244 -17 374 -17 q 56 143 56 -17 q 66 231 56 175 l 149 633 l 204 633 l 117 211 q 109 140 109 168 q 146 62 109 91 q 244 33 183 33 q 390 90 328 33 q 478 244 453 146 l 564 633 l 618 633 l 522 172 q 509 82 509 103 q 518 49 509 59 q 555 39 528 39 l 583 41 l 572 -4 q 529 -9 550 -9 q 470 11 494 -9 q 447 77 447 32 m 160 -315 l 214 -82 l 260 -82 l 210 -315 l 160 -315 z "},"Ґ":{"ha":710,"x_min":60,"x_max":852,"o":"m 60 0 l 248 907 l 737 907 l 793 1169 l 852 1169 l 789 852 l 298 852 l 121 0 l 60 0 z "},"ґ":{"ha":533,"x_min":41,"x_max":610,"o":"m 41 0 l 171 633 l 510 633 l 554 839 l 610 839 l 553 581 l 214 581 l 97 0 l 41 0 z "},"Ғ":{"ha":640,"x_min":78,"x_max":724,"o":"m 713 854 l 323 854 l 250 492 l 486 492 l 472 437 l 239 437 l 150 0 l 89 0 l 178 437 l 78 437 l 92 492 l 189 492 l 273 907 l 724 907 l 713 854 z "},"ғ":{"ha":586,"x_min":39,"x_max":587,"o":"m 572 581 l 264 581 l 204 293 l 370 293 l 357 239 l 193 237 l 144 0 l 85 0 l 135 237 l 39 237 l 52 293 l 146 293 l 218 633 l 587 633 l 572 581 z "},"Җ":{"ha":913,"x_min":-81,"x_max":966,"o":"m 848 65 l 905 65 l 828 -300 l 766 -300 l 833 0 l 822 0 l 509 446 l 415 0 l 354 0 l 446 440 l -1 0 l -81 0 l 382 449 l 146 907 l 210 907 l 447 446 l 543 907 l 604 907 l 509 450 l 893 907 l 966 907 l 571 443 l 848 65 z "},"җ":{"ha":1072,"x_min":-5,"x_max":1069,"o":"m 892 -17 l 875 -17 q 772 32 812 -17 q 733 154 733 80 q 755 330 733 240 q 818 493 777 419 l 815 493 q 507 0 549 140 l 407 0 l 579 546 l 574 546 q 338 190 425 307 q 188 28 250 73 q 54 -17 126 -17 q 16 -14 32 -17 q -5 -9 1 -10 l 5 41 q 49 33 34 33 q 169 95 118 33 q 247 254 220 157 q 273 457 273 352 q 245 563 273 526 q 172 600 218 600 q 117 589 142 600 l 127 635 q 187 650 149 650 q 276 617 244 650 q 320 542 309 585 q 332 463 332 499 q 309 300 332 385 q 245 140 287 214 l 249 140 q 453 430 373 305 q 555 633 534 555 l 659 633 l 486 87 l 490 87 q 677 373 569 221 q 829 568 785 524 q 1010 650 913 650 q 1069 643 1036 650 l 1057 591 q 1037 597 1051 595 q 1014 600 1023 600 q 894 538 945 600 q 817 382 843 477 q 790 192 790 288 q 818 72 790 111 q 890 33 845 33 q 951 50 924 33 l 897 -231 l 846 -231 l 892 -17 z "},"Қ":{"ha":753,"x_min":62,"x_max":828,"o":"m 290 437 l 603 65 l 657 65 l 581 -300 l 519 -300 l 586 0 l 214 443 l 121 0 l 62 0 l 249 907 l 310 907 l 214 446 l 746 907 l 828 907 l 290 437 z "},"қ":{"ha":555,"x_min":40,"x_max":578,"o":"m 482 39 l 490 39 l 440 -231 l 389 -231 l 435 -11 q 346 46 383 0 q 273 168 309 93 q 161 318 227 269 l 94 0 l 40 0 l 171 633 l 225 633 l 163 325 l 493 633 l 578 633 l 227 317 q 278 267 256 299 q 330 174 300 235 q 397 74 362 110 q 482 39 432 39 z "},"Ұ":{"ha":705,"x_min":140,"x_max":771,"o":"m 397 328 l 551 328 l 538 279 l 386 279 l 328 0 l 268 0 l 326 279 l 144 279 l 157 328 l 338 328 l 346 370 l 140 907 l 201 907 l 380 428 l 701 907 l 771 907 l 406 370 l 397 328 z "},"ұ":{"ha":654,"x_min":50,"x_max":696,"o":"m 310 24 l 460 24 l 449 -25 l 300 -25 l 241 -315 l 180 -315 l 239 -25 l 97 -25 l 109 24 l 249 24 l 252 36 l 50 644 l 111 644 l 283 107 l 286 107 l 618 644 l 696 644 l 313 36 l 310 24 z "},"Ҳ":{"ha":750,"x_min":-56,"x_max":814,"o":"m 427 458 l 591 65 l 648 65 l 572 -300 l 511 -300 l 578 0 l 558 0 l 382 407 l 379 407 l 21 0 l -56 0 l 355 469 l 164 907 l 225 907 l 400 518 l 403 518 l 739 907 l 814 907 l 427 458 z "},"ҳ":{"ha":571,"x_min":-33,"x_max":608,"o":"m 458 65 l 511 65 l 447 -231 l 395 -231 l 444 0 l 433 0 l 286 278 l 33 0 l -33 0 l 256 325 l 94 633 l 154 633 l 301 358 l 542 633 l 608 633 l 325 310 l 458 65 z "},"Ҷ":{"ha":627,"x_min":50,"x_max":692,"o":"m 518 65 l 574 65 l 496 -300 l 436 -300 l 503 0 l 443 0 l 532 428 q 300 386 423 386 q 50 587 50 386 q 64 692 50 629 l 109 907 l 170 907 l 122 679 q 110 593 110 616 q 153 480 110 519 q 293 441 195 441 q 431 457 357 441 q 546 494 505 472 l 631 907 l 692 907 l 518 65 z "},"ҷ":{"ha":608,"x_min":122,"x_max":612,"o":"m 497 65 l 549 65 l 484 -231 l 431 -231 l 482 0 l 428 0 l 496 329 q 400 267 456 289 q 281 245 345 245 q 166 283 210 245 q 122 383 122 321 q 132 468 122 424 l 167 633 l 222 633 l 184 464 q 176 393 176 426 q 294 296 176 296 q 449 340 391 296 q 529 495 506 384 q 558 633 553 606 l 612 633 l 497 65 z "},"Ԛ":{"ha":951,"x_min":92,"x_max":892,"o":"m 92 319 q 147 601 92 460 q 311 833 203 741 q 567 925 418 925 q 808 839 724 925 q 892 586 892 753 q 811 260 892 412 q 611 60 730 108 l 611 57 q 757 61 686 61 l 817 61 l 804 -5 q 661 0 760 0 q 536 -4 601 0 q 390 -8 451 -8 q 171 79 251 -8 q 92 319 92 165 m 829 587 q 765 798 829 726 q 575 869 701 869 q 350 783 445 869 q 205 568 254 696 q 157 319 157 439 q 220 111 157 182 q 410 39 283 39 q 634 125 539 39 q 780 340 730 212 q 829 587 829 468 z "},"ԛ":{"ha":659,"x_min":58,"x_max":621,"o":"m 456 98 l 453 98 q 343 8 401 34 q 235 -17 286 -17 q 58 201 58 -17 q 100 415 58 311 q 218 584 142 519 q 390 650 294 650 q 487 627 446 650 q 543 568 528 604 l 546 568 l 581 633 l 621 633 l 422 -315 l 367 -315 l 456 98 m 539 507 q 471 574 508 549 q 380 600 435 600 q 238 536 298 600 q 148 378 178 472 q 117 199 117 284 q 152 69 117 104 q 237 33 188 33 q 346 66 292 33 q 437 147 399 100 q 484 232 475 195 l 539 507 z "},"Ԝ":{"ha":1145,"x_min":140,"x_max":1250,"o":"m 140 907 l 201 907 l 292 257 l 314 92 l 317 92 q 353 188 328 127 q 654 907 378 249 l 733 907 l 757 258 l 765 92 l 768 92 q 842 249 795 158 l 1183 907 l 1250 907 l 777 0 l 717 0 q 679 817 679 811 l 676 817 l 619 686 l 334 0 l 273 0 l 140 907 z "},"ԝ":{"ha":965,"x_min":92,"x_max":999,"o":"m 92 633 l 150 633 l 231 66 l 235 66 q 273 148 242 85 l 301 205 l 492 633 l 564 633 l 614 187 l 621 136 l 629 66 l 631 66 l 652 106 l 693 180 l 935 633 l 999 633 l 653 0 l 585 0 l 542 374 q 524 568 524 513 l 519 568 q 513 553 517 562 q 260 0 509 544 l 189 0 l 92 633 z "},"֏":{"ha":704,"x_min":110,"x_max":664,"o":"m 567 464 l 549 380 l 633 380 l 619 319 l 534 319 l 526 279 q 465 0 482 90 l 406 0 q 478 319 414 45 l 273 319 l 285 380 l 490 380 l 509 464 l 306 464 l 319 525 l 521 525 q 547 671 539 616 q 555 772 555 726 q 522 891 555 857 q 406 925 488 925 q 279 874 326 925 q 215 747 232 823 l 167 528 l 110 528 l 149 715 q 244 920 179 859 q 422 981 309 981 q 565 931 513 981 q 618 775 618 882 q 609 675 618 730 q 579 525 600 620 l 664 525 l 652 464 l 567 464 z "},"؋":{"ha":555,"x_min":-18,"x_max":458,"o":"m 212 679 l 212 764 l 277 764 l 277 679 l 212 679 m -18 61 l 406 61 l 406 103 q 170 163 254 103 q 86 330 86 224 q 104 424 86 380 q 159 492 121 467 q 254 517 197 517 q 382 466 338 517 q 443 334 427 416 q 458 136 458 252 l 458 0 l -18 0 l -18 61 m 249 457 q 170 424 196 457 q 143 338 143 391 q 213 208 143 250 q 401 165 283 165 q 368 375 401 293 q 249 457 334 457 m 211 -315 l 211 -78 l 258 -78 l 258 -315 l 211 -315 z "},"৲":{"ha":668,"x_min":144,"x_max":627,"o":"m 627 498 q 565 238 627 369 q 397 -1 503 107 l 366 32 q 513 255 454 134 q 571 488 571 376 q 144 904 571 829 l 170 942 q 507 797 387 913 q 627 498 627 681 z "},"৳":{"ha":745,"x_min":65,"x_max":667,"o":"m 131 167 q 138 224 131 189 l 208 559 l 65 559 l 77 608 l 220 608 l 244 726 q 254 799 254 771 q 241 854 254 838 q 201 869 228 869 q 165 865 182 869 l 170 914 q 205 920 184 920 q 286 894 260 920 q 311 817 311 869 q 296 708 311 779 l 275 608 l 372 608 l 361 559 l 264 559 l 197 241 q 187 168 187 191 q 221 69 187 105 q 326 33 255 33 q 479 90 416 33 q 572 241 541 147 q 603 449 603 336 q 584 559 603 528 q 515 591 565 591 q 432 574 485 591 l 443 625 q 515 643 478 643 q 637 587 608 643 q 667 449 667 530 q 626 216 667 323 q 508 46 585 110 q 332 -17 432 -17 q 185 32 239 -17 q 131 167 131 81 z "}}}
